<svg id="Layer_1" data-name="Layer 1" xmlns="http://www.w3.org/2000/svg" viewBox="0 0 645.33 122.88"><defs><style>.cls-1{fill:none;stroke:#5f0f40;stroke-linecap:square;stroke-linejoin:round;stroke-width:5px;}.cls-2{fill:#5f0f40;}.cls-3{fill:#9b1c22;}</style></defs><title>barectf-logo</title><line class="cls-1" x1="10.29" y1="43.95" x2="3.54" y2="37.19"/><line class="cls-1" x1="21.56" y1="32.69" x2="14.8" y2="25.93"/><line class="cls-1" x1="32.69" y1="21.56" x2="25.93" y2="14.8"/><line class="cls-1" x1="43.95" y1="10.29" x2="37.19" y2="3.54"/><path class="cls-1" d="M161,265.83l-43.2-43.2a8,8,0,0,0-11.39,0L63.07,266a8,8,0,0,0,0,11.39l43.33,43.33a8,8,0,0,0,11.39,0L161,277.49A8.32,8.32,0,0,0,161,265.83Z" transform="translate(-50.52 -210.22)"/><line class="cls-1" x1="112.59" y1="78.93" x2="119.34" y2="85.69"/><line class="cls-1" x1="101.32" y1="90.19" x2="108.08" y2="96.95"/><line class="cls-1" x1="90.19" y1="101.32" x2="96.95" y2="108.08"/><line class="cls-1" x1="78.93" y1="112.59" x2="85.69" y2="119.34"/><rect class="cls-1" x="60.89" y="252.74" width="6.75" height="9.74" transform="translate(-213.86 -89.32) rotate(-45)"/><rect class="cls-1" x="72.15" y="241.48" width="6.75" height="9.74" transform="translate(-202.6 -84.66) rotate(-45)"/><rect class="cls-1" x="83.28" y="230.35" width="6.75" height="9.74" transform="translate(-191.47 -80.05) rotate(-45)"/><rect class="cls-1" x="93.05" y="315.99" width="9.74" height="6.75" transform="translate(-247.67 -47.44) rotate(-45)"/><line class="cls-1" x1="43.95" y1="112.59" x2="37.19" y2="119.34"/><rect class="cls-1" x="81.78" y="304.72" width="9.74" height="6.75" transform="translate(-243 -58.7) rotate(-45)"/><line class="cls-1" x1="32.69" y1="101.32" x2="25.93" y2="108.08"/><rect class="cls-1" x="70.65" y="293.59" width="9.74" height="6.75" transform="translate(-238.39 -69.83) rotate(-45)"/><line class="cls-1" x1="21.56" y1="90.19" x2="14.8" y2="96.95"/><rect class="cls-1" x="59.39" y="282.33" width="9.74" height="6.75" transform="translate(-233.72 -81.1) rotate(-45)"/><line class="cls-1" x1="10.29" y1="78.93" x2="3.54" y2="85.69"/><line class="cls-1" x1="78.93" y1="10.29" x2="85.69" y2="3.54"/><line class="cls-1" x1="90.19" y1="21.56" x2="96.95" y2="14.8"/><line class="cls-1" x1="101.32" y1="32.69" x2="108.08" y2="25.93"/><line class="cls-1" x1="112.59" y1="43.95" x2="119.34" y2="37.19"/><circle class="cls-2" cx="34.41" cy="61.44" r="8.71"/><rect class="cls-1" x="156.29" y="280.83" width="6.75" height="9.74" transform="translate(-205.78 -13.64) rotate(-45)"/><rect class="cls-1" x="145.03" y="292.09" width="6.75" height="9.74" transform="translate(-217.04 -18.3) rotate(-45)"/><rect class="cls-1" x="133.9" y="303.22" width="6.75" height="9.74" transform="translate(-228.17 -22.91) rotate(-45)"/><rect class="cls-1" x="122.64" y="314.49" width="6.75" height="9.74" transform="translate(-239.44 -27.58) rotate(-45)"/><rect class="cls-1" x="121.14" y="220.58" width="9.74" height="6.75" transform="translate(-171.98 -55.52) rotate(-45)"/><rect class="cls-1" x="132.4" y="231.85" width="9.74" height="6.75" transform="translate(-176.64 -44.26) rotate(-45)"/><rect class="cls-1" x="143.53" y="242.98" width="9.74" height="6.75" transform="translate(-181.25 -33.13) rotate(-45)"/><rect class="cls-1" x="154.79" y="254.24" width="9.74" height="6.75" transform="translate(-185.92 -21.87) rotate(-45)"/><rect class="cls-1" x="94.55" y="219.08" width="6.75" height="9.74" transform="translate(-180.21 -75.38) rotate(-45)"/><path class="cls-2" d="M225.43,323.58a24.38,24.38,0,0,1-7.14-3.84,29.48,29.48,0,0,1-5.72-6l-3.92,9.88h-7.22V219.34h12.86v1.1a4.13,4.13,0,0,0-1.17,2.05,20.29,20.29,0,0,0-.24,3.78v36.84a27.87,27.87,0,0,1,4.08-5.18,27.55,27.55,0,0,1,5.18-4.08,23.52,23.52,0,0,1,12.08-3.45,30.8,30.8,0,0,1,12,2.26,24.62,24.62,0,0,1,9.33,6.84,31.85,31.85,0,0,1,6,11.44,54.41,54.41,0,0,1,2.12,16,50.29,50.29,0,0,1-2.51,16.64,34.35,34.35,0,0,1-6.83,11.9,28.22,28.22,0,0,1-9.64,7.08,27.11,27.11,0,0,1-11,2.34A25.62,25.62,0,0,1,225.43,323.58Zm14.2-10.1A16.69,16.69,0,0,0,246,308.9a22.73,22.73,0,0,0,4.47-8.45,43.48,43.48,0,0,0,1.65-12.87,46.73,46.73,0,0,0-1.41-12.17,24.91,24.91,0,0,0-4-8.61,15.89,15.89,0,0,0-6.2-5,18.79,18.79,0,0,0-7.84-1.63,16.23,16.23,0,0,0-10.28,3.49,22.68,22.68,0,0,0-7,9.77,39,39,0,0,0-2.51,14.5,51.2,51.2,0,0,0,1.1,11,26.19,26.19,0,0,0,3.37,8.53,15.61,15.61,0,0,0,6,5.51,19.24,19.24,0,0,0,9,1.94A19.74,19.74,0,0,0,239.63,313.48Z" transform="translate(-50.52 -210.22)"/><path class="cls-2" d="M298.94,324.92q-12.24,0-18.82-5.55a17.67,17.67,0,0,1-6.59-14.15,19.55,19.55,0,0,1,2.82-10.4,24.63,24.63,0,0,1,7.77-7.81,39.12,39.12,0,0,1,11.53-4.93,55.33,55.33,0,0,1,14-1.72c1.77,0,3.58,0,5.41.08s3.76.16,5.8.32,4.16.39,6.36.7l.31,8.63q-2.82-.46-5.72-.71T316,289c-1.88-.1-3.71-.16-5.49-.16a53.34,53.34,0,0,0-10.35.94,29,29,0,0,0-8.16,2.81,14.25,14.25,0,0,0-5.34,4.83,13.17,13.17,0,0,0-1.88,7.18,11.85,11.85,0,0,0,1.18,5.54,9.27,9.27,0,0,0,3.21,3.58,14.44,14.44,0,0,0,4.79,2,27,27,0,0,0,6,.63,28.67,28.67,0,0,0,10.9-2,21.93,21.93,0,0,0,8.16-5.68,24.37,24.37,0,0,0,5.1-9.18A41.2,41.2,0,0,0,325.92,287q0-10.57-2.51-16.49a15.87,15.87,0,0,0-7.45-8.4q-4.93-2.49-12.63-2.49a27.7,27.7,0,0,0-10.19,2,26.38,26.38,0,0,0-9.1,6l-5.49-7.22a32.78,32.78,0,0,1,11.61-7.53,38.92,38.92,0,0,1,14-2.51A45.05,45.05,0,0,1,317,252.13a24,24,0,0,1,10,5.72,26.19,26.19,0,0,1,6.43,10.75,53.61,53.61,0,0,1,2.28,16.94v38.12H323.41V312.21a21.39,21.39,0,0,1-4.94,6.43,22.07,22.07,0,0,1-6.2,3.84,30.89,30.89,0,0,1-6.74,1.89A42.74,42.74,0,0,1,298.94,324.92Z" transform="translate(-50.52 -210.22)"/><path class="cls-2" d="M355.89,252h11.76l-.47,21-1.41-2.35a25.17,25.17,0,0,1,3.29-8.63,24.34,24.34,0,0,1,12.87-10.28,25.36,25.36,0,0,1,8.15-1.33,27.44,27.44,0,0,1,10.44,2,25,25,0,0,1,8.55,5.88L404,267l-.62,1.41-1.1-.63a9.24,9.24,0,0,0-.94-2.35,10.59,10.59,0,0,0-2.67-2.67,16.76,16.76,0,0,0-4.63-2.11,18.86,18.86,0,0,0-4.78-.55,22,22,0,0,0-7.84,1.48,20.54,20.54,0,0,0-7.14,4.61,21.84,21.84,0,0,0-5.1,8,31.91,31.91,0,0,0-1.88,11.55v37.93H355.89Z" transform="translate(-50.52 -210.22)"/><path class="cls-2" d="M450.18,324.92a40.27,40.27,0,0,1-14.27-2.42,30.38,30.38,0,0,1-11.06-7.09,31.34,31.34,0,0,1-7.14-11.62,51.1,51.1,0,0,1,.08-31.88,34.3,34.3,0,0,1,7.06-11.77,30,30,0,0,1,10.51-7.24,33,33,0,0,1,12.78-2.5,32,32,0,0,1,11.45,2,24.91,24.91,0,0,1,9.26,6.17,29.63,29.63,0,0,1,6.2,10.55,45.52,45.52,0,0,1,2.27,15.16c0,.83,0,1.69-.08,2.57s-.13,1.75-.23,2.58H426a36,36,0,0,0,2.36,11.86,23.27,23.27,0,0,0,5.33,8.22,21.21,21.21,0,0,0,7.61,4.73,27,27,0,0,0,9.18,1.55,27.59,27.59,0,0,0,7.06-.87,22.46,22.46,0,0,0,6.19-2.66,23.65,23.65,0,0,0,5.26-4.47l6.27,6.11a30.22,30.22,0,0,1-6.82,6.12,28.14,28.14,0,0,1-8.4,3.69A39.53,39.53,0,0,1,450.18,324.92Zm-23.69-44.24h39.38a28.36,28.36,0,0,0-1.33-9,20.82,20.82,0,0,0-3.77-6.85,15.82,15.82,0,0,0-5.8-4.36,18.72,18.72,0,0,0-7.61-1.48,20.47,20.47,0,0,0-7.14,1.25,17.76,17.76,0,0,0-6.2,4,23.68,23.68,0,0,0-4.78,6.77A32.57,32.57,0,0,0,426.49,280.68Z" transform="translate(-50.52 -210.22)"/><path class="cls-3" d="M510.75,322.1a33.89,33.89,0,0,1-11.37-7.81,35.55,35.55,0,0,1-7.45-11.79,40.44,40.44,0,0,1-2.67-14.92,40,40,0,0,1,2.67-14.76,35.69,35.69,0,0,1,7.45-11.8,34.18,34.18,0,0,1,11.37-7.81A36.06,36.06,0,0,1,525,250.4a34.47,34.47,0,0,1,15.76,3.53,30.26,30.26,0,0,1,11.37,9.81l-7,6.9-1.1,1.1-.79-.79a5.14,5.14,0,0,0-.55-2.35,13,13,0,0,0-2.43-3,20,20,0,0,0-7.37-4.39,29.82,29.82,0,0,0-9.1-1.26,20.58,20.58,0,0,0-8.63,1.87,22.63,22.63,0,0,0-7.29,5.38,25.89,25.89,0,0,0-5.1,8.5,31.08,31.08,0,0,0-1.88,11.08A31.71,31.71,0,0,0,502.75,298a27.64,27.64,0,0,0,5.18,8.81,23,23,0,0,0,7.92,5.85,23.64,23.64,0,0,0,10,2.11,23.18,23.18,0,0,0,6.9-1,24.55,24.55,0,0,0,6.28-3,28,28,0,0,0,5.49-4.79l6.59,7.69a35.87,35.87,0,0,1-11.85,8.47,34.94,34.94,0,0,1-14,2.83A36.27,36.27,0,0,1,510.75,322.1Z" transform="translate(-50.52 -210.22)"/><path class="cls-3" d="M564.24,252h51.61v9.26H564.24Zm24.63,70.59a15.57,15.57,0,0,1-6.74-7.31,37.27,37.27,0,0,1-3.06-12.49,145.75,145.75,0,0,1-.39-17.92l1.88-51.22,11.76-1.42,1.57-.15.16,1.1a15.16,15.16,0,0,0-1.33,2.2,12.34,12.34,0,0,0-.87,3.77l-1.41,17.76.47,2.83-1.1,25.93q-.46,11.94.63,18.47t3.92,9a11.15,11.15,0,0,0,7.53,2.43,20,20,0,0,0,9.18-2,66.69,66.69,0,0,0,8.39-5.17l3.45,8.94a39.6,39.6,0,0,1-11,5.8,36.76,36.76,0,0,1-11.76,1.89A23.81,23.81,0,0,1,588.87,322.56Z" transform="translate(-50.52 -210.22)"/><path class="cls-3" d="M647.07,260.91H631.54V252h15.53v-6q0-9.57,3.37-15.69a21,21,0,0,1,9.34-9,30.84,30.84,0,0,1,13.65-2.9,32.73,32.73,0,0,1,12.62,2.43,23.8,23.8,0,0,1,9.81,7.45l-6,8.32-.94,1.25-1-.63a11.09,11.09,0,0,0-.62-2.51,11,11,0,0,0-2.2-3.13,16.49,16.49,0,0,0-5-3.14,18.51,18.51,0,0,0-6.43-.94,18,18,0,0,0-8.16,1.8,12.69,12.69,0,0,0-5.65,5.81q-2,4-2,10.9v6h23.53v8.94H657.9v62.75H647.07Z" transform="translate(-50.52 -210.22)"/></svg>