<svg id="Layer_1" data-name="Layer 1" xmlns="http://www.w3.org/2000/svg" viewBox="0 0 1963.07 882.94"><defs><style>.cls-1,.cls-14{fill:#1a8947;}.cls-1,.cls-2{opacity:0.2;}.cls-15,.cls-2{fill:#894c9e;}.cls-3{fill:#35495e;}.cls-4{fill:#4eba6f;}.cls-4,.cls-7,.cls-9{stroke:#1a8947;}.cls-10,.cls-11,.cls-12,.cls-13,.cls-4,.cls-7,.cls-9{stroke-miterlimit:10;}.cls-10,.cls-11,.cls-12,.cls-4,.cls-9{stroke-width:3px;}.cls-5{opacity:0.75;}.cls-6{fill:#fff;}.cls-13,.cls-7{fill:none;stroke-width:6px;}.cls-8{opacity:0.95;}.cls-9{fill:#3b97d3;}.cls-10{fill:#52aad9;}.cls-10,.cls-12{stroke:#2880ba;}.cls-11{fill:#a06dae;stroke:#894b9d;}.cls-12{fill:#6bbfe5;}.cls-13{stroke:#894c9e;}</style></defs><title>ctf-trace-all</title><polygon class="cls-1" points="201.04 523 605.36 343.17 683.78 340.85 1774.07 521.13 201.04 523"/><polygon class="cls-2" points="521.04 780.69 925.36 600.86 1091.45 598.94 1465.07 778.82 521.04 780.69"/><path class="cls-3" d="M332.68,240.84a39.57,39.57,0,0,1,6.28-.45c4,0,6.81.83,8.8,2.49s3.36,4.26,3.36,7.94a11.21,11.21,0,0,1-3.36,8.58c-2.15,2-5.57,2.94-9.76,2.94a43,43,0,0,1-5.32-.29Zm3.94,18.27a15.66,15.66,0,0,0,2.18.09c5.12,0,8.16-2.78,8.16-8.25,0-4.77-2.72-7.49-7.65-7.49a13.2,13.2,0,0,0-2.69.22Z" transform="translate(-332.68 -199.26)"/><path class="cls-3" d="M363.15,262.12l-.26-1.73h-.09a5.82,5.82,0,0,1-4.61,2.08,4.63,4.63,0,0,1-4.9-4.64c0-3.94,3.49-5.92,9.25-5.89v-.26c0-1-.42-2.72-3.17-2.72a8.2,8.2,0,0,0-4.19,1.16l-.77-2.56a11.15,11.15,0,0,1,5.63-1.38c5,0,6.44,3.17,6.44,6.56v5.63a25.12,25.12,0,0,0,.22,3.75Zm-.51-7.62c-2.79-.06-5.44.54-5.44,2.91a2.06,2.06,0,0,0,2.24,2.24,3.19,3.19,0,0,0,3.07-2.14,3.06,3.06,0,0,0,.13-.87Z" transform="translate(-332.68 -199.26)"/><path class="cls-3" d="M375,242.08v4.45h3.74v2.95H375v6.88c0,1.88.51,2.88,2,2.88a5.63,5.63,0,0,0,1.54-.2l.06,3a8.44,8.44,0,0,1-2.85.39,4.6,4.6,0,0,1-3.39-1.28c-.83-.9-1.21-2.31-1.21-4.36v-7.32h-2.24v-2.95h2.24V243Z" transform="translate(-332.68 -199.26)"/><path class="cls-3" d="M390.44,262.12l-.25-1.73h-.1a5.8,5.8,0,0,1-4.61,2.08,4.62,4.62,0,0,1-4.89-4.64c0-3.94,3.49-5.92,9.25-5.89v-.26c0-1-.42-2.72-3.17-2.72a8.14,8.14,0,0,0-4.19,1.16l-.77-2.56a11.15,11.15,0,0,1,5.63-1.38c5,0,6.43,3.17,6.43,6.56v5.63a25,25,0,0,0,.23,3.75Zm-.51-7.62c-2.78-.06-5.44.54-5.44,2.91a2.06,2.06,0,0,0,2.24,2.24,3.18,3.18,0,0,0,3.07-2.14,2.74,2.74,0,0,0,.13-.87Z" transform="translate(-332.68 -199.26)"/><path class="cls-3" d="M404.36,258.5a8.87,8.87,0,0,0,4,1.12c1.73,0,2.5-.71,2.5-1.73s-.64-1.6-2.56-2.27c-3-1.06-4.32-2.72-4.29-4.54,0-2.76,2.27-4.9,5.89-4.9a9.16,9.16,0,0,1,4.13.93l-.77,2.78A7,7,0,0,0,410,249c-1.4,0-2.17.67-2.17,1.63s.73,1.47,2.72,2.17c2.81,1,4.12,2.47,4.16,4.77,0,2.82-2.21,4.87-6.34,4.87a10,10,0,0,1-4.73-1.09Z" transform="translate(-332.68 -199.26)"/><path class="cls-3" d="M422.41,242.08v4.45h3.74v2.95h-3.74v6.88c0,1.88.51,2.88,2,2.88A5.55,5.55,0,0,0,426,259l.07,3a8.48,8.48,0,0,1-2.85.39,4.58,4.58,0,0,1-3.39-1.28c-.83-.9-1.22-2.31-1.22-4.36v-7.32h-2.24v-2.95h2.24V243Z" transform="translate(-332.68 -199.26)"/><path class="cls-3" d="M429.13,251.56c0-2.12,0-3.62-.13-5h3.43l.13,3h.12a4.65,4.65,0,0,1,4.26-3.33,3.84,3.84,0,0,1,.93.1V250a5.17,5.17,0,0,0-1.16-.13,3.47,3.47,0,0,0-3.51,3,6.14,6.14,0,0,0-.13,1.21v8.07h-3.94Z" transform="translate(-332.68 -199.26)"/><path class="cls-3" d="M443,255.43c.1,2.81,2.3,4,4.8,4a11.93,11.93,0,0,0,4.32-.7l.57,2.72a14.74,14.74,0,0,1-5.44,1c-5,0-8-3.11-8-7.88,0-4.32,2.63-8.38,7.62-8.38s6.72,4.16,6.72,7.58a10.09,10.09,0,0,1-.13,1.67Zm6.85-2.75c0-1.44-.61-3.81-3.24-3.81-2.43,0-3.45,2.21-3.61,3.81Z" transform="translate(-332.68 -199.26)"/><path class="cls-3" d="M465.51,262.12l-.25-1.73h-.1a5.8,5.8,0,0,1-4.61,2.08,4.62,4.62,0,0,1-4.89-4.64c0-3.94,3.49-5.92,9.25-5.89v-.26c0-1-.42-2.72-3.17-2.72a8.14,8.14,0,0,0-4.19,1.16l-.77-2.56a11.15,11.15,0,0,1,5.63-1.38c5,0,6.43,3.17,6.43,6.56v5.63a25,25,0,0,0,.23,3.75ZM465,254.5c-2.78-.06-5.44.54-5.44,2.91a2.06,2.06,0,0,0,2.24,2.24,3.18,3.18,0,0,0,3.07-2.14,2.74,2.74,0,0,0,.13-.87Z" transform="translate(-332.68 -199.26)"/><path class="cls-3" d="M473,251.17c0-1.79,0-3.29-.13-4.64h3.4l.16,2.31h.09a5.39,5.39,0,0,1,4.8-2.66,4.49,4.49,0,0,1,4.32,2.88h.07a5.87,5.87,0,0,1,1.92-1.95,5.16,5.16,0,0,1,3.13-.93c2.59,0,5.22,1.76,5.22,6.75v9.19h-3.84v-8.61c0-2.59-.9-4.13-2.79-4.13a3,3,0,0,0-2.75,2.08,5.91,5.91,0,0,0-.19,1.31v9.35h-3.84v-9c0-2.17-.86-3.71-2.69-3.71a3.06,3.06,0,0,0-2.81,2.24,3.35,3.35,0,0,0-.23,1.28v9.22H473Z" transform="translate(-332.68 -199.26)"/><path class="cls-3" d="M510.67,256l-2.95,6.15h-4l10.82-21.57h4.67L522,262.12h-3.9l-.61-6.15Zm6.56-2.88-.61-5.37c-.1-1.16-.23-2.82-.32-4.1h-.07c-.57,1.28-1.15,2.82-1.76,4.1l-2.62,5.37Z" transform="translate(-332.68 -199.26)"/><path class="cls-4" d="M982.43,299.19H579.76a20.26,20.26,0,0,1-20.26-20.26V222.52a20.26,20.26,0,0,1,20.26-20.26H982.43Z" transform="translate(-332.68 -199.26)"/><rect class="cls-4" x="642.35" y="3" width="282.93" height="96.94"/><rect class="cls-4" x="912.35" y="3" width="412.93" height="96.94"/><rect class="cls-4" x="1202.35" y="3" width="230.01" height="96.94"/><path class="cls-4" d="M1972.11,299.19H1729.45V202.26h242.66a20.26,20.26,0,0,1,20.26,20.26v56.41A20.26,20.26,0,0,1,1972.11,299.19Z" transform="translate(-332.68 -199.26)"/><g class="cls-5"><path class="cls-6" d="M595.41,240.84a33.73,33.73,0,0,1,6-.45c2.88,0,5,.61,6.36,1.76a6.06,6.06,0,0,1,2.12,4.77,6.52,6.52,0,0,1-1.86,4.89,9.5,9.5,0,0,1-6.81,2.31,11.65,11.65,0,0,1-1.92-.13v8.13h-3.91Zm3.91,10a7.84,7.84,0,0,0,1.92.16c2.94,0,4.73-1.44,4.73-4s-1.66-3.68-4.38-3.68a10.56,10.56,0,0,0-2.27.19Z" transform="translate(-332.68 -199.26)"/><path class="cls-6" d="M621.24,262.12l-.26-1.73h-.1a5.8,5.8,0,0,1-4.6,2.08,4.63,4.63,0,0,1-4.9-4.64c0-3.94,3.49-5.92,9.25-5.89v-.26c0-1-.42-2.72-3.17-2.72a8.14,8.14,0,0,0-4.19,1.16l-.77-2.56a11.15,11.15,0,0,1,5.63-1.38c5,0,6.43,3.17,6.43,6.56v5.63a25,25,0,0,0,.23,3.75Zm-.52-7.62c-2.78-.06-5.44.54-5.44,2.91a2.07,2.07,0,0,0,2.24,2.24,3.2,3.2,0,0,0,3.08-2.14,3,3,0,0,0,.12-.87Z" transform="translate(-332.68 -199.26)"/><path class="cls-6" d="M640.18,261.64a11.49,11.49,0,0,1-4.42.8c-4.86,0-8-3.11-8-7.94,0-4.67,3.2-8.32,8.67-8.32a9.77,9.77,0,0,1,3.81.74l-.7,2.94a6.91,6.91,0,0,0-3-.61c-3,0-4.8,2.21-4.77,5.06,0,3.2,2.08,5,4.77,5a7.63,7.63,0,0,0,3.1-.61Z" transform="translate(-332.68 -199.26)"/><path class="cls-6" d="M647,253.38h.06c.38-.61.83-1.28,1.25-1.82l3.77-5h4.74l-5.76,6.37,6.59,9.22h-4.83l-4.48-6.88L647,256.8v5.32h-3.94V239.4H647Z" transform="translate(-332.68 -199.26)"/><path class="cls-6" d="M661.94,255.43c.1,2.81,2.3,4,4.8,4a11.93,11.93,0,0,0,4.32-.7l.57,2.72a14.74,14.74,0,0,1-5.44,1c-5.05,0-8-3.11-8-7.88,0-4.32,2.63-8.38,7.62-8.38s6.72,4.16,6.72,7.58a10.09,10.09,0,0,1-.13,1.67Zm6.85-2.75c0-1.44-.61-3.81-3.24-3.81-2.43,0-3.45,2.21-3.61,3.81Z" transform="translate(-332.68 -199.26)"/><path class="cls-6" d="M680.18,242.08v4.45h3.74v2.95h-3.74v6.88c0,1.88.51,2.88,2,2.88a5.57,5.57,0,0,0,1.54-.2l.06,3a8.41,8.41,0,0,1-2.84.39,4.62,4.62,0,0,1-3.4-1.28c-.83-.9-1.21-2.31-1.21-4.36v-7.32H674.1v-2.95h2.24V243Z" transform="translate(-332.68 -199.26)"/><path class="cls-6" d="M699,244.87h-.06l-3.81,1.92-.67-3,5.05-2.49h3.3v20.8H699Z" transform="translate(-332.68 -199.26)"/></g><rect class="cls-7" x="226.82" y="3" width="1433.25" height="96.94" rx="20.26"/><path class="cls-4" d="M839.58,429.19H572.92c-7.41,0-13.42-9.07-13.42-20.26V352.52c0-11.19,6-20.26,13.42-20.26H839.58Z" transform="translate(-332.68 -199.26)"/><rect class="cls-4" x="492.25" y="133" width="275.74" height="96.94"/><rect class="cls-4" x="756.51" y="133" width="568.77" height="96.94"/><rect class="cls-4" x="1004.61" y="133" width="443.56" height="96.94"/><rect class="cls-4" x="1354.61" y="133" width="343.56" height="96.94"/><path class="cls-4" d="M912.43,559.19H579.76a20.26,20.26,0,0,1-20.26-20.26V482.52a20.26,20.26,0,0,1,20.26-20.26H912.43Z" transform="translate(-332.68 -199.26)"/><rect class="cls-4" x="562.35" y="263" width="282.93" height="96.94"/><rect class="cls-4" x="822.35" y="263" width="382.93" height="96.94"/><path class="cls-4" d="M2271.8,429.19H2029.13V332.26H2271.8a20.27,20.27,0,0,1,20.26,20.26v56.41A20.27,20.27,0,0,1,2271.8,429.19Z" transform="translate(-332.68 -199.26)"/><rect class="cls-7" x="226.82" y="133" width="1733.25" height="96.94" rx="20.26"/><path class="cls-4" d="M1703.17,559.19H1526.5V462.26h176.67a20.26,20.26,0,0,1,20.26,20.26v56.41A20.26,20.26,0,0,1,1703.17,559.19Z" transform="translate(-332.68 -199.26)"/><rect class="cls-7" x="226.82" y="263" width="1163.25" height="96.94" rx="20.26"/><g class="cls-5"><path class="cls-6" d="M1009.41,240.84a33.73,33.73,0,0,1,6-.45c2.88,0,5,.61,6.36,1.76a6.06,6.06,0,0,1,2.12,4.77,6.52,6.52,0,0,1-1.86,4.89,9.5,9.5,0,0,1-6.81,2.31,11.65,11.65,0,0,1-1.92-.13v8.13h-3.91Zm3.91,10a7.84,7.84,0,0,0,1.92.16c2.94,0,4.73-1.44,4.73-4s-1.66-3.68-4.38-3.68a10.56,10.56,0,0,0-2.27.19Z" transform="translate(-332.68 -199.26)"/><path class="cls-6" d="M1035.24,262.12l-.26-1.73h-.1a5.8,5.8,0,0,1-4.6,2.08,4.63,4.63,0,0,1-4.9-4.64c0-3.94,3.49-5.92,9.25-5.89v-.26c0-1-.42-2.72-3.17-2.72a8.14,8.14,0,0,0-4.19,1.16l-.77-2.56a11.15,11.15,0,0,1,5.63-1.38c5,0,6.43,3.17,6.43,6.56v5.63a25,25,0,0,0,.23,3.75Zm-.52-7.62c-2.78-.06-5.44.54-5.44,2.91a2.07,2.07,0,0,0,2.24,2.24,3.2,3.2,0,0,0,3.08-2.14,3,3,0,0,0,.12-.87Z" transform="translate(-332.68 -199.26)"/><path class="cls-6" d="M1054.18,261.64a11.49,11.49,0,0,1-4.42.8c-4.86,0-8-3.11-8-7.94,0-4.67,3.2-8.32,8.67-8.32a9.77,9.77,0,0,1,3.81.74l-.7,2.94a6.91,6.91,0,0,0-3-.61c-3,0-4.8,2.21-4.77,5.06,0,3.2,2.08,5,4.77,5a7.63,7.63,0,0,0,3.1-.61Z" transform="translate(-332.68 -199.26)"/><path class="cls-6" d="M1061,253.38h.06c.38-.61.83-1.28,1.25-1.82l3.77-5h4.74l-5.76,6.37,6.59,9.22h-4.83l-4.48-6.88L1061,256.8v5.32h-3.94V239.4H1061Z" transform="translate(-332.68 -199.26)"/><path class="cls-6" d="M1075.94,255.43c.1,2.81,2.3,4,4.8,4a11.93,11.93,0,0,0,4.32-.7l.57,2.72a14.74,14.74,0,0,1-5.44,1c-5,0-8-3.11-8-7.88,0-4.32,2.63-8.38,7.62-8.38s6.72,4.16,6.72,7.58a10.09,10.09,0,0,1-.13,1.67Zm6.85-2.75c0-1.44-.61-3.81-3.24-3.81-2.43,0-3.45,2.21-3.61,3.81Z" transform="translate(-332.68 -199.26)"/><path class="cls-6" d="M1094.18,242.08v4.45h3.74v2.95h-3.74v6.88c0,1.88.51,2.88,2,2.88a5.57,5.57,0,0,0,1.54-.2l.06,3a8.41,8.41,0,0,1-2.84.39,4.62,4.62,0,0,1-3.4-1.28c-.83-.9-1.21-2.31-1.21-4.36v-7.32h-2.24v-2.95h2.24V243Z" transform="translate(-332.68 -199.26)"/><path class="cls-6" d="M1106.79,262.12v-2.4l2.46-2.28c4.9-4.54,7.2-7,7.23-9.79,0-1.85-1-3.49-3.71-3.49a7.6,7.6,0,0,0-4.45,1.73l-1.15-2.78a10.27,10.27,0,0,1,6.4-2.15c4.61,0,6.85,2.92,6.85,6.31,0,3.65-2.63,6.59-6.24,10l-1.83,1.57v.06h8.55v3.27Z" transform="translate(-332.68 -199.26)"/></g><g class="cls-5"><path class="cls-6" d="M1279.41,240.84a33.73,33.73,0,0,1,6-.45c2.88,0,5,.61,6.36,1.76a6.09,6.09,0,0,1,2.12,4.77,6.52,6.52,0,0,1-1.86,4.89,9.51,9.51,0,0,1-6.82,2.31,11.6,11.6,0,0,1-1.91-.13v8.13h-3.91Zm3.91,10a7.75,7.75,0,0,0,1.91.16c3,0,4.74-1.44,4.74-4s-1.66-3.68-4.38-3.68a10.56,10.56,0,0,0-2.27.19Z" transform="translate(-332.68 -199.26)"/><path class="cls-6" d="M1305.23,262.12l-.25-1.73h-.1a5.8,5.8,0,0,1-4.61,2.08,4.62,4.62,0,0,1-4.89-4.64c0-3.94,3.49-5.92,9.25-5.89v-.26c0-1-.42-2.72-3.17-2.72a8.14,8.14,0,0,0-4.19,1.16l-.77-2.56a11.15,11.15,0,0,1,5.63-1.38c5,0,6.43,3.17,6.43,6.56v5.63a25,25,0,0,0,.23,3.75Zm-.51-7.62c-2.78-.06-5.44.54-5.44,2.91a2.06,2.06,0,0,0,2.24,2.24,3.2,3.2,0,0,0,3.08-2.14,3,3,0,0,0,.12-.87Z" transform="translate(-332.68 -199.26)"/><path class="cls-6" d="M1324.18,261.64a11.49,11.49,0,0,1-4.42.8c-4.86,0-8-3.11-8-7.94,0-4.67,3.2-8.32,8.67-8.32a9.77,9.77,0,0,1,3.81.74l-.7,2.94a6.91,6.91,0,0,0-3-.61c-3,0-4.8,2.21-4.77,5.06,0,3.2,2.08,5,4.77,5a7.63,7.63,0,0,0,3.1-.61Z" transform="translate(-332.68 -199.26)"/><path class="cls-6" d="M1331,253.38h.06c.38-.61.83-1.28,1.25-1.82l3.77-5h4.74l-5.76,6.37,6.59,9.22h-4.83l-4.48-6.88L1331,256.8v5.32h-3.94V239.4H1331Z" transform="translate(-332.68 -199.26)"/><path class="cls-6" d="M1345.94,255.43c.09,2.81,2.3,4,4.8,4a11.93,11.93,0,0,0,4.32-.7l.57,2.72a14.74,14.74,0,0,1-5.44,1c-5,0-8-3.11-8-7.88,0-4.32,2.63-8.38,7.62-8.38s6.72,4.16,6.72,7.58a10.09,10.09,0,0,1-.13,1.67Zm6.85-2.75c0-1.44-.61-3.81-3.24-3.81-2.43,0-3.45,2.21-3.61,3.81Z" transform="translate(-332.68 -199.26)"/><path class="cls-6" d="M1364.18,242.08v4.45h3.74v2.95h-3.74v6.88c0,1.88.51,2.88,2,2.88a5.57,5.57,0,0,0,1.54-.2l.06,3a8.41,8.41,0,0,1-2.84.39,4.62,4.62,0,0,1-3.4-1.28c-.83-.9-1.21-2.31-1.21-4.36v-7.32h-2.24v-2.95h2.24V243Z" transform="translate(-332.68 -199.26)"/><path class="cls-6" d="M1377.59,258.05a10.28,10.28,0,0,0,4.73,1.28c3,0,4.23-1.69,4.19-3.33,0-2.46-2.3-3.52-4.7-3.52H1380V249.6h1.76c1.82,0,4.12-.83,4.12-2.91,0-1.41-1-2.59-3.32-2.59a8.42,8.42,0,0,0-4.26,1.31l-.9-2.85a11.28,11.28,0,0,1,6-1.6c4.29,0,6.49,2.37,6.49,5.09,0,2.18-1.28,4-3.84,4.87V251a5.26,5.26,0,0,1,4.58,5.18c0,3.52-2.94,6.31-8.1,6.31a11.42,11.42,0,0,1-5.82-1.44Z" transform="translate(-332.68 -199.26)"/></g><g class="cls-5"><path class="cls-6" d="M1571.41,240.84a33.73,33.73,0,0,1,6-.45c2.88,0,5,.61,6.36,1.76a6.09,6.09,0,0,1,2.12,4.77,6.52,6.52,0,0,1-1.86,4.89,9.51,9.51,0,0,1-6.82,2.31,11.6,11.6,0,0,1-1.91-.13v8.13h-3.91Zm3.91,10a7.75,7.75,0,0,0,1.91.16c3,0,4.74-1.44,4.74-4s-1.66-3.68-4.38-3.68a10.56,10.56,0,0,0-2.27.19Z" transform="translate(-332.68 -199.26)"/><path class="cls-6" d="M1597.23,262.12l-.25-1.73h-.1a5.8,5.8,0,0,1-4.61,2.08,4.62,4.62,0,0,1-4.89-4.64c0-3.94,3.49-5.92,9.25-5.89v-.26c0-1-.42-2.72-3.17-2.72a8.14,8.14,0,0,0-4.19,1.16l-.77-2.56a11.15,11.15,0,0,1,5.63-1.38c5,0,6.43,3.17,6.43,6.56v5.63a25,25,0,0,0,.23,3.75Zm-.51-7.62c-2.78-.06-5.44.54-5.44,2.91a2.06,2.06,0,0,0,2.24,2.24,3.2,3.2,0,0,0,3.08-2.14,3,3,0,0,0,.12-.87Z" transform="translate(-332.68 -199.26)"/><path class="cls-6" d="M1616.18,261.64a11.49,11.49,0,0,1-4.42.8c-4.86,0-8-3.11-8-7.94,0-4.67,3.2-8.32,8.67-8.32a9.77,9.77,0,0,1,3.81.74l-.7,2.94a6.91,6.91,0,0,0-3-.61c-3,0-4.8,2.21-4.77,5.06,0,3.2,2.08,5,4.77,5a7.63,7.63,0,0,0,3.1-.61Z" transform="translate(-332.68 -199.26)"/><path class="cls-6" d="M1623,253.38h.06c.38-.61.83-1.28,1.25-1.82l3.77-5h4.74l-5.76,6.37,6.59,9.22h-4.83l-4.48-6.88L1623,256.8v5.32h-3.94V239.4H1623Z" transform="translate(-332.68 -199.26)"/><path class="cls-6" d="M1637.94,255.43c.09,2.81,2.3,4,4.8,4a11.93,11.93,0,0,0,4.32-.7l.57,2.72a14.74,14.74,0,0,1-5.44,1c-5,0-8-3.11-8-7.88,0-4.32,2.63-8.38,7.62-8.38s6.72,4.16,6.72,7.58a10.09,10.09,0,0,1-.13,1.67Zm6.85-2.75c0-1.44-.61-3.81-3.24-3.81-2.43,0-3.45,2.21-3.61,3.81Z" transform="translate(-332.68 -199.26)"/><path class="cls-6" d="M1656.18,242.08v4.45h3.74v2.95h-3.74v6.88c0,1.88.51,2.88,2,2.88a5.57,5.57,0,0,0,1.54-.2l.06,3a8.41,8.41,0,0,1-2.84.39,4.62,4.62,0,0,1-3.4-1.28c-.83-.9-1.21-2.31-1.21-4.36v-7.32h-2.24v-2.95h2.24V243Z" transform="translate(-332.68 -199.26)"/><path class="cls-6" d="M1677.46,262.12v-5.28h-9.41v-2.56l8.48-13h4.64v12.54h2.69v3h-2.69v5.28Zm0-8.26V248.2c0-1.19,0-2.4.13-3.62h-.13c-.64,1.31-1.19,2.37-1.83,3.52l-3.8,5.7,0,.06Z" transform="translate(-332.68 -199.26)"/></g><g class="cls-5"><path class="cls-6" d="M1762.41,240.84a33.73,33.73,0,0,1,6-.45c2.88,0,5,.61,6.36,1.76a6.09,6.09,0,0,1,2.12,4.77,6.52,6.52,0,0,1-1.86,4.89,9.51,9.51,0,0,1-6.82,2.31,11.6,11.6,0,0,1-1.91-.13v8.13h-3.91Zm3.91,10a7.75,7.75,0,0,0,1.91.16c3,0,4.74-1.44,4.74-4s-1.66-3.68-4.38-3.68a10.56,10.56,0,0,0-2.27.19Z" transform="translate(-332.68 -199.26)"/><path class="cls-6" d="M1788.23,262.12l-.25-1.73h-.1a5.8,5.8,0,0,1-4.61,2.08,4.62,4.62,0,0,1-4.89-4.64c0-3.94,3.49-5.92,9.25-5.89v-.26c0-1-.42-2.72-3.17-2.72a8.14,8.14,0,0,0-4.19,1.16l-.77-2.56a11.15,11.15,0,0,1,5.63-1.38c5,0,6.43,3.17,6.43,6.56v5.63a25,25,0,0,0,.23,3.75Zm-.51-7.62c-2.78-.06-5.44.54-5.44,2.91a2.06,2.06,0,0,0,2.24,2.24,3.2,3.2,0,0,0,3.08-2.14,3,3,0,0,0,.12-.87Z" transform="translate(-332.68 -199.26)"/><path class="cls-6" d="M1807.18,261.64a11.49,11.49,0,0,1-4.42.8c-4.86,0-8-3.11-8-7.94,0-4.67,3.2-8.32,8.67-8.32a9.77,9.77,0,0,1,3.81.74l-.7,2.94a6.91,6.91,0,0,0-3-.61c-3,0-4.8,2.21-4.77,5.06,0,3.2,2.08,5,4.77,5a7.63,7.63,0,0,0,3.1-.61Z" transform="translate(-332.68 -199.26)"/><path class="cls-6" d="M1814,253.38h.06c.38-.61.83-1.28,1.25-1.82l3.77-5h4.74l-5.76,6.37,6.59,9.22h-4.83l-4.48-6.88L1814,256.8v5.32h-3.94V239.4H1814Z" transform="translate(-332.68 -199.26)"/><path class="cls-6" d="M1828.94,255.43c.09,2.81,2.3,4,4.8,4a11.93,11.93,0,0,0,4.32-.7l.57,2.72a14.74,14.74,0,0,1-5.44,1c-5,0-8-3.11-8-7.88,0-4.32,2.63-8.38,7.62-8.38s6.72,4.16,6.72,7.58a10.09,10.09,0,0,1-.13,1.67Zm6.85-2.75c0-1.44-.61-3.81-3.24-3.81-2.43,0-3.45,2.21-3.61,3.81Z" transform="translate(-332.68 -199.26)"/><path class="cls-6" d="M1847.18,242.08v4.45h3.74v2.95h-3.74v6.88c0,1.88.51,2.88,2,2.88a5.57,5.57,0,0,0,1.54-.2l.06,3a8.41,8.41,0,0,1-2.84.39,4.62,4.62,0,0,1-3.4-1.28c-.83-.9-1.21-2.31-1.21-4.36v-7.32h-2.24v-2.95h2.24V243Z" transform="translate(-332.68 -199.26)"/><path class="cls-6" d="M1873,244.58h-8l-.61,4.16a11.12,11.12,0,0,1,1.51-.1,9.23,9.23,0,0,1,5,1.35,6,6,0,0,1,2.72,5.28c0,4-3.29,7.2-8.41,7.2a12,12,0,0,1-5.51-1.22l.8-3a10.57,10.57,0,0,0,4.58,1.08c2.3,0,4.51-1.31,4.51-3.8s-1.76-3.94-5.92-3.94a18,18,0,0,0-2.85.19l1.38-10.49H1873Z" transform="translate(-332.68 -199.26)"/></g><g class="cls-5"><path class="cls-6" d="M595.41,370.84a33.73,33.73,0,0,1,6-.45c2.88,0,5,.61,6.36,1.76a6.07,6.07,0,0,1,2.12,4.77,6.52,6.52,0,0,1-1.86,4.89,9.5,9.5,0,0,1-6.81,2.31,11.65,11.65,0,0,1-1.92-.13v8.13h-3.91Zm3.91,10a7.84,7.84,0,0,0,1.92.16c2.94,0,4.73-1.43,4.73-4s-1.66-3.68-4.38-3.68a10.56,10.56,0,0,0-2.27.19Z" transform="translate(-332.68 -199.26)"/><path class="cls-6" d="M621.24,392.12l-.26-1.73h-.1a5.8,5.8,0,0,1-4.6,2.08,4.63,4.63,0,0,1-4.9-4.64c0-3.94,3.49-5.92,9.25-5.89v-.26c0-1-.42-2.72-3.17-2.72a8.24,8.24,0,0,0-4.19,1.16l-.77-2.56a11.15,11.15,0,0,1,5.63-1.38c5,0,6.43,3.17,6.43,6.56v5.63a25,25,0,0,0,.23,3.75Zm-.52-7.62c-2.78-.06-5.44.54-5.44,2.91a2.07,2.07,0,0,0,2.24,2.24,3.2,3.2,0,0,0,3.08-2.14,3,3,0,0,0,.12-.87Z" transform="translate(-332.68 -199.26)"/><path class="cls-6" d="M640.18,391.64a11.49,11.49,0,0,1-4.42.8c-4.86,0-8-3.11-8-7.94,0-4.67,3.2-8.32,8.67-8.32a9.77,9.77,0,0,1,3.81.74l-.7,2.94a6.91,6.91,0,0,0-3-.61c-3,0-4.8,2.21-4.77,5.06,0,3.2,2.08,5,4.77,5a7.63,7.63,0,0,0,3.1-.61Z" transform="translate(-332.68 -199.26)"/><path class="cls-6" d="M647,383.38h.06c.38-.61.83-1.28,1.25-1.82l3.77-5h4.74l-5.76,6.37,6.59,9.22h-4.83l-4.48-6.88L647,386.8v5.32h-3.94V369.4H647Z" transform="translate(-332.68 -199.26)"/><path class="cls-6" d="M661.94,385.43c.1,2.81,2.3,4,4.8,4a11.93,11.93,0,0,0,4.32-.7l.57,2.72a14.74,14.74,0,0,1-5.44,1c-5.05,0-8-3.11-8-7.88,0-4.32,2.63-8.38,7.62-8.38s6.72,4.16,6.72,7.58a10.09,10.09,0,0,1-.13,1.67Zm6.85-2.75c0-1.44-.61-3.81-3.24-3.81-2.43,0-3.45,2.21-3.61,3.81Z" transform="translate(-332.68 -199.26)"/><path class="cls-6" d="M680.18,372.09v4.44h3.74v3h-3.74v6.88c0,1.88.51,2.88,2,2.88a5.57,5.57,0,0,0,1.54-.2l.06,3a8.41,8.41,0,0,1-2.84.39,4.58,4.58,0,0,1-3.4-1.28c-.83-.9-1.21-2.31-1.21-4.36v-7.32H674.1v-3h2.24V373Z" transform="translate(-332.68 -199.26)"/><path class="cls-6" d="M699,374.87h-.06l-3.81,1.92-.67-3,5.05-2.49h3.3v20.8H699Z" transform="translate(-332.68 -199.26)"/></g><g class="cls-5"><path class="cls-6" d="M857.41,370.84a33.73,33.73,0,0,1,6-.45c2.88,0,5,.61,6.36,1.76a6.07,6.07,0,0,1,2.12,4.77,6.52,6.52,0,0,1-1.86,4.89,9.5,9.5,0,0,1-6.81,2.31,11.65,11.65,0,0,1-1.92-.13v8.13h-3.91Zm3.91,10a7.84,7.84,0,0,0,1.92.16c2.94,0,4.73-1.43,4.73-4s-1.66-3.68-4.38-3.68a10.56,10.56,0,0,0-2.27.19Z" transform="translate(-332.68 -199.26)"/><path class="cls-6" d="M883.24,392.12l-.26-1.73h-.1a5.8,5.8,0,0,1-4.6,2.08,4.63,4.63,0,0,1-4.9-4.64c0-3.94,3.49-5.92,9.25-5.89v-.26c0-1-.42-2.72-3.17-2.72a8.24,8.24,0,0,0-4.19,1.16l-.77-2.56a11.15,11.15,0,0,1,5.63-1.38c5,0,6.43,3.17,6.43,6.56v5.63a25,25,0,0,0,.23,3.75Zm-.52-7.62c-2.78-.06-5.44.54-5.44,2.91a2.07,2.07,0,0,0,2.24,2.24,3.2,3.2,0,0,0,3.08-2.14,3,3,0,0,0,.12-.87Z" transform="translate(-332.68 -199.26)"/><path class="cls-6" d="M902.18,391.64a11.49,11.49,0,0,1-4.42.8c-4.86,0-8-3.11-8-7.94,0-4.67,3.2-8.32,8.67-8.32a9.77,9.77,0,0,1,3.81.74l-.7,2.94a6.91,6.91,0,0,0-3-.61c-3,0-4.8,2.21-4.77,5.06,0,3.2,2.08,5,4.77,5a7.63,7.63,0,0,0,3.1-.61Z" transform="translate(-332.68 -199.26)"/><path class="cls-6" d="M909,383.38h.06c.38-.61.83-1.28,1.25-1.82l3.77-5h4.74l-5.76,6.37,6.59,9.22h-4.83l-4.48-6.88L909,386.8v5.32h-3.94V369.4H909Z" transform="translate(-332.68 -199.26)"/><path class="cls-6" d="M923.94,385.43c.1,2.81,2.3,4,4.8,4a11.93,11.93,0,0,0,4.32-.7l.57,2.72a14.74,14.74,0,0,1-5.44,1c-5.05,0-8-3.11-8-7.88,0-4.32,2.63-8.38,7.62-8.38s6.72,4.16,6.72,7.58a10.09,10.09,0,0,1-.13,1.67Zm6.85-2.75c0-1.44-.61-3.81-3.24-3.81-2.43,0-3.45,2.21-3.61,3.81Z" transform="translate(-332.68 -199.26)"/><path class="cls-6" d="M942.18,372.09v4.44h3.74v3h-3.74v6.88c0,1.88.51,2.88,2,2.88a5.57,5.57,0,0,0,1.54-.2l.06,3a8.41,8.41,0,0,1-2.84.39,4.58,4.58,0,0,1-3.4-1.28c-.83-.9-1.21-2.31-1.21-4.36v-7.32H936.1v-3h2.24V373Z" transform="translate(-332.68 -199.26)"/><path class="cls-6" d="M954.79,392.12v-2.4l2.46-2.28c4.9-4.54,7.2-7,7.23-9.79,0-1.85-1-3.49-3.71-3.49a7.6,7.6,0,0,0-4.45,1.73l-1.15-2.78a10.27,10.27,0,0,1,6.4-2.14c4.61,0,6.85,2.91,6.85,6.3,0,3.65-2.63,6.59-6.24,10l-1.83,1.57v.06h8.55v3.27Z" transform="translate(-332.68 -199.26)"/></g><g class="cls-5"><path class="cls-6" d="M1124.41,370.84a33.73,33.73,0,0,1,6-.45c2.88,0,5,.61,6.36,1.76a6.07,6.07,0,0,1,2.12,4.77,6.52,6.52,0,0,1-1.86,4.89,9.5,9.5,0,0,1-6.81,2.31,11.65,11.65,0,0,1-1.92-.13v8.13h-3.91Zm3.91,10a7.84,7.84,0,0,0,1.92.16c2.94,0,4.73-1.43,4.73-4s-1.66-3.68-4.38-3.68a10.56,10.56,0,0,0-2.27.19Z" transform="translate(-332.68 -199.26)"/><path class="cls-6" d="M1150.24,392.12l-.26-1.73h-.1a5.8,5.8,0,0,1-4.6,2.08,4.63,4.63,0,0,1-4.9-4.64c0-3.94,3.49-5.92,9.25-5.89v-.26c0-1-.42-2.72-3.17-2.72a8.24,8.24,0,0,0-4.19,1.16l-.77-2.56a11.15,11.15,0,0,1,5.63-1.38c5,0,6.43,3.17,6.43,6.56v5.63a25,25,0,0,0,.23,3.75Zm-.52-7.62c-2.78-.06-5.44.54-5.44,2.91a2.07,2.07,0,0,0,2.24,2.24,3.2,3.2,0,0,0,3.08-2.14,3,3,0,0,0,.12-.87Z" transform="translate(-332.68 -199.26)"/><path class="cls-6" d="M1169.18,391.64a11.49,11.49,0,0,1-4.42.8c-4.86,0-8-3.11-8-7.94,0-4.67,3.2-8.32,8.67-8.32a9.77,9.77,0,0,1,3.81.74l-.7,2.94a6.91,6.91,0,0,0-3-.61c-3,0-4.8,2.21-4.77,5.06,0,3.2,2.08,5,4.77,5a7.63,7.63,0,0,0,3.1-.61Z" transform="translate(-332.68 -199.26)"/><path class="cls-6" d="M1176,383.38h.06c.38-.61.83-1.28,1.25-1.82l3.77-5h4.74l-5.76,6.37,6.59,9.22h-4.83l-4.48-6.88L1176,386.8v5.32h-3.94V369.4H1176Z" transform="translate(-332.68 -199.26)"/><path class="cls-6" d="M1190.94,385.43c.1,2.81,2.3,4,4.8,4a11.93,11.93,0,0,0,4.32-.7l.57,2.72a14.74,14.74,0,0,1-5.44,1c-5,0-8-3.11-8-7.88,0-4.32,2.63-8.38,7.62-8.38s6.72,4.16,6.72,7.58a10.09,10.09,0,0,1-.13,1.67Zm6.85-2.75c0-1.44-.61-3.81-3.24-3.81-2.43,0-3.45,2.21-3.61,3.81Z" transform="translate(-332.68 -199.26)"/><path class="cls-6" d="M1209.18,372.09v4.44h3.74v3h-3.74v6.88c0,1.88.51,2.88,2,2.88a5.57,5.57,0,0,0,1.54-.2l.06,3a8.41,8.41,0,0,1-2.84.39,4.58,4.58,0,0,1-3.4-1.28c-.83-.9-1.21-2.31-1.21-4.36v-7.32h-2.24v-3h2.24V373Z" transform="translate(-332.68 -199.26)"/><path class="cls-6" d="M1222.59,388.05a10.28,10.28,0,0,0,4.73,1.28c3,0,4.23-1.69,4.19-3.33,0-2.46-2.3-3.51-4.7-3.51H1225v-2.88h1.76c1.82,0,4.12-.84,4.12-2.92,0-1.4-1-2.59-3.32-2.59a8.42,8.42,0,0,0-4.26,1.31l-.9-2.84a11.19,11.19,0,0,1,6-1.6c4.29,0,6.49,2.36,6.49,5.08,0,2.18-1.28,4-3.84,4.87V381a5.26,5.26,0,0,1,4.58,5.18c0,3.52-2.94,6.31-8.1,6.31a11.42,11.42,0,0,1-5.82-1.44Z" transform="translate(-332.68 -199.26)"/></g><g class="cls-5"><path class="cls-6" d="M1372.41,370.84a33.73,33.73,0,0,1,6-.45c2.88,0,5,.61,6.36,1.76a6.1,6.1,0,0,1,2.12,4.77,6.52,6.52,0,0,1-1.86,4.89,9.51,9.51,0,0,1-6.82,2.31,11.6,11.6,0,0,1-1.91-.13v8.13h-3.91Zm3.91,10a7.75,7.75,0,0,0,1.91.16c3,0,4.74-1.43,4.74-4s-1.66-3.68-4.38-3.68a10.56,10.56,0,0,0-2.27.19Z" transform="translate(-332.68 -199.26)"/><path class="cls-6" d="M1398.23,392.12l-.25-1.73h-.1a5.8,5.8,0,0,1-4.61,2.08,4.62,4.62,0,0,1-4.89-4.64c0-3.94,3.49-5.92,9.25-5.89v-.26c0-1-.42-2.72-3.17-2.72a8.24,8.24,0,0,0-4.19,1.16l-.77-2.56a11.15,11.15,0,0,1,5.63-1.38c5,0,6.43,3.17,6.43,6.56v5.63a25,25,0,0,0,.23,3.75Zm-.51-7.62c-2.78-.06-5.44.54-5.44,2.91a2.06,2.06,0,0,0,2.24,2.24,3.2,3.2,0,0,0,3.08-2.14,3,3,0,0,0,.12-.87Z" transform="translate(-332.68 -199.26)"/><path class="cls-6" d="M1417.18,391.64a11.49,11.49,0,0,1-4.42.8c-4.86,0-8-3.11-8-7.94,0-4.67,3.2-8.32,8.67-8.32a9.77,9.77,0,0,1,3.81.74l-.7,2.94a6.91,6.91,0,0,0-3-.61c-3,0-4.8,2.21-4.77,5.06,0,3.2,2.08,5,4.77,5a7.63,7.63,0,0,0,3.1-.61Z" transform="translate(-332.68 -199.26)"/><path class="cls-6" d="M1424,383.38h.06c.38-.61.83-1.28,1.25-1.82l3.77-5h4.74l-5.76,6.37,6.59,9.22h-4.83l-4.48-6.88L1424,386.8v5.32h-3.94V369.4H1424Z" transform="translate(-332.68 -199.26)"/><path class="cls-6" d="M1438.94,385.43c.09,2.81,2.3,4,4.8,4a11.93,11.93,0,0,0,4.32-.7l.57,2.72a14.74,14.74,0,0,1-5.44,1c-5,0-8-3.11-8-7.88,0-4.32,2.63-8.38,7.62-8.38s6.72,4.16,6.72,7.58a10.09,10.09,0,0,1-.13,1.67Zm6.85-2.75c0-1.44-.61-3.81-3.24-3.81-2.43,0-3.45,2.21-3.61,3.81Z" transform="translate(-332.68 -199.26)"/><path class="cls-6" d="M1457.18,372.09v4.44h3.74v3h-3.74v6.88c0,1.88.51,2.88,2,2.88a5.57,5.57,0,0,0,1.54-.2l.06,3a8.41,8.41,0,0,1-2.84.39,4.58,4.58,0,0,1-3.4-1.28c-.83-.9-1.21-2.31-1.21-4.36v-7.32h-2.24v-3h2.24V373Z" transform="translate(-332.68 -199.26)"/><path class="cls-6" d="M1478.46,392.12v-5.28h-9.41v-2.56l8.48-13h4.64v12.54h2.69v3h-2.69v5.28Zm0-8.26V378.2c0-1.19,0-2.4.13-3.62h-.13c-.64,1.31-1.19,2.37-1.83,3.52l-3.8,5.7,0,.06Z" transform="translate(-332.68 -199.26)"/></g><g class="cls-5"><path class="cls-6" d="M1722.41,370.84a33.73,33.73,0,0,1,6-.45c2.88,0,5,.61,6.36,1.76a6.1,6.1,0,0,1,2.12,4.77,6.52,6.52,0,0,1-1.86,4.89,9.51,9.51,0,0,1-6.82,2.31,11.6,11.6,0,0,1-1.91-.13v8.13h-3.91Zm3.91,10a7.75,7.75,0,0,0,1.91.16c3,0,4.74-1.43,4.74-4s-1.66-3.68-4.38-3.68a10.56,10.56,0,0,0-2.27.19Z" transform="translate(-332.68 -199.26)"/><path class="cls-6" d="M1748.23,392.12l-.25-1.73h-.1a5.8,5.8,0,0,1-4.61,2.08,4.62,4.62,0,0,1-4.89-4.64c0-3.94,3.49-5.92,9.25-5.89v-.26c0-1-.42-2.72-3.17-2.72a8.24,8.24,0,0,0-4.19,1.16l-.77-2.56a11.15,11.15,0,0,1,5.63-1.38c5,0,6.43,3.17,6.43,6.56v5.63a25,25,0,0,0,.23,3.75Zm-.51-7.62c-2.78-.06-5.44.54-5.44,2.91a2.06,2.06,0,0,0,2.24,2.24,3.2,3.2,0,0,0,3.08-2.14,3,3,0,0,0,.12-.87Z" transform="translate(-332.68 -199.26)"/><path class="cls-6" d="M1767.18,391.64a11.49,11.49,0,0,1-4.42.8c-4.86,0-8-3.11-8-7.94,0-4.67,3.2-8.32,8.67-8.32a9.77,9.77,0,0,1,3.81.74l-.7,2.94a6.91,6.91,0,0,0-3-.61c-3,0-4.8,2.21-4.77,5.06,0,3.2,2.08,5,4.77,5a7.63,7.63,0,0,0,3.1-.61Z" transform="translate(-332.68 -199.26)"/><path class="cls-6" d="M1774,383.38h.06c.38-.61.83-1.28,1.25-1.82l3.77-5h4.74l-5.76,6.37,6.59,9.22h-4.83l-4.48-6.88L1774,386.8v5.32h-3.94V369.4H1774Z" transform="translate(-332.68 -199.26)"/><path class="cls-6" d="M1788.94,385.43c.09,2.81,2.3,4,4.8,4a11.93,11.93,0,0,0,4.32-.7l.57,2.72a14.74,14.74,0,0,1-5.44,1c-5,0-8-3.11-8-7.88,0-4.32,2.63-8.38,7.62-8.38s6.72,4.16,6.72,7.58a10.09,10.09,0,0,1-.13,1.67Zm6.85-2.75c0-1.44-.61-3.81-3.24-3.81-2.43,0-3.45,2.21-3.61,3.81Z" transform="translate(-332.68 -199.26)"/><path class="cls-6" d="M1807.18,372.09v4.44h3.74v3h-3.74v6.88c0,1.88.51,2.88,2,2.88a5.57,5.57,0,0,0,1.54-.2l.06,3a8.41,8.41,0,0,1-2.84.39,4.58,4.58,0,0,1-3.4-1.28c-.83-.9-1.21-2.31-1.21-4.36v-7.32h-2.24v-3h2.24V373Z" transform="translate(-332.68 -199.26)"/><path class="cls-6" d="M1833,374.58h-8l-.61,4.16a11.25,11.25,0,0,1,1.51-.09,9.22,9.22,0,0,1,5,1.34,6,6,0,0,1,2.72,5.28c0,4-3.29,7.2-8.41,7.2a12,12,0,0,1-5.51-1.22l.8-3a10.57,10.57,0,0,0,4.58,1.08c2.3,0,4.51-1.31,4.51-3.8s-1.76-3.94-5.92-3.94a18,18,0,0,0-2.85.19l1.38-10.49H1833Z" transform="translate(-332.68 -199.26)"/></g><g class="cls-5"><path class="cls-6" d="M2063.41,370.84a33.73,33.73,0,0,1,6-.45c2.88,0,5,.61,6.36,1.76a6.1,6.1,0,0,1,2.12,4.77,6.52,6.52,0,0,1-1.86,4.89,9.51,9.51,0,0,1-6.82,2.31,11.6,11.6,0,0,1-1.91-.13v8.13h-3.91Zm3.91,10a7.75,7.75,0,0,0,1.91.16c2.95,0,4.74-1.43,4.74-4s-1.66-3.68-4.38-3.68a10.56,10.56,0,0,0-2.27.19Z" transform="translate(-332.68 -199.26)"/><path class="cls-6" d="M2089.23,392.12l-.25-1.73h-.1a5.8,5.8,0,0,1-4.61,2.08,4.62,4.62,0,0,1-4.89-4.64c0-3.94,3.49-5.92,9.25-5.89v-.26c0-1-.42-2.72-3.17-2.72a8.24,8.24,0,0,0-4.19,1.16l-.77-2.56a11.15,11.15,0,0,1,5.63-1.38c5,0,6.43,3.17,6.43,6.56v5.63a25,25,0,0,0,.23,3.75Zm-.51-7.62c-2.78-.06-5.44.54-5.44,2.91a2.06,2.06,0,0,0,2.24,2.24,3.2,3.2,0,0,0,3.08-2.14,3,3,0,0,0,.12-.87Z" transform="translate(-332.68 -199.26)"/><path class="cls-6" d="M2108.18,391.64a11.49,11.49,0,0,1-4.42.8c-4.86,0-8-3.11-8-7.94,0-4.67,3.2-8.32,8.67-8.32a9.77,9.77,0,0,1,3.81.74l-.7,2.94a6.91,6.91,0,0,0-3-.61c-3,0-4.8,2.21-4.77,5.06,0,3.2,2.08,5,4.77,5a7.63,7.63,0,0,0,3.1-.61Z" transform="translate(-332.68 -199.26)"/><path class="cls-6" d="M2115,383.38h.06c.38-.61.83-1.28,1.25-1.82l3.77-5h4.74l-5.76,6.37,6.59,9.22h-4.83l-4.48-6.88L2115,386.8v5.32h-3.94V369.4H2115Z" transform="translate(-332.68 -199.26)"/><path class="cls-6" d="M2129.94,385.43c.09,2.81,2.3,4,4.8,4a11.93,11.93,0,0,0,4.32-.7l.57,2.72a14.74,14.74,0,0,1-5.44,1c-5.05,0-8-3.11-8-7.88,0-4.32,2.63-8.38,7.62-8.38s6.72,4.16,6.72,7.58a10.09,10.09,0,0,1-.13,1.67Zm6.85-2.75c0-1.44-.61-3.81-3.24-3.81-2.43,0-3.45,2.21-3.61,3.81Z" transform="translate(-332.68 -199.26)"/><path class="cls-6" d="M2148.18,372.09v4.44h3.74v3h-3.74v6.88c0,1.88.51,2.88,2,2.88a5.57,5.57,0,0,0,1.54-.2l.06,3a8.41,8.41,0,0,1-2.84.39,4.58,4.58,0,0,1-3.4-1.28c-.83-.9-1.21-2.31-1.21-4.36v-7.32h-2.24v-3h2.24V373Z" transform="translate(-332.68 -199.26)"/><path class="cls-6" d="M2173.46,374.1a15.23,15.23,0,0,0-2,.1c-4.35.51-6.46,3.2-7,6.08h.09a6,6,0,0,1,4.67-2c3.59,0,6.37,2.56,6.37,6.78a7.23,7.23,0,0,1-7.33,7.43c-5.05,0-7.84-3.84-7.84-9a12.74,12.74,0,0,1,3.62-9.35,13.9,13.9,0,0,1,9.38-3.13Zm-1.86,11.17c0-2.4-1.31-4.13-3.61-4.13a3.83,3.83,0,0,0-3.4,2.15,2.64,2.64,0,0,0-.25,1.24c.06,2.75,1.37,5,3.9,5C2170.29,389.52,2171.6,387.76,2171.6,385.27Z" transform="translate(-332.68 -199.26)"/></g><g class="cls-5"><path class="cls-6" d="M595.41,500.84a33.73,33.73,0,0,1,6-.45c2.88,0,5,.61,6.36,1.76a6.07,6.07,0,0,1,2.12,4.77,6.52,6.52,0,0,1-1.86,4.89,9.5,9.5,0,0,1-6.81,2.31,11.65,11.65,0,0,1-1.92-.13v8.13h-3.91Zm3.91,10a7.84,7.84,0,0,0,1.92.16c2.94,0,4.73-1.43,4.73-4s-1.66-3.68-4.38-3.68a10.56,10.56,0,0,0-2.27.19Z" transform="translate(-332.68 -199.26)"/><path class="cls-6" d="M621.24,522.12l-.26-1.73h-.1a5.8,5.8,0,0,1-4.6,2.08,4.63,4.63,0,0,1-4.9-4.64c0-3.94,3.49-5.92,9.25-5.89v-.26c0-1-.42-2.72-3.17-2.72a8.24,8.24,0,0,0-4.19,1.16l-.77-2.56a11.15,11.15,0,0,1,5.63-1.38c5,0,6.43,3.17,6.43,6.56v5.63a25,25,0,0,0,.23,3.75Zm-.52-7.62c-2.78-.06-5.44.54-5.44,2.91a2.07,2.07,0,0,0,2.24,2.24,3.2,3.2,0,0,0,3.08-2.14,3,3,0,0,0,.12-.87Z" transform="translate(-332.68 -199.26)"/><path class="cls-6" d="M640.18,521.64a11.49,11.49,0,0,1-4.42.8c-4.86,0-8-3.11-8-7.94,0-4.67,3.2-8.32,8.67-8.32a9.77,9.77,0,0,1,3.81.74l-.7,2.94a6.91,6.91,0,0,0-3-.61c-3,0-4.8,2.21-4.77,5.06,0,3.2,2.08,5,4.77,5a7.63,7.63,0,0,0,3.1-.61Z" transform="translate(-332.68 -199.26)"/><path class="cls-6" d="M647,513.38h.06c.38-.61.83-1.28,1.25-1.82l3.77-5h4.74l-5.76,6.37,6.59,9.22h-4.83l-4.48-6.88L647,516.8v5.32h-3.94V499.4H647Z" transform="translate(-332.68 -199.26)"/><path class="cls-6" d="M661.94,515.43c.1,2.81,2.3,4,4.8,4a11.93,11.93,0,0,0,4.32-.7l.57,2.72a14.74,14.74,0,0,1-5.44,1c-5.05,0-8-3.11-8-7.88,0-4.32,2.63-8.38,7.62-8.38s6.72,4.16,6.72,7.58a10.09,10.09,0,0,1-.13,1.67Zm6.85-2.75c0-1.44-.61-3.81-3.24-3.81-2.43,0-3.45,2.21-3.61,3.81Z" transform="translate(-332.68 -199.26)"/><path class="cls-6" d="M680.18,502.09v4.44h3.74v3h-3.74v6.88c0,1.88.51,2.88,2,2.88a5.57,5.57,0,0,0,1.54-.2l.06,3a8.41,8.41,0,0,1-2.84.39,4.58,4.58,0,0,1-3.4-1.28c-.83-.9-1.21-2.31-1.21-4.36v-7.32H674.1v-3h2.24V503Z" transform="translate(-332.68 -199.26)"/><path class="cls-6" d="M699,504.87h-.06l-3.81,1.92-.67-3,5.05-2.49h3.3v20.8H699Z" transform="translate(-332.68 -199.26)"/></g><g class="cls-8"><path class="cls-6" d="M927.41,500.84a33.73,33.73,0,0,1,6-.45c2.88,0,5,.61,6.36,1.76a6.07,6.07,0,0,1,2.12,4.77,6.52,6.52,0,0,1-1.86,4.89,9.5,9.5,0,0,1-6.81,2.31,11.65,11.65,0,0,1-1.92-.13v8.13h-3.91Zm3.91,10a7.84,7.84,0,0,0,1.92.16c2.94,0,4.73-1.43,4.73-4s-1.66-3.68-4.38-3.68a10.56,10.56,0,0,0-2.27.19Z" transform="translate(-332.68 -199.26)"/><path class="cls-6" d="M953.24,522.12l-.26-1.73h-.1a5.8,5.8,0,0,1-4.6,2.08,4.63,4.63,0,0,1-4.9-4.64c0-3.94,3.49-5.92,9.25-5.89v-.26c0-1-.42-2.72-3.17-2.72a8.24,8.24,0,0,0-4.19,1.16l-.77-2.56a11.15,11.15,0,0,1,5.63-1.38c5,0,6.43,3.17,6.43,6.56v5.63a25,25,0,0,0,.23,3.75Zm-.52-7.62c-2.78-.06-5.44.54-5.44,2.91a2.07,2.07,0,0,0,2.24,2.24,3.2,3.2,0,0,0,3.08-2.14,3,3,0,0,0,.12-.87Z" transform="translate(-332.68 -199.26)"/><path class="cls-6" d="M972.18,521.64a11.49,11.49,0,0,1-4.42.8c-4.86,0-8-3.11-8-7.94,0-4.67,3.2-8.32,8.67-8.32a9.77,9.77,0,0,1,3.81.74l-.7,2.94a6.91,6.91,0,0,0-3-.61c-3,0-4.8,2.21-4.77,5.06,0,3.2,2.08,5,4.77,5a7.63,7.63,0,0,0,3.1-.61Z" transform="translate(-332.68 -199.26)"/><path class="cls-6" d="M979,513.38h.06c.38-.61.83-1.28,1.25-1.82l3.77-5h4.74l-5.76,6.37,6.59,9.22h-4.83l-4.48-6.88L979,516.8v5.32h-3.94V499.4H979Z" transform="translate(-332.68 -199.26)"/><path class="cls-6" d="M993.94,515.43c.1,2.81,2.3,4,4.8,4a11.93,11.93,0,0,0,4.32-.7l.57,2.72a14.74,14.74,0,0,1-5.44,1c-5.05,0-8-3.11-8-7.88,0-4.32,2.63-8.38,7.62-8.38s6.72,4.16,6.72,7.58a10.09,10.09,0,0,1-.13,1.67Zm6.85-2.75c0-1.44-.61-3.81-3.24-3.81-2.43,0-3.45,2.21-3.61,3.81Z" transform="translate(-332.68 -199.26)"/><path class="cls-6" d="M1012.18,502.09v4.44h3.74v3h-3.74v6.88c0,1.88.51,2.88,2,2.88a5.57,5.57,0,0,0,1.54-.2l.06,3a8.41,8.41,0,0,1-2.84.39,4.58,4.58,0,0,1-3.4-1.28c-.83-.9-1.21-2.31-1.21-4.36v-7.32h-2.24v-3h2.24V503Z" transform="translate(-332.68 -199.26)"/><path class="cls-6" d="M1024.79,522.12v-2.4l2.46-2.28c4.9-4.54,7.2-7,7.23-9.79,0-1.85-1-3.49-3.71-3.49a7.6,7.6,0,0,0-4.45,1.73l-1.15-2.78a10.27,10.27,0,0,1,6.4-2.14c4.61,0,6.85,2.91,6.85,6.3,0,3.65-2.63,6.59-6.24,10l-1.83,1.57v.06h8.55v3.27Z" transform="translate(-332.68 -199.26)"/></g><g class="cls-5"><path class="cls-6" d="M1188.41,500.84a33.73,33.73,0,0,1,6-.45c2.88,0,5,.61,6.36,1.76a6.07,6.07,0,0,1,2.12,4.77,6.52,6.52,0,0,1-1.86,4.89,9.5,9.5,0,0,1-6.81,2.31,11.65,11.65,0,0,1-1.92-.13v8.13h-3.91Zm3.91,10a7.84,7.84,0,0,0,1.92.16c2.94,0,4.73-1.43,4.73-4s-1.66-3.68-4.38-3.68a10.56,10.56,0,0,0-2.27.19Z" transform="translate(-332.68 -199.26)"/><path class="cls-6" d="M1214.23,522.12l-.25-1.73h-.1a5.8,5.8,0,0,1-4.6,2.08,4.63,4.63,0,0,1-4.9-4.64c0-3.94,3.49-5.92,9.25-5.89v-.26c0-1-.42-2.72-3.17-2.72a8.24,8.24,0,0,0-4.19,1.16l-.77-2.56a11.15,11.15,0,0,1,5.63-1.38c5,0,6.43,3.17,6.43,6.56v5.63a25,25,0,0,0,.23,3.75Zm-.51-7.62c-2.78-.06-5.44.54-5.44,2.91a2.07,2.07,0,0,0,2.24,2.24,3.2,3.2,0,0,0,3.08-2.14,3,3,0,0,0,.12-.87Z" transform="translate(-332.68 -199.26)"/><path class="cls-6" d="M1233.18,521.64a11.49,11.49,0,0,1-4.42.8c-4.86,0-8-3.11-8-7.94,0-4.67,3.2-8.32,8.67-8.32a9.77,9.77,0,0,1,3.81.74l-.7,2.94a6.91,6.91,0,0,0-3-.61c-3,0-4.8,2.21-4.77,5.06,0,3.2,2.08,5,4.77,5a7.63,7.63,0,0,0,3.1-.61Z" transform="translate(-332.68 -199.26)"/><path class="cls-6" d="M1240,513.38h.06c.38-.61.83-1.28,1.25-1.82l3.77-5h4.74l-5.76,6.37,6.59,9.22h-4.83l-4.48-6.88L1240,516.8v5.32h-3.94V499.4H1240Z" transform="translate(-332.68 -199.26)"/><path class="cls-6" d="M1254.94,515.43c.09,2.81,2.3,4,4.8,4a11.93,11.93,0,0,0,4.32-.7l.57,2.72a14.74,14.74,0,0,1-5.44,1c-5,0-8-3.11-8-7.88,0-4.32,2.63-8.38,7.62-8.38s6.72,4.16,6.72,7.58a10.09,10.09,0,0,1-.13,1.67Zm6.85-2.75c0-1.44-.61-3.81-3.24-3.81-2.43,0-3.45,2.21-3.61,3.81Z" transform="translate(-332.68 -199.26)"/><path class="cls-6" d="M1273.18,502.09v4.44h3.74v3h-3.74v6.88c0,1.88.51,2.88,2,2.88a5.57,5.57,0,0,0,1.54-.2l.06,3a8.41,8.41,0,0,1-2.84.39,4.58,4.58,0,0,1-3.4-1.28c-.83-.9-1.21-2.31-1.21-4.36v-7.32h-2.24v-3h2.24V503Z" transform="translate(-332.68 -199.26)"/><path class="cls-6" d="M1286.59,518.05a10.28,10.28,0,0,0,4.73,1.28c3,0,4.23-1.69,4.19-3.33,0-2.46-2.3-3.51-4.7-3.51H1289v-2.88h1.76c1.82,0,4.12-.84,4.12-2.92,0-1.4-1-2.59-3.32-2.59a8.42,8.42,0,0,0-4.26,1.31l-.9-2.84a11.19,11.19,0,0,1,6-1.6c4.29,0,6.49,2.36,6.49,5.08,0,2.18-1.28,4-3.84,4.87V511a5.26,5.26,0,0,1,4.58,5.18c0,3.52-2.94,6.31-8.1,6.31a11.42,11.42,0,0,1-5.82-1.44Z" transform="translate(-332.68 -199.26)"/></g><g class="cls-5"><path class="cls-6" d="M1559.41,500.84a33.73,33.73,0,0,1,6-.45c2.88,0,5,.61,6.36,1.76a6.1,6.1,0,0,1,2.12,4.77,6.52,6.52,0,0,1-1.86,4.89,9.51,9.51,0,0,1-6.82,2.31,11.6,11.6,0,0,1-1.91-.13v8.13h-3.91Zm3.91,10a7.75,7.75,0,0,0,1.91.16c3,0,4.74-1.43,4.74-4s-1.66-3.68-4.38-3.68a10.56,10.56,0,0,0-2.27.19Z" transform="translate(-332.68 -199.26)"/><path class="cls-6" d="M1585.23,522.12l-.25-1.73h-.1a5.8,5.8,0,0,1-4.61,2.08,4.62,4.62,0,0,1-4.89-4.64c0-3.94,3.49-5.92,9.25-5.89v-.26c0-1-.42-2.72-3.17-2.72a8.24,8.24,0,0,0-4.19,1.16l-.77-2.56a11.15,11.15,0,0,1,5.63-1.38c5,0,6.43,3.17,6.43,6.56v5.63a25,25,0,0,0,.23,3.75Zm-.51-7.62c-2.78-.06-5.44.54-5.44,2.91a2.06,2.06,0,0,0,2.24,2.24,3.2,3.2,0,0,0,3.08-2.14,3,3,0,0,0,.12-.87Z" transform="translate(-332.68 -199.26)"/><path class="cls-6" d="M1604.18,521.64a11.49,11.49,0,0,1-4.42.8c-4.86,0-8-3.11-8-7.94,0-4.67,3.2-8.32,8.67-8.32a9.77,9.77,0,0,1,3.81.74l-.7,2.94a6.91,6.91,0,0,0-3-.61c-3,0-4.8,2.21-4.77,5.06,0,3.2,2.08,5,4.77,5a7.63,7.63,0,0,0,3.1-.61Z" transform="translate(-332.68 -199.26)"/><path class="cls-6" d="M1611,513.38h.06c.38-.61.83-1.28,1.25-1.82l3.77-5h4.74l-5.76,6.37,6.59,9.22h-4.83l-4.48-6.88L1611,516.8v5.32h-3.94V499.4H1611Z" transform="translate(-332.68 -199.26)"/><path class="cls-6" d="M1625.94,515.43c.09,2.81,2.3,4,4.8,4a11.93,11.93,0,0,0,4.32-.7l.57,2.72a14.74,14.74,0,0,1-5.44,1c-5,0-8-3.11-8-7.88,0-4.32,2.63-8.38,7.62-8.38s6.72,4.16,6.72,7.58a10.09,10.09,0,0,1-.13,1.67Zm6.85-2.75c0-1.44-.61-3.81-3.24-3.81-2.43,0-3.45,2.21-3.61,3.81Z" transform="translate(-332.68 -199.26)"/><path class="cls-6" d="M1644.18,502.09v4.44h3.74v3h-3.74v6.88c0,1.88.51,2.88,2,2.88a5.57,5.57,0,0,0,1.54-.2l.06,3a8.41,8.41,0,0,1-2.84.39,4.58,4.58,0,0,1-3.4-1.28c-.83-.9-1.21-2.31-1.21-4.36v-7.32h-2.24v-3h2.24V503Z" transform="translate(-332.68 -199.26)"/><path class="cls-6" d="M1665.46,522.12v-5.28h-9.41v-2.56l8.48-13h4.64v12.54h2.69v3h-2.69v5.28Zm0-8.26V508.2c0-1.19,0-2.4.13-3.62h-.13c-.64,1.31-1.19,2.37-1.83,3.52l-3.8,5.7,0,.06Z" transform="translate(-332.68 -199.26)"/></g><path class="cls-3" d="M332.68,370.84a39.57,39.57,0,0,1,6.28-.45c4,0,6.81.83,8.8,2.49s3.36,4.26,3.36,7.94a11.21,11.21,0,0,1-3.36,8.58c-2.15,2-5.57,2.94-9.76,2.94a43,43,0,0,1-5.32-.29Zm3.94,18.27a15.66,15.66,0,0,0,2.18.09c5.12,0,8.16-2.78,8.16-8.25,0-4.77-2.72-7.49-7.65-7.49a13.2,13.2,0,0,0-2.69.22Z" transform="translate(-332.68 -199.26)"/><path class="cls-3" d="M363.15,392.12l-.26-1.73h-.09a5.82,5.82,0,0,1-4.61,2.08,4.63,4.63,0,0,1-4.9-4.64c0-3.94,3.49-5.92,9.25-5.89v-.26c0-1-.42-2.72-3.17-2.72a8.2,8.2,0,0,0-4.19,1.16l-.77-2.56a11.15,11.15,0,0,1,5.63-1.38c5,0,6.44,3.17,6.44,6.56v5.63a25.12,25.12,0,0,0,.22,3.75Zm-.51-7.62c-2.79-.06-5.44.54-5.44,2.91a2.06,2.06,0,0,0,2.24,2.24,3.19,3.19,0,0,0,3.07-2.14,3.06,3.06,0,0,0,.13-.87Z" transform="translate(-332.68 -199.26)"/><path class="cls-3" d="M375,372.08v4.45h3.74v3H375v6.88c0,1.88.51,2.88,2,2.88a5.63,5.63,0,0,0,1.54-.2l.06,3a8.44,8.44,0,0,1-2.85.39,4.6,4.6,0,0,1-3.39-1.28c-.83-.9-1.21-2.31-1.21-4.36v-7.32h-2.24v-3h2.24V373Z" transform="translate(-332.68 -199.26)"/><path class="cls-3" d="M390.44,392.12l-.25-1.73h-.1a5.8,5.8,0,0,1-4.61,2.08,4.62,4.62,0,0,1-4.89-4.64c0-3.94,3.49-5.92,9.25-5.89v-.26c0-1-.42-2.72-3.17-2.72a8.14,8.14,0,0,0-4.19,1.16l-.77-2.56a11.15,11.15,0,0,1,5.63-1.38c5,0,6.43,3.17,6.43,6.56v5.63a25,25,0,0,0,.23,3.75Zm-.51-7.62c-2.78-.06-5.44.54-5.44,2.91a2.06,2.06,0,0,0,2.24,2.24,3.18,3.18,0,0,0,3.07-2.14,2.74,2.74,0,0,0,.13-.87Z" transform="translate(-332.68 -199.26)"/><path class="cls-3" d="M404.36,388.5a8.87,8.87,0,0,0,4,1.12c1.73,0,2.5-.71,2.5-1.73s-.64-1.6-2.56-2.27c-3-1.06-4.32-2.72-4.29-4.54,0-2.76,2.27-4.9,5.89-4.9a9.16,9.16,0,0,1,4.13.93l-.77,2.78A7,7,0,0,0,410,379c-1.4,0-2.17.67-2.17,1.63s.73,1.47,2.72,2.17c2.81,1,4.12,2.47,4.16,4.77,0,2.82-2.21,4.87-6.34,4.87a10,10,0,0,1-4.73-1.09Z" transform="translate(-332.68 -199.26)"/><path class="cls-3" d="M422.41,372.08v4.45h3.74v3h-3.74v6.88c0,1.88.51,2.88,2,2.88A5.55,5.55,0,0,0,426,389l.07,3a8.48,8.48,0,0,1-2.85.39,4.58,4.58,0,0,1-3.39-1.28c-.83-.9-1.22-2.31-1.22-4.36v-7.32h-2.24v-3h2.24V373Z" transform="translate(-332.68 -199.26)"/><path class="cls-3" d="M429.13,381.56c0-2.12,0-3.62-.13-5h3.43l.13,3h.12a4.65,4.65,0,0,1,4.26-3.33,3.84,3.84,0,0,1,.93.1V380a5.17,5.17,0,0,0-1.16-.13,3.47,3.47,0,0,0-3.51,3,6.14,6.14,0,0,0-.13,1.21v8.07h-3.94Z" transform="translate(-332.68 -199.26)"/><path class="cls-3" d="M443,385.43c.1,2.81,2.3,4,4.8,4a11.93,11.93,0,0,0,4.32-.7l.57,2.72a14.74,14.74,0,0,1-5.44,1c-5,0-8-3.11-8-7.88,0-4.32,2.63-8.38,7.62-8.38s6.72,4.16,6.72,7.58a10.09,10.09,0,0,1-.13,1.67Zm6.85-2.75c0-1.44-.61-3.81-3.24-3.81-2.43,0-3.45,2.21-3.61,3.81Z" transform="translate(-332.68 -199.26)"/><path class="cls-3" d="M465.51,392.12l-.25-1.73h-.1a5.8,5.8,0,0,1-4.61,2.08,4.62,4.62,0,0,1-4.89-4.64c0-3.94,3.49-5.92,9.25-5.89v-.26c0-1-.42-2.72-3.17-2.72a8.14,8.14,0,0,0-4.19,1.16l-.77-2.56a11.15,11.15,0,0,1,5.63-1.38c5,0,6.43,3.17,6.43,6.56v5.63a25,25,0,0,0,.23,3.75ZM465,384.5c-2.78-.06-5.44.54-5.44,2.91a2.06,2.06,0,0,0,2.24,2.24,3.18,3.18,0,0,0,3.07-2.14,2.74,2.74,0,0,0,.13-.87Z" transform="translate(-332.68 -199.26)"/><path class="cls-3" d="M473,381.17c0-1.79,0-3.29-.13-4.64h3.4l.16,2.31h.09a5.39,5.39,0,0,1,4.8-2.66,4.49,4.49,0,0,1,4.32,2.88h.07a5.87,5.87,0,0,1,1.92-1.95,5.16,5.16,0,0,1,3.13-.93c2.59,0,5.22,1.76,5.22,6.75v9.19h-3.84v-8.61c0-2.59-.9-4.13-2.79-4.13a3,3,0,0,0-2.75,2.08,5.91,5.91,0,0,0-.19,1.31v9.35h-3.84v-9c0-2.17-.86-3.71-2.69-3.71a3.06,3.06,0,0,0-2.81,2.24,3.35,3.35,0,0,0-.23,1.28v9.22H473Z" transform="translate(-332.68 -199.26)"/><path class="cls-3" d="M509.45,370.9a24.47,24.47,0,0,1,5.18-.51,8.6,8.6,0,0,1,5.19,1.31,4.22,4.22,0,0,1,2.08,3.68c0,2.72-2.11,4.58-4.48,5.22v.09a4.72,4.72,0,0,1,3.45,4.74,6,6,0,0,1-2.78,5.05c-1.79,1.28-4.35,1.76-7.62,1.76a29.76,29.76,0,0,1-5-.32Zm.16,18.3a17.59,17.59,0,0,0,2,.1c2.79,0,5.35-1.12,5.35-4,0-2.3-2-3.17-4.23-3.17H511Zm1.92-9.82h1.73c2.78,0,4.8-1.31,4.8-3.52,0-1.76-1.38-2.53-3.43-2.53a10,10,0,0,0-2,.16Z" transform="translate(-332.68 -199.26)"/><path class="cls-3" d="M332.68,500.84a39.57,39.57,0,0,1,6.28-.45c4,0,6.81.83,8.8,2.5s3.36,4.25,3.36,7.93a11.21,11.21,0,0,1-3.36,8.58c-2.15,2-5.57,2.94-9.76,2.94a43,43,0,0,1-5.32-.29Zm3.94,18.27a15.66,15.66,0,0,0,2.18.09c5.12,0,8.16-2.78,8.16-8.25,0-4.77-2.72-7.49-7.65-7.49a12.35,12.35,0,0,0-2.69.23Z" transform="translate(-332.68 -199.26)"/><path class="cls-3" d="M363.15,522.12l-.26-1.73h-.09a5.82,5.82,0,0,1-4.61,2.08,4.63,4.63,0,0,1-4.9-4.64c0-3.94,3.49-5.92,9.25-5.89v-.26c0-1-.42-2.72-3.17-2.72a8.3,8.3,0,0,0-4.19,1.16l-.77-2.56a11.15,11.15,0,0,1,5.63-1.38c5,0,6.44,3.17,6.44,6.56v5.63a25.12,25.12,0,0,0,.22,3.75Zm-.51-7.62c-2.79-.06-5.44.54-5.44,2.91a2.06,2.06,0,0,0,2.24,2.24,3.19,3.19,0,0,0,3.07-2.14,3.06,3.06,0,0,0,.13-.87Z" transform="translate(-332.68 -199.26)"/><path class="cls-3" d="M375,502.09v4.44h3.74v3H375v6.88c0,1.88.51,2.88,2,2.88a5.63,5.63,0,0,0,1.54-.2l.06,3a8.44,8.44,0,0,1-2.85.39,4.56,4.56,0,0,1-3.39-1.28c-.83-.9-1.21-2.31-1.21-4.36v-7.32h-2.24v-3h2.24V503Z" transform="translate(-332.68 -199.26)"/><path class="cls-3" d="M390.44,522.12l-.25-1.73h-.1a5.8,5.8,0,0,1-4.61,2.08,4.62,4.62,0,0,1-4.89-4.64c0-3.94,3.49-5.92,9.25-5.89v-.26c0-1-.42-2.72-3.17-2.72a8.24,8.24,0,0,0-4.19,1.16l-.77-2.56a11.15,11.15,0,0,1,5.63-1.38c5,0,6.43,3.17,6.43,6.56v5.63a25,25,0,0,0,.23,3.75Zm-.51-7.62c-2.78-.06-5.44.54-5.44,2.91a2.06,2.06,0,0,0,2.24,2.24,3.18,3.18,0,0,0,3.07-2.14,2.74,2.74,0,0,0,.13-.87Z" transform="translate(-332.68 -199.26)"/><path class="cls-3" d="M404.36,518.5a8.87,8.87,0,0,0,4,1.12c1.73,0,2.5-.7,2.5-1.73s-.64-1.6-2.56-2.27c-3-1.06-4.32-2.72-4.29-4.54,0-2.75,2.27-4.9,5.89-4.9a9.16,9.16,0,0,1,4.13.93l-.77,2.78A7,7,0,0,0,410,509c-1.4,0-2.17.67-2.17,1.63s.73,1.47,2.72,2.17c2.81,1,4.12,2.47,4.16,4.77,0,2.82-2.21,4.87-6.34,4.87a10,10,0,0,1-4.73-1.09Z" transform="translate(-332.68 -199.26)"/><path class="cls-3" d="M422.41,502.09v4.44h3.74v3h-3.74v6.88c0,1.88.51,2.88,2,2.88A5.55,5.55,0,0,0,426,519l.07,3a8.48,8.48,0,0,1-2.85.39,4.54,4.54,0,0,1-3.39-1.28c-.83-.9-1.22-2.31-1.22-4.36v-7.32h-2.24v-3h2.24V503Z" transform="translate(-332.68 -199.26)"/><path class="cls-3" d="M429.13,511.56c0-2.11,0-3.62-.13-5h3.43l.13,3h.12a4.65,4.65,0,0,1,4.26-3.33,3.84,3.84,0,0,1,.93.1V510a5.17,5.17,0,0,0-1.16-.13,3.47,3.47,0,0,0-3.51,3,6.14,6.14,0,0,0-.13,1.21v8.07h-3.94Z" transform="translate(-332.68 -199.26)"/><path class="cls-3" d="M443,515.43c.1,2.81,2.3,4,4.8,4a11.93,11.93,0,0,0,4.32-.7l.57,2.72a14.74,14.74,0,0,1-5.44,1c-5,0-8-3.11-8-7.88,0-4.32,2.63-8.38,7.62-8.38s6.72,4.16,6.72,7.58a10.09,10.09,0,0,1-.13,1.67Zm6.85-2.75c0-1.44-.61-3.81-3.24-3.81-2.43,0-3.45,2.21-3.61,3.81Z" transform="translate(-332.68 -199.26)"/><path class="cls-3" d="M465.51,522.12l-.25-1.73h-.1a5.8,5.8,0,0,1-4.61,2.08,4.62,4.62,0,0,1-4.89-4.64c0-3.94,3.49-5.92,9.25-5.89v-.26c0-1-.42-2.72-3.17-2.72a8.24,8.24,0,0,0-4.19,1.16l-.77-2.56a11.15,11.15,0,0,1,5.63-1.38c5,0,6.43,3.17,6.43,6.56v5.63a25,25,0,0,0,.23,3.75ZM465,514.5c-2.78-.06-5.44.54-5.44,2.91a2.06,2.06,0,0,0,2.24,2.24,3.18,3.18,0,0,0,3.07-2.14,2.74,2.74,0,0,0,.13-.87Z" transform="translate(-332.68 -199.26)"/><path class="cls-3" d="M473,511.17c0-1.79,0-3.29-.13-4.64h3.4l.16,2.31h.09a5.39,5.39,0,0,1,4.8-2.66,4.49,4.49,0,0,1,4.32,2.88h.07a5.87,5.87,0,0,1,1.92-1.95,5.16,5.16,0,0,1,3.13-.93c2.59,0,5.22,1.76,5.22,6.75v9.19h-3.84v-8.61c0-2.59-.9-4.13-2.79-4.13a3,3,0,0,0-2.75,2.08,6,6,0,0,0-.19,1.31v9.35h-3.84v-9c0-2.17-.86-3.71-2.69-3.71a3.06,3.06,0,0,0-2.81,2.24,3.35,3.35,0,0,0-.23,1.28v9.22H473Z" transform="translate(-332.68 -199.26)"/><path class="cls-3" d="M521,521.48a14.53,14.53,0,0,1-5.63,1c-5.6,0-9.18-3.46-9.18-9.06a12.72,12.72,0,0,1,13.09-13.18,9.49,9.49,0,0,1,4.7,1l-1.09,3a9.16,9.16,0,0,0-4.06-.77,8.44,8.44,0,0,0-5.51,2,10,10,0,0,0-3.1,7.52c0,3.62,1.86,6.34,6.11,6.34a10.67,10.67,0,0,0,4.32-.83Z" transform="translate(-332.68 -199.26)"/><path class="cls-9" d="M732.43,819.19H539.76a20.26,20.26,0,0,1-20.26-20.26V742.52a20.26,20.26,0,0,1,20.26-20.26H732.43Z" transform="translate(-332.68 -199.26)"/><rect class="cls-10" x="382.35" y="523" width="232.93" height="96.94"/><rect class="cls-11" x="602.35" y="523" width="282.93" height="96.94"/><path class="cls-11" d="M2103.17,819.19H1866.5V722.26h236.67a20.26,20.26,0,0,1,20.26,20.26v56.41A20.26,20.26,0,0,1,2103.17,819.19Z" transform="translate(-332.68 -199.26)"/><rect class="cls-11" x="872.45" y="523" width="282.93" height="96.94"/><rect class="cls-11" x="1142.45" y="523" width="162.93" height="96.94"/><rect class="cls-11" x="1302.45" y="523" width="242.93" height="96.94"/><rect class="cls-7" x="186.82" y="523" width="1603.25" height="96.94" rx="20.26"/><g class="cls-8"><path class="cls-6" d="M556.46,760.55v8.64h9.12v-8.64h3.94v21.57h-3.94v-9.51h-9.12v9.51h-3.93V760.55Z" transform="translate(-332.68 -199.26)"/><path class="cls-6" d="M576.65,775.43c.1,2.81,2.31,4,4.8,4a11.85,11.85,0,0,0,4.32-.7l.58,2.72a14.78,14.78,0,0,1-5.44,1c-5.06,0-8-3.11-8-7.88,0-4.32,2.62-8.38,7.61-8.38s6.72,4.16,6.72,7.58a9.09,9.09,0,0,1-.13,1.67Zm6.85-2.75c0-1.44-.61-3.81-3.23-3.81-2.43,0-3.46,2.21-3.62,3.81Z" transform="translate(-332.68 -199.26)"/><path class="cls-6" d="M599.15,782.12l-.26-1.73h-.09a5.82,5.82,0,0,1-4.61,2.08,4.63,4.63,0,0,1-4.9-4.64c0-3.94,3.49-5.92,9.25-5.89v-.26c0-1-.42-2.72-3.17-2.72a8.2,8.2,0,0,0-4.19,1.16l-.77-2.56a11.15,11.15,0,0,1,5.63-1.38c5,0,6.44,3.17,6.44,6.56v5.63a25.12,25.12,0,0,0,.22,3.75Zm-.51-7.62c-2.79-.06-5.44.54-5.44,2.91a2.06,2.06,0,0,0,2.24,2.24,3.19,3.19,0,0,0,3.07-2.14,3.06,3.06,0,0,0,.13-.87Z" transform="translate(-332.68 -199.26)"/><path class="cls-6" d="M621,759.4v18.33c0,1.6.07,3.33.13,4.39h-3.52l-.16-2.47h-.06a5.62,5.62,0,0,1-5.09,2.82c-3.71,0-6.66-3.17-6.66-8,0-5.22,3.24-8.32,7-8.32a5,5,0,0,1,4.38,2.05h.07V759.4ZM617.07,773a5.14,5.14,0,0,0-.1-1,3.45,3.45,0,0,0-3.39-2.78c-2.53,0-3.94,2.24-3.94,5.15s1.41,4.93,3.91,4.93a3.47,3.47,0,0,0,3.39-2.78,4.3,4.3,0,0,0,.13-1.16Z" transform="translate(-332.68 -199.26)"/><path class="cls-6" d="M628,775.43c.1,2.81,2.31,4,4.8,4a11.85,11.85,0,0,0,4.32-.7l.58,2.72a14.78,14.78,0,0,1-5.44,1c-5.06,0-8-3.11-8-7.88,0-4.32,2.62-8.38,7.61-8.38s6.72,4.16,6.72,7.58a9.09,9.09,0,0,1-.13,1.67Zm6.85-2.75c0-1.44-.61-3.81-3.23-3.81-2.43,0-3.46,2.21-3.62,3.81Z" transform="translate(-332.68 -199.26)"/><path class="cls-6" d="M641.74,771.56c0-2.12,0-3.62-.13-5H645l.12,3h.13a4.65,4.65,0,0,1,4.26-3.33,3.84,3.84,0,0,1,.93.1V770a5.17,5.17,0,0,0-1.16-.13,3.49,3.49,0,0,0-3.52,3,7.07,7.07,0,0,0-.12,1.21v8.07h-3.94Z" transform="translate(-332.68 -199.26)"/></g><g class="cls-8"><path class="cls-6" d="M764,781.48a13.83,13.83,0,0,1-5.57,1c-6.85,0-11-4.29-11-10.85,0-7.11,4.92-11.39,11.51-11.39a12.31,12.31,0,0,1,5.25,1l-.86,3.13a10.47,10.47,0,0,0-4.23-.83c-4.38,0-7.55,2.75-7.55,7.94,0,4.73,2.79,7.77,7.52,7.77a11,11,0,0,0,4.29-.8Z" transform="translate(-332.68 -199.26)"/><path class="cls-6" d="M781.48,774.18c0,5.73-4,8.29-8,8.29-4.41,0-7.8-3-7.8-8s3.36-8.26,8.06-8.26S781.48,769.44,781.48,774.18Zm-11.74.16c0,3,1.47,5.28,3.87,5.28,2.24,0,3.81-2.21,3.81-5.34,0-2.44-1.09-5.22-3.78-5.22S769.74,771.75,769.74,774.34Z" transform="translate(-332.68 -199.26)"/><path class="cls-6" d="M784.72,771.17c0-1.79,0-3.29-.13-4.64H788l.2,2.34h.09a5.61,5.61,0,0,1,5-2.69c2.72,0,5.54,1.76,5.54,6.69v9.25h-3.94v-8.8c0-2.24-.83-3.94-3-3.94a3.29,3.29,0,0,0-3.07,2.3,4,4,0,0,0-.17,1.28v9.16h-4Z" transform="translate(-332.68 -199.26)"/><path class="cls-6" d="M807.37,762.08v4.45h3.75v3h-3.75v6.88c0,1.88.51,2.88,2,2.88a5.55,5.55,0,0,0,1.53-.2l.07,3a8.48,8.48,0,0,1-2.85.39,4.6,4.6,0,0,1-3.39-1.28c-.83-.9-1.22-2.31-1.22-4.36v-7.32h-2.24v-3h2.24V763Z" transform="translate(-332.68 -199.26)"/><path class="cls-6" d="M816.68,775.43c.1,2.81,2.31,4,4.8,4a11.85,11.85,0,0,0,4.32-.7l.58,2.72a14.74,14.74,0,0,1-5.44,1c-5.05,0-8-3.11-8-7.88,0-4.32,2.62-8.38,7.61-8.38s6.72,4.16,6.72,7.58a10.34,10.34,0,0,1-.12,1.67Zm6.85-2.75c0-1.44-.61-3.81-3.23-3.81-2.43,0-3.45,2.21-3.62,3.81Z" transform="translate(-332.68 -199.26)"/><path class="cls-6" d="M832.78,766.53l1.86,3c.51.83,1,1.6,1.4,2.4h.1c.45-.87.9-1.67,1.34-2.47l1.73-2.88h4.29L838.28,774l5.32,8.1h-4.45L837.23,779c-.51-.83-1-1.66-1.41-2.53h-.06c-.45.9-.9,1.67-1.41,2.53l-1.79,3.11h-4.35l5.4-7.94-5.21-7.65Z" transform="translate(-332.68 -199.26)"/><path class="cls-6" d="M850.89,762.08v4.45h3.75v3h-3.75v6.88c0,1.88.51,2.88,2,2.88a5.55,5.55,0,0,0,1.53-.2l.07,3a8.48,8.48,0,0,1-2.85.39,4.58,4.58,0,0,1-3.39-1.28c-.83-.9-1.22-2.31-1.22-4.36v-7.32h-2.24v-3h2.24V763Z" transform="translate(-332.68 -199.26)"/></g><g class="cls-5"><path class="cls-6" d="M980.59,772.55h-8.13v6.33h9.09v3.24h-13V760.55h12.54v3.23h-8.61v5.57h8.13Z" transform="translate(-332.68 -199.26)"/><path class="cls-6" d="M987,766.53l2.53,7.91a38.63,38.63,0,0,1,1.05,3.9h.1c.29-1.28.64-2.5,1.06-3.9l2.46-7.91h4.16l-6,15.59h-3.87l-5.79-15.59Z" transform="translate(-332.68 -199.26)"/><path class="cls-6" d="M1003.15,775.43c.1,2.81,2.3,4,4.8,4a11.93,11.93,0,0,0,4.32-.7l.57,2.72a14.72,14.72,0,0,1-5.43,1c-5.06,0-8-3.11-8-7.88,0-4.32,2.63-8.38,7.62-8.38s6.72,4.16,6.72,7.58a10.09,10.09,0,0,1-.13,1.67Zm6.85-2.75c0-1.44-.61-3.81-3.23-3.81-2.44,0-3.46,2.21-3.62,3.81Z" transform="translate(-332.68 -199.26)"/><path class="cls-6" d="M1016.88,771.17c0-1.79,0-3.29-.13-4.64h3.45l.2,2.34h.09a5.61,5.61,0,0,1,5-2.69c2.72,0,5.54,1.76,5.54,6.69v9.25h-3.94v-8.8c0-2.24-.83-3.94-3-3.94a3.29,3.29,0,0,0-3.07,2.3,4,4,0,0,0-.16,1.28v9.16h-4Z" transform="translate(-332.68 -199.26)"/><path class="cls-6" d="M1039.53,762.08v4.45h3.75v3h-3.75v6.88c0,1.88.51,2.88,2,2.88a5.55,5.55,0,0,0,1.53-.2l.07,3a8.48,8.48,0,0,1-2.85.39,4.6,4.6,0,0,1-3.39-1.28c-.83-.9-1.22-2.31-1.22-4.36v-7.32h-2.24v-3h2.24V763Z" transform="translate(-332.68 -199.26)"/><path class="cls-6" d="M1052.88,771.56c0-2.12,0-3.62-.13-5h3.42l.13,3h.13a4.65,4.65,0,0,1,4.25-3.33,3.79,3.79,0,0,1,.93.1V770a5.07,5.07,0,0,0-1.15-.13,3.47,3.47,0,0,0-3.52,3,7,7,0,0,0-.13,1.21v8.07h-3.93Z" transform="translate(-332.68 -199.26)"/><path class="cls-6" d="M1066.76,775.43c.1,2.81,2.31,4,4.8,4a11.85,11.85,0,0,0,4.32-.7l.58,2.72a14.74,14.74,0,0,1-5.44,1c-5.06,0-8-3.11-8-7.88,0-4.32,2.62-8.38,7.61-8.38s6.72,4.16,6.72,7.58a10.34,10.34,0,0,1-.12,1.67Zm6.85-2.75c0-1.44-.61-3.81-3.23-3.81-2.43,0-3.46,2.21-3.62,3.81Z" transform="translate(-332.68 -199.26)"/><path class="cls-6" d="M1092,781.64a11.49,11.49,0,0,1-4.42.8c-4.86,0-8-3.11-8-7.94,0-4.67,3.2-8.32,8.67-8.32a9.77,9.77,0,0,1,3.81.74l-.7,2.94a6.91,6.91,0,0,0-3-.61c-3,0-4.8,2.21-4.77,5.06,0,3.2,2.08,5,4.77,5a7.63,7.63,0,0,0,3.1-.61Z" transform="translate(-332.68 -199.26)"/><path class="cls-6" d="M1109.39,774.18c0,5.73-4,8.29-8,8.29-4.42,0-7.81-3-7.81-8s3.36-8.26,8.06-8.26S1109.39,769.44,1109.39,774.18Zm-11.75.16c0,3,1.48,5.28,3.88,5.28,2.24,0,3.8-2.21,3.8-5.34,0-2.44-1.08-5.22-3.77-5.22S1097.64,771.75,1097.64,774.34Z" transform="translate(-332.68 -199.26)"/><path class="cls-6" d="M1112.62,771.56c0-2.12,0-3.62-.13-5h3.43l.12,3h.13a4.65,4.65,0,0,1,4.26-3.33,3.84,3.84,0,0,1,.93.1V770a5.17,5.17,0,0,0-1.16-.13,3.49,3.49,0,0,0-3.52,3,7.07,7.07,0,0,0-.12,1.21v8.07h-3.94Z" transform="translate(-332.68 -199.26)"/><path class="cls-6" d="M1138.09,759.4v18.33c0,1.6.07,3.33.13,4.39h-3.52l-.16-2.47h-.06a5.62,5.62,0,0,1-5.09,2.82c-3.71,0-6.66-3.17-6.66-8,0-5.22,3.23-8.32,7-8.32a5,5,0,0,1,4.38,2.05h.07V759.4ZM1134.16,773a6,6,0,0,0-.1-1,3.45,3.45,0,0,0-3.39-2.78c-2.53,0-3.94,2.24-3.94,5.15s1.41,4.93,3.91,4.93a3.48,3.48,0,0,0,3.39-2.78,4.74,4.74,0,0,0,.13-1.16Z" transform="translate(-332.68 -199.26)"/><path class="cls-6" d="M1154.38,764.87h-.06l-3.81,1.92-.67-3,5.05-2.49h3.3v20.8h-3.81Z" transform="translate(-332.68 -199.26)"/></g><g class="cls-8"><path class="cls-6" d="M1250.59,772.55h-8.13v6.33h9.09v3.24h-13V760.55h12.55v3.23h-8.61v5.57h8.13Z" transform="translate(-332.68 -199.26)"/><path class="cls-6" d="M1257,766.53l2.53,7.91a38.63,38.63,0,0,1,1,3.9h.1c.29-1.28.64-2.5,1.06-3.9l2.46-7.91h4.16l-6,15.59h-3.87l-5.79-15.59Z" transform="translate(-332.68 -199.26)"/><path class="cls-6" d="M1273.15,775.43c.1,2.81,2.3,4,4.8,4a11.93,11.93,0,0,0,4.32-.7l.57,2.72a14.74,14.74,0,0,1-5.44,1c-5.05,0-8-3.11-8-7.88,0-4.32,2.63-8.38,7.62-8.38s6.72,4.16,6.72,7.58a10.09,10.09,0,0,1-.13,1.67Zm6.85-2.75c0-1.44-.61-3.81-3.23-3.81-2.44,0-3.46,2.21-3.62,3.81Z" transform="translate(-332.68 -199.26)"/><path class="cls-6" d="M1286.88,771.17c0-1.79,0-3.29-.13-4.64h3.45l.2,2.34h.09a5.61,5.61,0,0,1,5-2.69c2.72,0,5.54,1.76,5.54,6.69v9.25h-3.94v-8.8c0-2.24-.83-3.94-3-3.94a3.29,3.29,0,0,0-3.07,2.3,4,4,0,0,0-.16,1.28v9.16h-4Z" transform="translate(-332.68 -199.26)"/><path class="cls-6" d="M1309.53,762.08v4.45h3.75v3h-3.75v6.88c0,1.88.51,2.88,2,2.88a5.55,5.55,0,0,0,1.53-.2l.07,3a8.48,8.48,0,0,1-2.85.39,4.58,4.58,0,0,1-3.39-1.28c-.83-.9-1.22-2.31-1.22-4.36v-7.32h-2.24v-3h2.24V763Z" transform="translate(-332.68 -199.26)"/><path class="cls-6" d="M1322.88,771.56c0-2.12,0-3.62-.13-5h3.42l.13,3h.13a4.65,4.65,0,0,1,4.25-3.33,3.79,3.79,0,0,1,.93.1V770a5.07,5.07,0,0,0-1.15-.13,3.47,3.47,0,0,0-3.52,3,7,7,0,0,0-.13,1.21v8.07h-3.93Z" transform="translate(-332.68 -199.26)"/><path class="cls-6" d="M1336.76,775.43c.1,2.81,2.31,4,4.8,4a11.85,11.85,0,0,0,4.32-.7l.58,2.72a14.74,14.74,0,0,1-5.44,1c-5.06,0-8-3.11-8-7.88,0-4.32,2.62-8.38,7.61-8.38s6.72,4.16,6.72,7.58a10.34,10.34,0,0,1-.12,1.67Zm6.85-2.75c0-1.44-.61-3.81-3.23-3.81-2.43,0-3.46,2.21-3.62,3.81Z" transform="translate(-332.68 -199.26)"/><path class="cls-6" d="M1362,781.64a11.49,11.49,0,0,1-4.42.8c-4.86,0-8-3.11-8-7.94,0-4.67,3.2-8.32,8.67-8.32a9.77,9.77,0,0,1,3.81.74l-.7,2.94a6.91,6.91,0,0,0-3-.61c-3,0-4.8,2.21-4.77,5.06,0,3.2,2.08,5,4.77,5a7.63,7.63,0,0,0,3.1-.61Z" transform="translate(-332.68 -199.26)"/><path class="cls-6" d="M1379.39,774.18c0,5.73-4,8.29-8,8.29-4.42,0-7.81-3-7.81-8s3.36-8.26,8.06-8.26S1379.39,769.44,1379.39,774.18Zm-11.75.16c0,3,1.48,5.28,3.88,5.28,2.24,0,3.8-2.21,3.8-5.34,0-2.44-1.08-5.22-3.77-5.22S1367.64,771.75,1367.64,774.34Z" transform="translate(-332.68 -199.26)"/><path class="cls-6" d="M1382.62,771.56c0-2.12,0-3.62-.13-5h3.43l.12,3h.13a4.65,4.65,0,0,1,4.26-3.33,3.84,3.84,0,0,1,.93.1V770a5.17,5.17,0,0,0-1.16-.13,3.49,3.49,0,0,0-3.52,3,7.07,7.07,0,0,0-.12,1.21v8.07h-3.94Z" transform="translate(-332.68 -199.26)"/><path class="cls-6" d="M1408.09,759.4v18.33c0,1.6.07,3.33.13,4.39h-3.52l-.16-2.47h-.06a5.62,5.62,0,0,1-5.09,2.82c-3.71,0-6.66-3.17-6.66-8,0-5.22,3.23-8.32,7-8.32a5,5,0,0,1,4.38,2.05h.07V759.4ZM1404.16,773a6,6,0,0,0-.1-1,3.45,3.45,0,0,0-3.39-2.78c-2.53,0-3.94,2.24-3.94,5.15s1.41,4.93,3.91,4.93a3.48,3.48,0,0,0,3.39-2.78,4.74,4.74,0,0,0,.13-1.16Z" transform="translate(-332.68 -199.26)"/><path class="cls-6" d="M1418.2,782.12v-2.4l2.47-2.28c4.89-4.54,7.2-7,7.23-9.79,0-1.85-1-3.49-3.71-3.49a7.58,7.58,0,0,0-4.45,1.73l-1.15-2.78A10.25,10.25,0,0,1,1425,761c4.61,0,6.84,2.92,6.84,6.31,0,3.65-2.62,6.59-6.23,10l-1.83,1.57v.06h8.54v3.27Z" transform="translate(-332.68 -199.26)"/></g><g class="cls-5"><path class="cls-6" d="M1520.59,772.55h-8.13v6.33h9.09v3.24h-13V760.55h12.55v3.23h-8.61v5.57h8.13Z" transform="translate(-332.68 -199.26)"/><path class="cls-6" d="M1525,760.84a36.75,36.75,0,0,1,6-.45c3.1,0,5.21.51,6.65,1.73a5.43,5.43,0,0,1,1.86,4.32,5.74,5.74,0,0,1-3.91,5.4v.1c1.54.58,2.47,2.08,3,4.16a42.69,42.69,0,0,0,1.7,6h-4.07a30.66,30.66,0,0,1-1.44-5.09c-.6-2.82-1.63-3.71-3.87-3.78h-2v8.87H1525Zm3.9,9.53h2.33c2.66,0,4.32-1.41,4.32-3.55,0-2.37-1.66-3.46-4.22-3.46a10.81,10.81,0,0,0-2.43.2Z" transform="translate(-332.68 -199.26)"/><path class="cls-6" d="M1549.74,778.05a10.28,10.28,0,0,0,4.74,1.28c3,0,4.22-1.69,4.19-3.33,0-2.46-2.31-3.52-4.71-3.52h-1.82V769.6h1.76c1.82,0,4.13-.83,4.13-2.91,0-1.41-1.06-2.59-3.33-2.59a8.45,8.45,0,0,0-4.26,1.31l-.89-2.85a11.24,11.24,0,0,1,6-1.6c4.29,0,6.5,2.37,6.5,5.09,0,2.18-1.28,4-3.84,4.87V771a5.25,5.25,0,0,1,4.57,5.18c0,3.52-2.94,6.31-8.09,6.31a11.43,11.43,0,0,1-5.83-1.44Z" transform="translate(-332.68 -199.26)"/></g><g class="cls-5"><path class="cls-6" d="M1679.59,772.55h-8.13v6.33h9.09v3.24h-13V760.55h12.55v3.23h-8.61v5.57h8.13Z" transform="translate(-332.68 -199.26)"/><path class="cls-6" d="M1684,760.84a36.75,36.75,0,0,1,6-.45c3.1,0,5.21.51,6.65,1.73a5.43,5.43,0,0,1,1.86,4.32,5.74,5.74,0,0,1-3.91,5.4v.1c1.54.58,2.47,2.08,3,4.16a42.69,42.69,0,0,0,1.7,6h-4.07a30.66,30.66,0,0,1-1.44-5.09c-.6-2.82-1.63-3.71-3.87-3.78h-2v8.87H1684Zm3.9,9.53h2.33c2.66,0,4.32-1.41,4.32-3.55,0-2.37-1.66-3.46-4.22-3.46a10.81,10.81,0,0,0-2.43.2Z" transform="translate(-332.68 -199.26)"/><path class="cls-6" d="M1716.61,782.12v-5.28h-9.41v-2.56l8.48-13h4.64v12.54H1723v3h-2.69v5.28Zm0-8.26V768.2c0-1.19,0-2.4.13-3.62h-.13c-.64,1.31-1.18,2.37-1.82,3.52l-3.81,5.7,0,.06Z" transform="translate(-332.68 -199.26)"/></g><g class="cls-5"><path class="cls-6" d="M1922.59,772.55h-8.13v6.33h9.09v3.24h-13V760.55h12.55v3.23h-8.61v5.57h8.13Z" transform="translate(-332.68 -199.26)"/><path class="cls-6" d="M1927,760.84a36.75,36.75,0,0,1,6-.45c3.1,0,5.21.51,6.65,1.73a5.43,5.43,0,0,1,1.86,4.32,5.74,5.74,0,0,1-3.91,5.4v.1c1.54.58,2.47,2.08,3,4.16a42.69,42.69,0,0,0,1.7,6h-4.07a30.66,30.66,0,0,1-1.44-5.09c-.6-2.82-1.63-3.71-3.87-3.78h-2v8.87H1927Zm3.9,9.53h2.33c2.66,0,4.32-1.41,4.32-3.55,0-2.37-1.66-3.46-4.22-3.46a10.81,10.81,0,0,0-2.43.2Z" transform="translate(-332.68 -199.26)"/><path class="cls-6" d="M1964.15,764.58h-8l-.61,4.16a11,11,0,0,1,1.5-.1,9.26,9.26,0,0,1,5.06,1.35,6,6,0,0,1,2.72,5.28c0,4-3.3,7.2-8.42,7.2a11.93,11.93,0,0,1-5.5-1.22l.8-3a10.52,10.52,0,0,0,4.57,1.08c2.31,0,4.52-1.31,4.52-3.8s-1.76-3.94-5.92-3.94a17.83,17.83,0,0,0-2.85.19l1.37-10.49h10.75Z" transform="translate(-332.68 -199.26)"/></g><path class="cls-9" d="M1052.43,1079.19H859.76a20.26,20.26,0,0,1-20.26-20.26v-56.41a20.26,20.26,0,0,1,20.26-20.26h192.67Z" transform="translate(-332.68 -199.26)"/><rect class="cls-10" x="702.35" y="783" width="232.93" height="96.94"/><path class="cls-12" d="M1793.17,1079.19H1486.5V982.26h306.67a20.26,20.26,0,0,1,20.26,20.26v56.41A20.26,20.26,0,0,1,1793.17,1079.19Z" transform="translate(-332.68 -199.26)"/><rect class="cls-10" x="922.45" y="783" width="242.93" height="96.94"/><rect class="cls-13" x="506.82" y="783" width="974.25" height="96.94" rx="20.26"/><g class="cls-8"><path class="cls-6" d="M876.46,1020.55v8.64h9.12v-8.64h3.94v21.57h-3.94v-9.51h-9.12v9.51h-3.93v-21.57Z" transform="translate(-332.68 -199.26)"/><path class="cls-6" d="M896.65,1035.43c.1,2.81,2.31,4,4.8,4a11.85,11.85,0,0,0,4.32-.7l.58,2.72a14.78,14.78,0,0,1-5.44,1c-5.06,0-8-3.11-8-7.88,0-4.32,2.62-8.38,7.61-8.38s6.72,4.16,6.72,7.58a9.09,9.09,0,0,1-.13,1.67Zm6.85-2.75c0-1.44-.61-3.81-3.23-3.81-2.43,0-3.46,2.21-3.62,3.81Z" transform="translate(-332.68 -199.26)"/><path class="cls-6" d="M919.15,1042.12l-.26-1.73h-.09a5.82,5.82,0,0,1-4.61,2.08,4.63,4.63,0,0,1-4.9-4.64c0-3.94,3.49-5.92,9.25-5.89v-.26c0-1-.42-2.72-3.17-2.72a8.2,8.2,0,0,0-4.19,1.16l-.77-2.56a11.15,11.15,0,0,1,5.63-1.38c5,0,6.44,3.17,6.44,6.56v5.63a25.12,25.12,0,0,0,.22,3.75Zm-.51-7.62c-2.79-.06-5.44.54-5.44,2.91a2.06,2.06,0,0,0,2.24,2.24,3.19,3.19,0,0,0,3.07-2.14,3.06,3.06,0,0,0,.13-.87Z" transform="translate(-332.68 -199.26)"/><path class="cls-6" d="M941,1019.4v18.33c0,1.6.07,3.33.13,4.39h-3.52l-.16-2.47h-.06a5.62,5.62,0,0,1-5.09,2.82c-3.71,0-6.66-3.17-6.66-8,0-5.22,3.24-8.32,7-8.32a5,5,0,0,1,4.38,2h.07v-8.83ZM937.07,1033a5.14,5.14,0,0,0-.1-1,3.45,3.45,0,0,0-3.39-2.78c-2.53,0-3.94,2.24-3.94,5.15s1.41,4.93,3.91,4.93a3.47,3.47,0,0,0,3.39-2.78,4.3,4.3,0,0,0,.13-1.16Z" transform="translate(-332.68 -199.26)"/><path class="cls-6" d="M948,1035.43c.1,2.81,2.31,4,4.8,4a11.85,11.85,0,0,0,4.32-.7l.58,2.72a14.78,14.78,0,0,1-5.44,1c-5.06,0-8-3.11-8-7.88,0-4.32,2.62-8.38,7.61-8.38s6.72,4.16,6.72,7.58a9.09,9.09,0,0,1-.13,1.67Zm6.85-2.75c0-1.44-.61-3.81-3.23-3.81-2.43,0-3.46,2.21-3.62,3.81Z" transform="translate(-332.68 -199.26)"/><path class="cls-6" d="M961.74,1031.56c0-2.12,0-3.62-.13-5H965l.12,3h.13a4.65,4.65,0,0,1,4.26-3.33,3.84,3.84,0,0,1,.93.1V1030a5.17,5.17,0,0,0-1.16-.13,3.49,3.49,0,0,0-3.52,3,7.07,7.07,0,0,0-.12,1.21v8.07h-3.94Z" transform="translate(-332.68 -199.26)"/></g><g class="cls-8"><path class="cls-6" d="M1084,1024.78a13.83,13.83,0,0,1-5.57,1c-6.85,0-11-4.29-11-10.85,0-7.11,4.92-11.39,11.51-11.39a12.31,12.31,0,0,1,5.25,1l-.86,3.13a10.47,10.47,0,0,0-4.23-.83c-4.38,0-7.55,2.75-7.55,7.94,0,4.73,2.79,7.77,7.52,7.77a11,11,0,0,0,4.29-.8Z" transform="translate(-332.68 -199.26)"/><path class="cls-6" d="M1101.48,1017.48c0,5.73-4,8.29-8,8.29-4.41,0-7.8-3-7.8-8s3.36-8.26,8.06-8.26S1101.48,1012.74,1101.48,1017.48Zm-11.74.16c0,3,1.47,5.28,3.87,5.28,2.24,0,3.81-2.21,3.81-5.34,0-2.44-1.09-5.22-3.78-5.22S1089.74,1015.05,1089.74,1017.64Z" transform="translate(-332.68 -199.26)"/><path class="cls-6" d="M1104.72,1014.47c0-1.79,0-3.29-.13-4.64H1108l.16,2.31h.1a5.37,5.37,0,0,1,4.8-2.66,4.51,4.51,0,0,1,4.32,2.88h.06a5.87,5.87,0,0,1,1.92-2,5.2,5.2,0,0,1,3.14-.93c2.59,0,5.21,1.76,5.21,6.75v9.18h-3.84v-8.6c0-2.59-.89-4.13-2.78-4.13a3,3,0,0,0-2.75,2.08,5.37,5.37,0,0,0-.2,1.31v9.34h-3.84v-9c0-2.17-.86-3.71-2.68-3.71a3.07,3.07,0,0,0-2.82,2.24,3.35,3.35,0,0,0-.22,1.28v9.21h-3.84Z" transform="translate(-332.68 -199.26)"/><path class="cls-6" d="M1131.85,1014.47c0-1.79,0-3.29-.13-4.64h3.4l.16,2.31h.09a5.39,5.39,0,0,1,4.8-2.66,4.49,4.49,0,0,1,4.32,2.88h.07a5.87,5.87,0,0,1,1.92-2,5.16,5.16,0,0,1,3.13-.93c2.59,0,5.22,1.76,5.22,6.75v9.18H1151v-8.6c0-2.59-.9-4.13-2.79-4.13a3,3,0,0,0-2.75,2.08,5.91,5.91,0,0,0-.19,1.31v9.34h-3.84v-9c0-2.17-.86-3.71-2.69-3.71a3.06,3.06,0,0,0-2.81,2.24,3.35,3.35,0,0,0-.23,1.28v9.21h-3.84Z" transform="translate(-332.68 -199.26)"/><path class="cls-6" d="M1173.8,1017.48c0,5.73-4,8.29-8,8.29-4.41,0-7.8-3-7.8-8s3.36-8.26,8.06-8.26S1173.8,1012.74,1173.8,1017.48Zm-11.74.16c0,3,1.47,5.28,3.87,5.28,2.24,0,3.81-2.21,3.81-5.34,0-2.44-1.09-5.22-3.78-5.22S1162.06,1015.05,1162.06,1017.64Z" transform="translate(-332.68 -199.26)"/><path class="cls-6" d="M1177,1014.47c0-1.79,0-3.29-.13-4.64h3.45l.2,2.34h.09a5.61,5.61,0,0,1,5-2.69c2.72,0,5.54,1.76,5.54,6.69v9.24h-3.94v-8.79c0-2.24-.83-3.94-3-3.94a3.32,3.32,0,0,0-3.08,2.3,4.32,4.32,0,0,0-.16,1.28v9.15h-4Z" transform="translate(-332.68 -199.26)"/><path class="cls-6" d="M1079.82,1058.34a11.45,11.45,0,0,1-4.42.8c-4.86,0-8-3.11-8-7.94,0-4.67,3.2-8.32,8.67-8.32a9.73,9.73,0,0,1,3.81.74l-.7,2.94a6.91,6.91,0,0,0-3-.61c-3,0-4.8,2.21-4.76,5.06,0,3.2,2.07,5,4.76,5a7.72,7.72,0,0,0,3.11-.61Z" transform="translate(-332.68 -199.26)"/><path class="cls-6" d="M1097.26,1050.88c0,5.73-4,8.29-8,8.29-4.41,0-7.81-3-7.81-8s3.36-8.26,8.07-8.26S1097.26,1046.14,1097.26,1050.88Zm-11.74.16c0,3,1.47,5.28,3.87,5.28,2.24,0,3.81-2.21,3.81-5.34,0-2.44-1.09-5.22-3.78-5.22S1085.52,1048.45,1085.52,1051Z" transform="translate(-332.68 -199.26)"/><path class="cls-6" d="M1100.49,1047.87c0-1.79,0-3.29-.12-4.64h3.45l.19,2.34h.1a5.61,5.61,0,0,1,5-2.69c2.72,0,5.53,1.76,5.53,6.69v9.25h-3.93V1050c0-2.24-.83-3.94-3-3.94a3.3,3.3,0,0,0-3.07,2.3,4,4,0,0,0-.16,1.28v9.16h-4Z" transform="translate(-332.68 -199.26)"/><path class="cls-6" d="M1123.15,1038.79v4.44h3.74v3h-3.74v6.88c0,1.88.51,2.88,2,2.88a5.57,5.57,0,0,0,1.54-.2l.06,3a8.41,8.41,0,0,1-2.84.39,4.58,4.58,0,0,1-3.4-1.28c-.83-.9-1.21-2.31-1.21-4.36v-7.32h-2.24v-3h2.24v-3.52Z" transform="translate(-332.68 -199.26)"/><path class="cls-6" d="M1132.46,1052.13c.1,2.81,2.31,4,4.8,4a11.89,11.89,0,0,0,4.32-.7l.58,2.72a14.78,14.78,0,0,1-5.44,1c-5.06,0-8-3.11-8-7.88,0-4.32,2.62-8.38,7.61-8.38s6.72,4.16,6.72,7.58a9.09,9.09,0,0,1-.13,1.67Zm6.85-2.75c0-1.44-.61-3.81-3.23-3.81-2.44,0-3.46,2.21-3.62,3.81Z" transform="translate(-332.68 -199.26)"/><path class="cls-6" d="M1148.56,1043.23l1.85,3c.51.83,1,1.6,1.41,2.4h.1c.44-.87.89-1.67,1.34-2.47l1.73-2.88h4.29l-5.22,7.49,5.31,8.1h-4.45l-1.92-3.11c-.51-.83-1-1.66-1.4-2.53h-.07c-.45.9-.89,1.67-1.41,2.53l-1.79,3.11H1144l5.41-7.94-5.22-7.65Z" transform="translate(-332.68 -199.26)"/><path class="cls-6" d="M1166.67,1038.79v4.44h3.74v3h-3.74v6.88c0,1.88.51,2.88,2,2.88a5.57,5.57,0,0,0,1.54-.2l.06,3a8.41,8.41,0,0,1-2.84.39,4.58,4.58,0,0,1-3.4-1.28c-.83-.9-1.21-2.31-1.21-4.36v-7.32h-2.24v-3h2.24v-3.52Z" transform="translate(-332.68 -199.26)"/></g><g class="cls-8"><path class="cls-6" d="M1288.43,1021.13a11,11,0,0,0,5.21,1.37c2.53,0,3.94-1.18,3.94-2.94s-1.09-2.59-3.84-3.58c-3.55-1.28-5.82-3.17-5.82-6.28,0-3.52,2.94-6.2,7.61-6.2a11.5,11.5,0,0,1,5.19,1.08l-1,3.17a9.25,9.25,0,0,0-4.29-1c-2.5,0-3.58,1.34-3.58,2.59,0,1.66,1.24,2.43,4.12,3.55,3.75,1.41,5.57,3.3,5.57,6.4,0,3.46-2.62,6.47-8.19,6.47a12.91,12.91,0,0,1-5.83-1.35Z" transform="translate(-332.68 -199.26)"/><path class="cls-6" d="M1305,1015c0-2-.06-3.72-.12-5.19h3.45l.19,2.4h.07a6.06,6.06,0,0,1,5.34-2.75c3.58,0,6.56,3.07,6.56,7.94,0,5.63-3.55,8.35-7.1,8.35a5.12,5.12,0,0,1-4.39-2.08h-.06v8.06H1305Zm3.94,3.87a4,4,0,0,0,.13,1.09,3.55,3.55,0,0,0,3.45,2.75c2.5,0,4-2.08,4-5.15,0-2.76-1.34-5-3.87-5a3.67,3.67,0,0,0-3.52,2.92,3.41,3.41,0,0,0-.16,1Z" transform="translate(-332.68 -199.26)"/><path class="cls-6" d="M1326.48,1018.73c.09,2.81,2.3,4,4.8,4a11.93,11.93,0,0,0,4.32-.7l.57,2.72a14.74,14.74,0,0,1-5.44,1c-5,0-8-3.11-8-7.88,0-4.32,2.62-8.38,7.62-8.38s6.72,4.16,6.72,7.58a10.09,10.09,0,0,1-.13,1.67Zm6.84-2.75c0-1.44-.6-3.81-3.23-3.81-2.43,0-3.45,2.21-3.61,3.81Z" transform="translate(-332.68 -199.26)"/><path class="cls-6" d="M1351.66,1024.94a11.45,11.45,0,0,1-4.42.8c-4.86,0-8-3.11-8-7.94,0-4.67,3.2-8.32,8.67-8.32a9.73,9.73,0,0,1,3.81.74l-.7,2.94a6.91,6.91,0,0,0-3-.61c-3,0-4.8,2.21-4.77,5.06,0,3.2,2.08,5,4.77,5a7.72,7.72,0,0,0,3.11-.61Z" transform="translate(-332.68 -199.26)"/><path class="cls-6" d="M1358.76,1005.48a2.21,2.21,0,1,1-2.2-2.14A2.08,2.08,0,0,1,1358.76,1005.48Zm-4.19,19.93v-15.58h4v15.58Z" transform="translate(-332.68 -199.26)"/><path class="cls-6" d="M1363.21,1025.41v-12.63h-2.11v-2.95h2.11v-.73c0-4.2,2.91-6.76,7.55-6.76a9.18,9.18,0,0,1,4.29,1l-.86,3a7.27,7.27,0,0,0-3.43-.83c-2.75,0-3.64,1.66-3.64,3.71v.64h9.31v15.58h-4v-12.63h-5.31v12.63Z" transform="translate(-332.68 -199.26)"/><path class="cls-6" d="M1392.11,1024.94a11.53,11.53,0,0,1-4.42.8c-4.86,0-8-3.11-8-7.94,0-4.67,3.2-8.32,8.67-8.32a9.77,9.77,0,0,1,3.81.74l-.71,2.94a6.86,6.86,0,0,0-3-.61c-3,0-4.8,2.21-4.77,5.06,0,3.2,2.08,5,4.77,5a7.67,7.67,0,0,0,3.1-.61Z" transform="translate(-332.68 -199.26)"/><path class="cls-6" d="M1299.82,1058.34a11.45,11.45,0,0,1-4.42.8c-4.86,0-8-3.11-8-7.94,0-4.67,3.2-8.32,8.67-8.32a9.73,9.73,0,0,1,3.81.74l-.7,2.94a6.91,6.91,0,0,0-3-.61c-3,0-4.8,2.21-4.77,5.06,0,3.2,2.08,5,4.77,5a7.72,7.72,0,0,0,3.11-.61Z" transform="translate(-332.68 -199.26)"/><path class="cls-6" d="M1317.26,1050.88c0,5.73-4,8.29-8,8.29-4.41,0-7.81-3-7.81-8s3.36-8.26,8.07-8.26S1317.26,1046.14,1317.26,1050.88Zm-11.74.16c0,3,1.47,5.28,3.87,5.28,2.24,0,3.81-2.21,3.81-5.34,0-2.44-1.09-5.22-3.78-5.22S1305.52,1048.45,1305.52,1051Z" transform="translate(-332.68 -199.26)"/><path class="cls-6" d="M1320.49,1047.87c0-1.79,0-3.29-.13-4.64h3.46l.19,2.34h.1a5.61,5.61,0,0,1,5-2.69c2.72,0,5.53,1.76,5.53,6.69v9.25h-3.93V1050c0-2.24-.83-3.94-3-3.94a3.3,3.3,0,0,0-3.07,2.3,4,4,0,0,0-.16,1.28v9.16h-4Z" transform="translate(-332.68 -199.26)"/><path class="cls-6" d="M1343.15,1038.79v4.44h3.74v3h-3.74v6.88c0,1.88.51,2.88,2,2.88a5.57,5.57,0,0,0,1.54-.2l.06,3a8.41,8.41,0,0,1-2.84.39,4.58,4.58,0,0,1-3.4-1.28c-.83-.9-1.21-2.31-1.21-4.36v-7.32h-2.24v-3h2.24v-3.52Z" transform="translate(-332.68 -199.26)"/><path class="cls-6" d="M1352.46,1052.13c.1,2.81,2.31,4,4.8,4a11.89,11.89,0,0,0,4.32-.7l.58,2.72a14.78,14.78,0,0,1-5.44,1c-5.06,0-8-3.11-8-7.88,0-4.32,2.63-8.38,7.62-8.38s6.72,4.16,6.72,7.58a9.09,9.09,0,0,1-.13,1.67Zm6.85-2.75c0-1.44-.61-3.81-3.23-3.81-2.44,0-3.46,2.21-3.62,3.81Z" transform="translate(-332.68 -199.26)"/><path class="cls-6" d="M1368.56,1043.23l1.85,3c.51.83,1,1.6,1.41,2.4h.1c.44-.87.89-1.67,1.34-2.47l1.73-2.88h4.29l-5.22,7.49,5.31,8.1h-4.45l-1.92-3.11c-.51-.83-1-1.66-1.4-2.53h-.07c-.45.9-.89,1.67-1.41,2.53l-1.79,3.11H1364l5.41-7.94-5.22-7.65Z" transform="translate(-332.68 -199.26)"/><path class="cls-6" d="M1386.67,1038.79v4.44h3.74v3h-3.74v6.88c0,1.88.51,2.88,2,2.88a5.57,5.57,0,0,0,1.54-.2l.06,3a8.41,8.41,0,0,1-2.84.39,4.58,4.58,0,0,1-3.4-1.28c-.83-.9-1.21-2.31-1.21-4.36v-7.32h-2.24v-3h2.24v-3.52Z" transform="translate(-332.68 -199.26)"/></g><g class="cls-8"><path class="cls-6" d="M1529.52,1020.84a33.82,33.82,0,0,1,6-.45c2.88,0,5,.61,6.37,1.76a6.08,6.08,0,0,1,2.11,4.77,6.52,6.52,0,0,1-1.86,4.89,9.49,9.49,0,0,1-6.81,2.31,11.65,11.65,0,0,1-1.92-.13v8.13h-3.91Zm3.91,10a7.84,7.84,0,0,0,1.92.16c2.94,0,4.73-1.44,4.73-4s-1.66-3.68-4.38-3.68a10.56,10.56,0,0,0-2.27.19Z" transform="translate(-332.68 -199.26)"/><path class="cls-6" d="M1555.35,1042.12l-.26-1.73H1555a5.82,5.82,0,0,1-4.61,2.08,4.63,4.63,0,0,1-4.9-4.64c0-3.94,3.49-5.92,9.25-5.89v-.26c0-1-.42-2.72-3.17-2.72a8.2,8.2,0,0,0-4.19,1.16l-.77-2.56a11.18,11.18,0,0,1,5.63-1.38c5,0,6.44,3.17,6.44,6.56v5.63a25.12,25.12,0,0,0,.22,3.75Zm-.51-7.62c-2.79-.06-5.44.54-5.44,2.91a2.06,2.06,0,0,0,2.24,2.24,3.19,3.19,0,0,0,3.07-2.14,3.06,3.06,0,0,0,.13-.87Z" transform="translate(-332.68 -199.26)"/><path class="cls-6" d="M1565,1026.53l2.82,8.35c.32,1,.64,2.15.86,3h.1c.25-.89.54-2,.83-3.07l2.43-8.32h4.22l-3.9,10.63c-2.14,5.82-3.58,8.41-5.44,10a7.9,7.9,0,0,1-4.13,2l-.89-3.33a6.68,6.68,0,0,0,2.3-1.09,6.82,6.82,0,0,0,2.14-2.46,1.63,1.63,0,0,0,.26-.71,1.7,1.7,0,0,0-.22-.77l-5.7-14.3Z" transform="translate(-332.68 -199.26)"/><path class="cls-6" d="M1578.52,1019.4h4v22.72h-4Z" transform="translate(-332.68 -199.26)"/><path class="cls-6" d="M1601.56,1034.18c0,5.73-4,8.29-8,8.29-4.42,0-7.81-3-7.81-8s3.36-8.26,8.06-8.26S1601.56,1029.44,1601.56,1034.18Zm-11.75.16c0,3,1.47,5.28,3.87,5.28,2.24,0,3.81-2.21,3.81-5.34,0-2.44-1.09-5.22-3.77-5.22S1589.81,1031.75,1589.81,1034.34Z" transform="translate(-332.68 -199.26)"/><path class="cls-6" d="M1613.56,1042.12l-.26-1.73h-.1a5.8,5.8,0,0,1-4.6,2.08,4.63,4.63,0,0,1-4.9-4.64c0-3.94,3.49-5.92,9.25-5.89v-.26c0-1-.42-2.72-3.17-2.72a8.14,8.14,0,0,0-4.19,1.16l-.77-2.56a11.15,11.15,0,0,1,5.63-1.38c5,0,6.43,3.17,6.43,6.56v5.63a25,25,0,0,0,.23,3.75Zm-.52-7.62c-2.78-.06-5.44.54-5.44,2.91a2.07,2.07,0,0,0,2.24,2.24,3.2,3.2,0,0,0,3.08-2.14,3,3,0,0,0,.12-.87Z" transform="translate(-332.68 -199.26)"/><path class="cls-6" d="M1635.41,1019.4v18.33c0,1.6.06,3.33.13,4.39H1632l-.16-2.47h-.06a5.62,5.62,0,0,1-5.09,2.82c-3.71,0-6.66-3.17-6.66-8,0-5.22,3.23-8.32,7-8.32a5,5,0,0,1,4.38,2h.06v-8.83Zm-3.94,13.63a6,6,0,0,0-.09-1,3.45,3.45,0,0,0-3.39-2.78c-2.53,0-3.94,2.24-3.94,5.15s1.41,4.93,3.91,4.93a3.48,3.48,0,0,0,3.39-2.78,4.75,4.75,0,0,0,.12-1.16Z" transform="translate(-332.68 -199.26)"/></g><path class="cls-14" d="M394.68,760.84a33.73,33.73,0,0,1,6-.45c2.88,0,5,.61,6.37,1.76a6.08,6.08,0,0,1,2.11,4.77,6.52,6.52,0,0,1-1.86,4.89,9.49,9.49,0,0,1-6.81,2.31,11.65,11.65,0,0,1-1.92-.13v8.13h-3.91Zm3.91,10a7.84,7.84,0,0,0,1.92.16c2.94,0,4.73-1.44,4.73-4s-1.66-3.68-4.38-3.68a10.56,10.56,0,0,0-2.27.19Z" transform="translate(-332.68 -199.26)"/><path class="cls-14" d="M420.51,782.12l-.26-1.73h-.09a5.82,5.82,0,0,1-4.61,2.08,4.63,4.63,0,0,1-4.9-4.64c0-3.94,3.49-5.92,9.25-5.89v-.26c0-1-.42-2.72-3.17-2.72a8.2,8.2,0,0,0-4.19,1.16l-.77-2.56a11.15,11.15,0,0,1,5.63-1.38c5,0,6.44,3.17,6.44,6.56v5.63a25.12,25.12,0,0,0,.22,3.75ZM420,774.5c-2.79-.06-5.44.54-5.44,2.91a2.06,2.06,0,0,0,2.24,2.24,3.19,3.19,0,0,0,3.07-2.14,3.06,3.06,0,0,0,.13-.87Z" transform="translate(-332.68 -199.26)"/><path class="cls-14" d="M439.45,781.64a11.43,11.43,0,0,1-4.41.8c-4.87,0-8-3.11-8-7.94,0-4.67,3.2-8.32,8.68-8.32a9.68,9.68,0,0,1,3.8.74l-.7,2.94a6.91,6.91,0,0,0-3-.61c-3,0-4.8,2.21-4.76,5.06,0,3.2,2.08,5,4.76,5a7.72,7.72,0,0,0,3.11-.61Z" transform="translate(-332.68 -199.26)"/><path class="cls-14" d="M446.3,773.38h.06c.39-.61.84-1.28,1.25-1.82l3.78-5h4.73l-5.76,6.37,6.59,9.22h-4.83l-4.48-6.88-1.34,1.56v5.32h-3.94V759.4h3.94Z" transform="translate(-332.68 -199.26)"/><path class="cls-14" d="M461.21,775.43c.1,2.81,2.31,4,4.8,4a11.89,11.89,0,0,0,4.32-.7l.58,2.72a14.78,14.78,0,0,1-5.44,1c-5.06,0-8-3.11-8-7.88,0-4.32,2.62-8.38,7.61-8.38s6.72,4.16,6.72,7.58a9.09,9.09,0,0,1-.13,1.67Zm6.85-2.75c0-1.44-.61-3.81-3.23-3.81-2.43,0-3.46,2.21-3.62,3.81Z" transform="translate(-332.68 -199.26)"/><path class="cls-14" d="M479.45,762.08v4.45h3.74v3h-3.74v6.88c0,1.88.51,2.88,2,2.88A5.55,5.55,0,0,0,483,779l.07,3a8.48,8.48,0,0,1-2.85.39,4.58,4.58,0,0,1-3.39-1.28c-.83-.9-1.22-2.31-1.22-4.36v-7.32h-2.24v-3h2.24V763Z" transform="translate(-332.68 -199.26)"/><path class="cls-15" d="M648.06,1032.55h-8.13v6.33H649v3.24H636v-21.57h12.54v3.23h-8.61v5.57h8.13Z" transform="translate(-332.68 -199.26)"/><path class="cls-15" d="M654.49,1026.53l2.53,7.91c.45,1.37.77,2.62,1.06,3.9h.09c.29-1.28.64-2.5,1.06-3.9l2.46-7.91h4.16l-6,15.59H656l-5.79-15.59Z" transform="translate(-332.68 -199.26)"/><path class="cls-15" d="M670.62,1035.43c.1,2.81,2.31,4,4.8,4a11.85,11.85,0,0,0,4.32-.7l.58,2.72a14.78,14.78,0,0,1-5.44,1c-5.06,0-8-3.11-8-7.88,0-4.32,2.62-8.38,7.61-8.38s6.72,4.16,6.72,7.58a9.09,9.09,0,0,1-.13,1.67Zm6.85-2.75c0-1.44-.61-3.81-3.23-3.81-2.43,0-3.46,2.21-3.62,3.81Z" transform="translate(-332.68 -199.26)"/><path class="cls-15" d="M684.35,1031.17c0-1.79,0-3.29-.13-4.64h3.46l.19,2.34h.1a5.6,5.6,0,0,1,5-2.69c2.72,0,5.53,1.76,5.53,6.69v9.25h-3.93v-8.8c0-2.24-.84-3.94-3-3.94a3.29,3.29,0,0,0-3.07,2.3,4,4,0,0,0-.16,1.28v9.16h-4Z" transform="translate(-332.68 -199.26)"/><path class="cls-15" d="M707,1022.08v4.45h3.74v3H707v6.88c0,1.88.51,2.88,2,2.88a5.63,5.63,0,0,0,1.54-.2l.06,3a8.44,8.44,0,0,1-2.85.39,4.6,4.6,0,0,1-3.39-1.28c-.83-.9-1.21-2.31-1.21-4.36v-7.32h-2.24v-3h2.24V1023Z" transform="translate(-332.68 -199.26)"/><path class="cls-15" d="M720.35,1031.56c0-2.12,0-3.62-.13-5h3.43l.12,3h.13a4.65,4.65,0,0,1,4.26-3.33,3.71,3.71,0,0,1,.92.1V1030a5,5,0,0,0-1.15-.13,3.49,3.49,0,0,0-3.52,3,7.07,7.07,0,0,0-.12,1.21v8.07h-3.94Z" transform="translate(-332.68 -199.26)"/><path class="cls-15" d="M734.24,1035.43c.09,2.81,2.3,4,4.8,4a11.93,11.93,0,0,0,4.32-.7l.57,2.72a14.74,14.74,0,0,1-5.44,1c-5,0-8-3.11-8-7.88,0-4.32,2.63-8.38,7.62-8.38s6.72,4.16,6.72,7.58a10.09,10.09,0,0,1-.13,1.67Zm6.84-2.75c0-1.44-.6-3.81-3.23-3.81-2.43,0-3.45,2.21-3.61,3.81Z" transform="translate(-332.68 -199.26)"/><path class="cls-15" d="M759.42,1041.64a11.45,11.45,0,0,1-4.42.8c-4.86,0-8-3.11-8-7.94,0-4.67,3.2-8.32,8.67-8.32a9.73,9.73,0,0,1,3.81.74l-.7,2.94a6.91,6.91,0,0,0-3-.61c-3,0-4.8,2.21-4.76,5.06,0,3.2,2.07,5,4.76,5a7.72,7.72,0,0,0,3.11-.61Z" transform="translate(-332.68 -199.26)"/><path class="cls-15" d="M776.86,1034.18c0,5.73-4,8.29-8,8.29-4.41,0-7.81-3-7.81-8s3.36-8.26,8.07-8.26S776.86,1029.44,776.86,1034.18Zm-11.74.16c0,3,1.47,5.28,3.87,5.28,2.24,0,3.81-2.21,3.81-5.34,0-2.44-1.09-5.22-3.78-5.22S765.12,1031.75,765.12,1034.34Z" transform="translate(-332.68 -199.26)"/><path class="cls-15" d="M780.09,1031.56c0-2.12,0-3.62-.12-5h3.42l.13,3h.12a4.66,4.66,0,0,1,4.26-3.33,3.84,3.84,0,0,1,.93.1V1030a5.07,5.07,0,0,0-1.15-.13,3.47,3.47,0,0,0-3.52,3,6.14,6.14,0,0,0-.13,1.21v8.07h-3.94Z" transform="translate(-332.68 -199.26)"/><path class="cls-15" d="M805.56,1019.4v18.33c0,1.6.07,3.33.13,4.39h-3.52l-.16-2.47H802a5.62,5.62,0,0,1-5.09,2.82c-3.71,0-6.65-3.17-6.65-8,0-5.22,3.23-8.32,7-8.32a5,5,0,0,1,4.38,2h.07v-8.83ZM801.63,1033a5.14,5.14,0,0,0-.1-1,3.45,3.45,0,0,0-3.39-2.78c-2.53,0-3.94,2.24-3.94,5.15s1.41,4.93,3.91,4.93a3.47,3.47,0,0,0,3.39-2.78,4.3,4.3,0,0,0,.13-1.16Z" transform="translate(-332.68 -199.26)"/></svg>