<svg id="Layer_1" data-name="Layer 1" xmlns="http://www.w3.org/2000/svg" viewBox="0 0 576.19 494.24"><defs><style>.cls-1{fill:#f2f2f3;}.cls-15,.cls-2,.cls-4{fill:none;}.cls-15,.cls-2{stroke:#231f20;}.cls-12,.cls-15,.cls-2{stroke-miterlimit:10;}.cls-2{stroke-width:3px;stroke-dasharray:11.97 11.97;}.cls-3{opacity:0.75;}.cls-5{fill:#ffe2bd;}.cls-6{fill:#f8a794;}.cls-7{opacity:0.7;}.cls-8{fill:#f47859;}.cls-9{fill:#ffe9cc;}.cls-10{opacity:0.85;}.cls-11{fill:#231f20;}.cls-12{fill:#d1edf3;stroke:#89cbd3;stroke-width:1.81px;}.cls-13{fill:#c93f63;}.cls-14{opacity:0.5;}.cls-15{stroke-width:2px;}</style></defs><title>ctf-trace</title><rect class="cls-1" x="1.5" y="87.59" width="573.19" height="362.18" rx="29.85"/><rect class="cls-2" x="1.5" y="87.59" width="573.19" height="362.18" rx="29.85"/><g class="cls-3"><path class="cls-4" d="M685,325.57" transform="translate(-240.98 -216.06)"/></g><g class="cls-3"><path class="cls-4" d="M385.3,325.57" transform="translate(-240.98 -216.06)"/></g><g id="surface1"><path class="cls-5" d="M372.5,375.86h67.21V363.05a6.42,6.42,0,0,0-6.4-6.4H334.09v32a6.4,6.4,0,0,1-6.4,6.4H292.48V516.69a6.42,6.42,0,0,0,6.4,6.4h32V414.26Z" transform="translate(-240.98 -216.06)"/><path class="cls-6" d="M334.09,388.66v-32l-41.61,38.41h35.2A6.4,6.4,0,0,0,334.09,388.66Z" transform="translate(-240.98 -216.06)"/><g class="cls-7"><path class="cls-8" d="M323.64,418.94c0,4.23-1.66,6.88-4.79,6.88s-4.65-2.75-4.67-6.76,1.73-6.83,4.81-6.83S323.64,415.06,323.64,418.94Zm-7,.12c0,3.2.87,4.85,2.25,4.85s2.22-1.77,2.22-4.93-.73-4.85-2.22-4.85S316.66,415.77,316.68,419.06Z" transform="translate(-240.98 -216.06)"/><path class="cls-8" d="M329.1,414.7h-.05l-2.4,1.21-.43-1.88,3.2-1.58h2.08v13.14h-2.4Z" transform="translate(-240.98 -216.06)"/><path class="cls-8" d="M339.93,414.7h0l-2.4,1.21-.43-1.88,3.2-1.58h2.08v13.14h-2.41Z" transform="translate(-240.98 -216.06)"/><path class="cls-8" d="M356.15,418.94c0,4.23-1.66,6.88-4.8,6.88s-4.65-2.75-4.67-6.76,1.74-6.83,4.82-6.83S356.15,415.06,356.15,418.94Zm-7,.12c0,3.2.87,4.85,2.24,4.85s2.23-1.77,2.23-4.93-.73-4.85-2.23-4.85C350.1,414.13,349.17,415.77,349.19,419.06Z" transform="translate(-240.98 -216.06)"/><path class="cls-8" d="M361.6,414.7h0l-2.4,1.21-.43-1.88,3.2-1.58H364v13.14H361.6Z" transform="translate(-240.98 -216.06)"/><path class="cls-8" d="M377.82,418.94c0,4.23-1.66,6.88-4.79,6.88s-4.65-2.75-4.67-6.76,1.73-6.83,4.81-6.83S377.82,415.06,377.82,418.94Zm-7,.12c0,3.2.87,4.85,2.25,4.85s2.22-1.77,2.22-4.93-.73-4.85-2.22-4.85S370.84,415.77,370.86,419.06Z" transform="translate(-240.98 -216.06)"/><path class="cls-8" d="M388.65,418.94c0,4.23-1.65,6.88-4.79,6.88s-4.65-2.75-4.67-6.76,1.74-6.83,4.81-6.83S388.65,415.06,388.65,418.94Zm-6.95.12c0,3.2.87,4.85,2.24,4.85s2.23-1.77,2.23-4.93-.73-4.85-2.23-4.85C382.61,414.13,381.68,415.77,381.7,419.06Z" transform="translate(-240.98 -216.06)"/><path class="cls-8" d="M399.49,418.94c0,4.23-1.66,6.88-4.79,6.88s-4.65-2.75-4.67-6.76,1.74-6.83,4.81-6.83S399.49,415.06,399.49,418.94Zm-6.95.12c0,3.2.86,4.85,2.24,4.85S397,422.14,397,419s-.72-4.85-2.22-4.85C393.45,414.13,392.51,415.77,392.54,419.06Z" transform="translate(-240.98 -216.06)"/><path class="cls-8" d="M405,414.7h0l-2.41,1.21-.42-1.88,3.19-1.58h2.08v13.14H405Z" transform="translate(-240.98 -216.06)"/><path class="cls-8" d="M415.78,414.7h0l-2.4,1.21-.43-1.88,3.2-1.58h2.08v13.14h-2.41Z" transform="translate(-240.98 -216.06)"/><path class="cls-8" d="M318.26,431h0l-2.41,1.21-.42-1.88,3.19-1.58h2.09v13.14h-2.41Z" transform="translate(-240.98 -216.06)"/><path class="cls-8" d="M334.47,435.2c0,4.23-1.66,6.88-4.79,6.88s-4.65-2.75-4.67-6.76,1.74-6.83,4.81-6.83S334.47,431.32,334.47,435.2Zm-7,.12c0,3.2.87,4.86,2.24,4.86s2.23-1.78,2.23-4.94-.73-4.85-2.23-4.85C328.43,430.39,327.5,432,327.52,435.32Z" transform="translate(-240.98 -216.06)"/><path class="cls-8" d="M345.31,435.2c0,4.23-1.66,6.88-4.79,6.88s-4.65-2.75-4.67-6.76,1.74-6.83,4.81-6.83S345.31,431.32,345.31,435.2Zm-7,.12c0,3.2.87,4.86,2.25,4.86s2.22-1.78,2.22-4.94-.72-4.85-2.22-4.85C339.26,430.39,338.33,432,338.35,435.32Z" transform="translate(-240.98 -216.06)"/><path class="cls-8" d="M350.77,431h0l-2.41,1.21-.42-1.88,3.19-1.58h2.08v13.14h-2.4Z" transform="translate(-240.98 -216.06)"/><path class="cls-8" d="M367,435.2c0,4.23-1.66,6.88-4.79,6.88s-4.65-2.75-4.67-6.76,1.74-6.83,4.81-6.83S367,431.32,367,435.2Zm-7,.12c0,3.2.87,4.86,2.24,4.86s2.22-1.78,2.22-4.94-.72-4.85-2.22-4.85C360.94,430.39,360,432,360,435.32Z" transform="translate(-240.98 -216.06)"/><path class="cls-8" d="M372.44,431h0L370,432.17l-.42-1.88,3.19-1.58h2.09v13.14h-2.41Z" transform="translate(-240.98 -216.06)"/><path class="cls-8" d="M388.65,435.2c0,4.23-1.65,6.88-4.79,6.88s-4.65-2.75-4.67-6.76,1.74-6.83,4.81-6.83S388.65,431.32,388.65,435.2Zm-6.95.12c0,3.2.87,4.86,2.24,4.86s2.23-1.78,2.23-4.94-.73-4.85-2.23-4.85C382.61,430.39,381.68,432,381.7,435.32Z" transform="translate(-240.98 -216.06)"/><path class="cls-8" d="M394.11,431h0l-2.4,1.21-.43-1.88,3.2-1.58h2.08v13.14h-2.41Z" transform="translate(-240.98 -216.06)"/><path class="cls-8" d="M410.33,435.2c0,4.23-1.66,6.88-4.8,6.88s-4.64-2.75-4.67-6.76,1.74-6.83,4.82-6.83S410.33,431.32,410.33,435.2Zm-7,.12c0,3.2.87,4.86,2.25,4.86s2.22-1.78,2.22-4.94-.73-4.85-2.22-4.85S403.35,432,403.37,435.32Z" transform="translate(-240.98 -216.06)"/><path class="cls-8" d="M415.78,431h0l-2.4,1.21-.43-1.88,3.2-1.58h2.08v13.14h-2.41Z" transform="translate(-240.98 -216.06)"/><path class="cls-8" d="M323.64,451.46c0,4.23-1.66,6.88-4.79,6.88s-4.65-2.75-4.67-6.76,1.73-6.83,4.81-6.83S323.64,447.58,323.64,451.46Zm-7,.12c0,3.2.87,4.86,2.25,4.86s2.22-1.78,2.22-4.94-.73-4.85-2.22-4.85S316.66,448.29,316.68,451.58Z" transform="translate(-240.98 -216.06)"/><path class="cls-8" d="M334.47,451.46c0,4.23-1.66,6.88-4.79,6.88s-4.65-2.75-4.67-6.76,1.74-6.83,4.81-6.83S334.47,447.58,334.47,451.46Zm-7,.12c0,3.2.87,4.86,2.24,4.86s2.23-1.78,2.23-4.94-.73-4.85-2.23-4.85C328.43,446.65,327.5,448.29,327.52,451.58Z" transform="translate(-240.98 -216.06)"/><path class="cls-8" d="M339.93,447.22h0l-2.4,1.21-.43-1.88,3.2-1.58h2.08v13.14h-2.41Z" transform="translate(-240.98 -216.06)"/><path class="cls-8" d="M356.15,451.46c0,4.23-1.66,6.88-4.8,6.88s-4.65-2.75-4.67-6.76,1.74-6.83,4.82-6.83S356.15,447.58,356.15,451.46Zm-7,.12c0,3.2.87,4.86,2.24,4.86s2.23-1.78,2.23-4.94-.73-4.85-2.23-4.85C350.1,446.65,349.17,448.29,349.19,451.58Z" transform="translate(-240.98 -216.06)"/><path class="cls-8" d="M361.6,447.22h0l-2.4,1.21-.43-1.88,3.2-1.58H364v13.14H361.6Z" transform="translate(-240.98 -216.06)"/><path class="cls-8" d="M377.82,451.46c0,4.23-1.66,6.88-4.79,6.88s-4.65-2.75-4.67-6.76,1.73-6.83,4.81-6.83S377.82,447.58,377.82,451.46Zm-7,.12c0,3.2.87,4.86,2.25,4.86s2.22-1.78,2.22-4.94-.73-4.85-2.22-4.85S370.84,448.29,370.86,451.58Z" transform="translate(-240.98 -216.06)"/><path class="cls-8" d="M383.28,447.22h0l-2.41,1.21-.42-1.88L383.6,445h2.08v13.14h-2.4Z" transform="translate(-240.98 -216.06)"/><path class="cls-8" d="M399.49,451.46c0,4.23-1.66,6.88-4.79,6.88s-4.65-2.75-4.67-6.76,1.74-6.83,4.81-6.83S399.49,447.58,399.49,451.46Zm-6.95.12c0,3.2.86,4.86,2.24,4.86s2.22-1.78,2.22-4.94-.72-4.85-2.22-4.85C393.45,446.65,392.51,448.29,392.54,451.58Z" transform="translate(-240.98 -216.06)"/><path class="cls-8" d="M410.33,451.46c0,4.23-1.66,6.88-4.8,6.88s-4.64-2.75-4.67-6.76,1.74-6.83,4.82-6.83S410.33,447.58,410.33,451.46Zm-7,.12c0,3.2.87,4.86,2.25,4.86s2.22-1.78,2.22-4.94-.73-4.85-2.22-4.85S403.35,448.29,403.37,451.58Z" transform="translate(-240.98 -216.06)"/><path class="cls-8" d="M415.78,447.22h0l-2.4,1.21-.43-1.88,3.2-1.58h2.08v13.14h-2.41Z" transform="translate(-240.98 -216.06)"/><path class="cls-8" d="M318.26,463.48h0l-2.41,1.21-.42-1.88,3.19-1.58h2.09v13.14h-2.41Z" transform="translate(-240.98 -216.06)"/><path class="cls-8" d="M334.47,467.72c0,4.23-1.66,6.88-4.79,6.88s-4.65-2.75-4.67-6.76,1.74-6.83,4.81-6.83S334.47,463.84,334.47,467.72Zm-7,.12c0,3.2.87,4.86,2.24,4.86s2.23-1.78,2.23-4.94-.73-4.85-2.23-4.85C328.43,462.91,327.5,464.55,327.52,467.84Z" transform="translate(-240.98 -216.06)"/><path class="cls-8" d="M339.93,463.48h0l-2.4,1.21-.43-1.88,3.2-1.58h2.08v13.14h-2.41Z" transform="translate(-240.98 -216.06)"/><path class="cls-8" d="M356.15,467.72c0,4.23-1.66,6.88-4.8,6.88s-4.65-2.75-4.67-6.76,1.74-6.83,4.82-6.83S356.15,463.84,356.15,467.72Zm-7,.12c0,3.2.87,4.86,2.24,4.86s2.23-1.78,2.23-4.94-.73-4.85-2.23-4.85C350.1,462.91,349.17,464.55,349.19,467.84Z" transform="translate(-240.98 -216.06)"/><path class="cls-8" d="M367,467.72c0,4.23-1.66,6.88-4.79,6.88s-4.65-2.75-4.67-6.76,1.74-6.83,4.81-6.83S367,463.84,367,467.72Zm-7,.12c0,3.2.87,4.86,2.24,4.86s2.22-1.78,2.22-4.94-.72-4.85-2.22-4.85C360.94,462.91,360,464.55,360,467.84Z" transform="translate(-240.98 -216.06)"/><path class="cls-8" d="M372.44,463.48h0L370,464.69l-.42-1.88,3.19-1.58h2.09v13.14h-2.41Z" transform="translate(-240.98 -216.06)"/><path class="cls-8" d="M388.65,467.72c0,4.23-1.65,6.88-4.79,6.88s-4.65-2.75-4.67-6.76S380.93,461,384,461,388.65,463.84,388.65,467.72Zm-6.95.12c0,3.2.87,4.86,2.24,4.86s2.23-1.78,2.23-4.94-.73-4.85-2.23-4.85C382.61,462.91,381.68,464.55,381.7,467.84Z" transform="translate(-240.98 -216.06)"/><path class="cls-8" d="M399.49,467.72c0,4.23-1.66,6.88-4.79,6.88s-4.65-2.75-4.67-6.76,1.74-6.83,4.81-6.83S399.49,463.84,399.49,467.72Zm-6.95.12c0,3.2.86,4.86,2.24,4.86s2.22-1.78,2.22-4.94-.72-4.85-2.22-4.85C393.45,462.91,392.51,464.55,392.54,467.84Z" transform="translate(-240.98 -216.06)"/><path class="cls-8" d="M405,463.48h0l-2.41,1.21-.42-1.88,3.19-1.58h2.08v13.14H405Z" transform="translate(-240.98 -216.06)"/><path class="cls-8" d="M421.16,467.72c0,4.23-1.66,6.88-4.79,6.88s-4.65-2.75-4.67-6.76,1.74-6.83,4.81-6.83S421.16,463.84,421.16,467.72Zm-7,.12c0,3.2.87,4.86,2.24,4.86s2.23-1.78,2.23-4.94-.73-4.85-2.23-4.85C415.12,462.91,414.19,464.55,414.21,467.84Z" transform="translate(-240.98 -216.06)"/><path class="cls-8" d="M323.64,484c0,4.23-1.66,6.88-4.79,6.88s-4.65-2.75-4.67-6.76,1.73-6.83,4.81-6.83S323.64,480.1,323.64,484Zm-7,.12c0,3.2.87,4.86,2.25,4.86s2.22-1.78,2.22-4.94-.73-4.85-2.22-4.85S316.66,480.81,316.68,484.1Z" transform="translate(-240.98 -216.06)"/><path class="cls-8" d="M334.47,484c0,4.23-1.66,6.88-4.79,6.88S325,488.11,325,484.1s1.74-6.83,4.81-6.83S334.47,480.1,334.47,484Zm-7,.12c0,3.2.87,4.86,2.24,4.86S332,487.18,332,484s-.73-4.85-2.23-4.85C328.43,479.17,327.5,480.81,327.52,484.1Z" transform="translate(-240.98 -216.06)"/><path class="cls-8" d="M339.93,479.74h0l-2.4,1.21-.43-1.88,3.2-1.58h2.08v13.14h-2.41Z" transform="translate(-240.98 -216.06)"/><path class="cls-8" d="M350.77,479.74h0L348.32,481l-.42-1.88,3.19-1.58h2.08v13.14h-2.4Z" transform="translate(-240.98 -216.06)"/><path class="cls-8" d="M367,484c0,4.23-1.66,6.88-4.79,6.88s-4.65-2.75-4.67-6.76,1.74-6.83,4.81-6.83S367,480.1,367,484Zm-7,.12c0,3.2.87,4.86,2.24,4.86s2.22-1.78,2.22-4.94-.72-4.85-2.22-4.85C360.94,479.17,360,480.81,360,484.1Z" transform="translate(-240.98 -216.06)"/><path class="cls-8" d="M372.44,479.74h0L370,481l-.42-1.88,3.19-1.58h2.09v13.14h-2.41Z" transform="translate(-240.98 -216.06)"/><path class="cls-8" d="M383.28,479.74h0L380.83,481l-.42-1.88,3.19-1.58h2.08v13.14h-2.4Z" transform="translate(-240.98 -216.06)"/><path class="cls-8" d="M394.11,479.74h0l-2.4,1.21-.43-1.88,3.2-1.58h2.08v13.14h-2.41Z" transform="translate(-240.98 -216.06)"/><path class="cls-8" d="M410.33,484c0,4.23-1.66,6.88-4.8,6.88s-4.64-2.75-4.67-6.76,1.74-6.83,4.82-6.83S410.33,480.1,410.33,484Zm-7,.12c0,3.2.87,4.86,2.25,4.86s2.22-1.78,2.22-4.94-.73-4.85-2.22-4.85S403.35,480.81,403.37,484.1Z" transform="translate(-240.98 -216.06)"/><path class="cls-8" d="M415.78,479.74h0l-2.4,1.21-.43-1.88,3.2-1.58h2.08v13.14h-2.41Z" transform="translate(-240.98 -216.06)"/><path class="cls-8" d="M318.26,496h0l-2.41,1.21-.42-1.88,3.19-1.58h2.09v13.14h-2.41Z" transform="translate(-240.98 -216.06)"/><path class="cls-8" d="M329.1,496h-.05l-2.4,1.21-.43-1.88,3.2-1.58h2.08v13.14h-2.4Z" transform="translate(-240.98 -216.06)"/><path class="cls-8" d="M345.31,500.24c0,4.23-1.66,6.88-4.79,6.88s-4.65-2.75-4.67-6.76,1.74-6.83,4.81-6.83S345.31,496.36,345.31,500.24Zm-7,.12c0,3.2.87,4.86,2.25,4.86s2.22-1.78,2.22-4.94-.72-4.85-2.22-4.85C339.26,495.43,338.33,497.07,338.35,500.36Z" transform="translate(-240.98 -216.06)"/><path class="cls-8" d="M350.77,496h0l-2.41,1.21-.42-1.88,3.19-1.58h2.08v13.14h-2.4Z" transform="translate(-240.98 -216.06)"/><path class="cls-8" d="M367,500.24c0,4.23-1.66,6.88-4.79,6.88s-4.65-2.75-4.67-6.76,1.74-6.83,4.81-6.83S367,496.36,367,500.24Zm-7,.12c0,3.2.87,4.86,2.24,4.86s2.22-1.78,2.22-4.94-.72-4.85-2.22-4.85C360.94,495.43,360,497.07,360,500.36Z" transform="translate(-240.98 -216.06)"/><path class="cls-8" d="M377.82,500.24c0,4.23-1.66,6.88-4.79,6.88s-4.65-2.75-4.67-6.76,1.73-6.83,4.81-6.83S377.82,496.36,377.82,500.24Zm-7,.12c0,3.2.87,4.86,2.25,4.86s2.22-1.78,2.22-4.94-.73-4.85-2.22-4.85S370.84,497.07,370.86,500.36Z" transform="translate(-240.98 -216.06)"/><path class="cls-8" d="M383.28,496h0l-2.41,1.21-.42-1.88,3.19-1.58h2.08v13.14h-2.4Z" transform="translate(-240.98 -216.06)"/><path class="cls-8" d="M394.11,496h0l-2.4,1.21-.43-1.88,3.2-1.58h2.08v13.14h-2.41Z" transform="translate(-240.98 -216.06)"/><path class="cls-8" d="M410.33,500.24c0,4.23-1.66,6.88-4.8,6.88s-4.64-2.75-4.67-6.76,1.74-6.83,4.82-6.83S410.33,496.36,410.33,500.24Zm-7,.12c0,3.2.87,4.86,2.25,4.86s2.22-1.78,2.22-4.94-.73-4.85-2.22-4.85S403.35,497.07,403.37,500.36Z" transform="translate(-240.98 -216.06)"/><path class="cls-8" d="M415.78,496h0l-2.4,1.21-.43-1.88,3.2-1.58h2.08v13.14h-2.41Z" transform="translate(-240.98 -216.06)"/></g><path class="cls-9" d="M471.72,375.86H372.5v32a6.4,6.4,0,0,1-6.41,6.4h-35.2V535.89a6.42,6.42,0,0,0,6.4,6.4H471.72a6.42,6.42,0,0,0,6.4-6.4V382.26A6.42,6.42,0,0,0,471.72,375.86Z" transform="translate(-240.98 -216.06)"/><path class="cls-6" d="M366.09,414.26a6.4,6.4,0,0,0,6.41-6.4v-32l-41.61,38.4Z" transform="translate(-240.98 -216.06)"/><path class="cls-5" d="M372.5,542.29h99.22a6.4,6.4,0,0,0,6.4-6.4V443.36A160.38,160.38,0,0,1,372.5,542.29Z" transform="translate(-240.98 -216.06)"/><path class="cls-8" d="M362,439c0,4.23-1.66,6.87-4.79,6.87s-4.65-2.75-4.67-6.75,1.74-6.83,4.81-6.83S362,435.13,362,439Zm-7,.12c0,3.2.86,4.85,2.24,4.85s2.22-1.78,2.22-4.93-.72-4.85-2.22-4.85C356,434.2,355.07,435.83,355.09,439.13Z" transform="translate(-240.98 -216.06)"/><path class="cls-8" d="M367.5,434.76h0L365.05,436l-.42-1.88,3.19-1.58h2.09v13.14H367.5Z" transform="translate(-240.98 -216.06)"/><path class="cls-8" d="M378.34,434.76h0L375.89,436l-.43-1.88,3.2-1.58h2.08v13.14h-2.4Z" transform="translate(-240.98 -216.06)"/><path class="cls-8" d="M394.55,439c0,4.23-1.66,6.87-4.79,6.87s-4.65-2.75-4.67-6.75,1.74-6.83,4.81-6.83S394.55,435.13,394.55,439Zm-7,.12c0,3.2.87,4.85,2.25,4.85s2.22-1.78,2.22-4.93-.73-4.85-2.22-4.85C388.5,434.2,387.57,435.83,387.59,439.13Z" transform="translate(-240.98 -216.06)"/><path class="cls-8" d="M400,434.76h0L397.56,436l-.42-1.88,3.19-1.58h2.08v13.14H400Z" transform="translate(-240.98 -216.06)"/><path class="cls-8" d="M416.22,439c0,4.23-1.66,6.87-4.79,6.87s-4.65-2.75-4.67-6.75,1.74-6.83,4.81-6.83S416.22,435.13,416.22,439Zm-7,.12c0,3.2.87,4.85,2.24,4.85s2.22-1.78,2.22-4.93-.72-4.85-2.22-4.85C410.18,434.2,409.25,435.83,409.27,439.13Z" transform="translate(-240.98 -216.06)"/><path class="cls-8" d="M427.06,439c0,4.23-1.66,6.87-4.79,6.87s-4.65-2.75-4.67-6.75,1.73-6.83,4.81-6.83S427.06,435.13,427.06,439Zm-7,.12c0,3.2.87,4.85,2.25,4.85s2.22-1.78,2.22-4.93-.73-4.85-2.22-4.85S420.08,435.83,420.1,439.13Z" transform="translate(-240.98 -216.06)"/><path class="cls-8" d="M437.89,439c0,4.23-1.65,6.87-4.79,6.87s-4.65-2.75-4.67-6.75,1.74-6.83,4.81-6.83S437.89,435.13,437.89,439Zm-6.95.12c0,3.2.87,4.85,2.24,4.85s2.23-1.78,2.23-4.93-.73-4.85-2.23-4.85C431.85,434.2,430.92,435.83,430.94,439.13Z" transform="translate(-240.98 -216.06)"/><path class="cls-8" d="M443.35,434.76h0l-2.4,1.22-.43-1.88,3.2-1.58h2.08v13.14h-2.41Z" transform="translate(-240.98 -216.06)"/><path class="cls-8" d="M454.19,434.76h0L451.74,436l-.42-1.88,3.19-1.58h2.08v13.14h-2.4Z" transform="translate(-240.98 -216.06)"/><path class="cls-8" d="M356.66,451h0l-2.4,1.22-.43-1.88,3.2-1.58h2.08v13.14h-2.41Z" transform="translate(-240.98 -216.06)"/><path class="cls-8" d="M372.88,455.27c0,4.23-1.66,6.87-4.8,6.87s-4.64-2.75-4.67-6.75,1.74-6.83,4.82-6.83S372.88,451.39,372.88,455.27Zm-7,.12c0,3.2.87,4.85,2.25,4.85s2.22-1.78,2.22-4.93-.73-4.85-2.22-4.85S365.9,452.1,365.92,455.39Z" transform="translate(-240.98 -216.06)"/><path class="cls-8" d="M383.71,455.27c0,4.23-1.65,6.87-4.79,6.87s-4.65-2.75-4.67-6.75,1.74-6.83,4.81-6.83S383.71,451.39,383.71,455.27Zm-6.95.12c0,3.2.87,4.85,2.24,4.85s2.23-1.78,2.23-4.93-.73-4.85-2.23-4.85C377.67,450.46,376.74,452.1,376.76,455.39Z" transform="translate(-240.98 -216.06)"/><path class="cls-8" d="M389.17,451h0l-2.4,1.22-.43-1.88,3.19-1.58h2.09v13.14h-2.41Z" transform="translate(-240.98 -216.06)"/><path class="cls-8" d="M405.39,455.27c0,4.23-1.66,6.87-4.8,6.87s-4.65-2.75-4.67-6.75,1.74-6.83,4.82-6.83S405.39,451.39,405.39,455.27Zm-7,.12c0,3.2.87,4.85,2.24,4.85s2.23-1.78,2.23-4.93-.73-4.85-2.23-4.85C399.34,450.46,398.41,452.1,398.43,455.39Z" transform="translate(-240.98 -216.06)"/><path class="cls-8" d="M410.84,451h0l-2.4,1.22-.43-1.88,3.2-1.58h2.08v13.14h-2.41Z" transform="translate(-240.98 -216.06)"/><path class="cls-8" d="M427.06,455.27c0,4.23-1.66,6.87-4.79,6.87s-4.65-2.75-4.67-6.75,1.73-6.83,4.81-6.83S427.06,451.39,427.06,455.27Zm-7,.12c0,3.2.87,4.85,2.25,4.85s2.22-1.78,2.22-4.93-.73-4.85-2.22-4.85S420.08,452.1,420.1,455.39Z" transform="translate(-240.98 -216.06)"/><path class="cls-8" d="M432.52,451h0l-2.41,1.22-.42-1.88,3.19-1.58h2.08v13.14h-2.4Z" transform="translate(-240.98 -216.06)"/><path class="cls-8" d="M448.73,455.27c0,4.23-1.66,6.87-4.79,6.87s-4.65-2.75-4.67-6.75,1.74-6.83,4.81-6.83S448.73,451.39,448.73,455.27Zm-7,.12c0,3.2.86,4.85,2.24,4.85s2.22-1.78,2.22-4.93-.72-4.85-2.22-4.85C442.69,450.46,441.75,452.1,441.78,455.39Z" transform="translate(-240.98 -216.06)"/><path class="cls-8" d="M454.19,451h0l-2.41,1.22-.42-1.88,3.19-1.58h2.08v13.14h-2.4Z" transform="translate(-240.98 -216.06)"/><path class="cls-8" d="M362,471.53c0,4.23-1.66,6.87-4.79,6.87s-4.65-2.75-4.67-6.75,1.74-6.83,4.81-6.83S362,467.65,362,471.53Zm-7,.12c0,3.2.86,4.85,2.24,4.85s2.22-1.78,2.22-4.93-.72-4.85-2.22-4.85C356,466.72,355.07,468.36,355.09,471.65Z" transform="translate(-240.98 -216.06)"/><path class="cls-8" d="M372.88,471.53c0,4.23-1.66,6.87-4.8,6.87s-4.64-2.75-4.67-6.75,1.74-6.83,4.82-6.83S372.88,467.65,372.88,471.53Zm-7,.12c0,3.2.87,4.85,2.25,4.85s2.22-1.78,2.22-4.93-.73-4.85-2.22-4.85S365.9,468.36,365.92,471.65Z" transform="translate(-240.98 -216.06)"/><path class="cls-8" d="M378.34,467.28h0l-2.41,1.22-.43-1.88,3.2-1.58h2.08v13.14h-2.4Z" transform="translate(-240.98 -216.06)"/><path class="cls-8" d="M394.55,471.53c0,4.23-1.66,6.87-4.79,6.87s-4.65-2.75-4.67-6.75,1.74-6.83,4.81-6.83S394.55,467.65,394.55,471.53Zm-7,.12c0,3.2.87,4.85,2.25,4.85s2.22-1.78,2.22-4.93-.73-4.85-2.22-4.85C388.5,466.72,387.57,468.36,387.59,471.65Z" transform="translate(-240.98 -216.06)"/><path class="cls-8" d="M400,467.28h0l-2.41,1.22-.42-1.88,3.19-1.58h2.08v13.14H400Z" transform="translate(-240.98 -216.06)"/><path class="cls-8" d="M416.22,471.53c0,4.23-1.66,6.87-4.79,6.87s-4.65-2.75-4.67-6.75,1.74-6.83,4.81-6.83S416.22,467.65,416.22,471.53Zm-7,.12c0,3.2.87,4.85,2.24,4.85s2.22-1.78,2.22-4.93-.72-4.85-2.22-4.85C410.18,466.72,409.25,468.36,409.27,471.65Z" transform="translate(-240.98 -216.06)"/><path class="cls-8" d="M421.68,467.28h0l-2.41,1.22-.42-1.88L422,465h2.09v13.14h-2.41Z" transform="translate(-240.98 -216.06)"/><path class="cls-8" d="M437.89,471.53c0,4.23-1.65,6.87-4.79,6.87s-4.65-2.75-4.67-6.75,1.74-6.83,4.81-6.83S437.89,467.65,437.89,471.53Zm-6.95.12c0,3.2.87,4.85,2.24,4.85s2.23-1.78,2.23-4.93-.73-4.85-2.23-4.85C431.85,466.72,430.92,468.36,430.94,471.65Z" transform="translate(-240.98 -216.06)"/><path class="cls-8" d="M448.73,471.53c0,4.23-1.66,6.87-4.79,6.87s-4.65-2.75-4.67-6.75,1.74-6.83,4.81-6.83S448.73,467.65,448.73,471.53Zm-7,.12c0,3.2.86,4.85,2.24,4.85s2.22-1.78,2.22-4.93-.72-4.85-2.22-4.85C442.69,466.72,441.75,468.36,441.78,471.65Z" transform="translate(-240.98 -216.06)"/><path class="cls-8" d="M454.19,467.28h0l-2.41,1.22-.42-1.88,3.19-1.58h2.08v13.14h-2.4Z" transform="translate(-240.98 -216.06)"/><path class="cls-8" d="M356.66,483.54h0l-2.4,1.22-.43-1.88,3.2-1.58h2.08v13.14h-2.41Z" transform="translate(-240.98 -216.06)"/><path class="cls-8" d="M372.88,487.79c0,4.23-1.66,6.87-4.8,6.87s-4.64-2.75-4.67-6.75,1.74-6.83,4.82-6.83S372.88,483.91,372.88,487.79Zm-7,.12c0,3.2.87,4.85,2.25,4.85s2.22-1.77,2.22-4.93-.73-4.85-2.22-4.85S365.9,484.62,365.92,487.91Z" transform="translate(-240.98 -216.06)"/><path class="cls-8" d="M378.34,483.54h0l-2.41,1.22-.43-1.88,3.2-1.58h2.08v13.14h-2.4Z" transform="translate(-240.98 -216.06)"/><path class="cls-8" d="M394.55,487.79c0,4.23-1.66,6.87-4.79,6.87s-4.65-2.75-4.67-6.75,1.74-6.83,4.81-6.83S394.55,483.91,394.55,487.79Zm-7,.12c0,3.2.87,4.85,2.25,4.85s2.22-1.77,2.22-4.93-.73-4.85-2.22-4.85C388.5,483,387.57,484.62,387.59,487.91Z" transform="translate(-240.98 -216.06)"/><path class="cls-8" d="M405.39,487.79c0,4.23-1.66,6.87-4.8,6.87s-4.65-2.75-4.67-6.75,1.74-6.83,4.82-6.83S405.39,483.91,405.39,487.79Zm-7,.12c0,3.2.87,4.85,2.24,4.85s2.23-1.77,2.23-4.93-.73-4.85-2.23-4.85C399.34,483,398.41,484.62,398.43,487.91Z" transform="translate(-240.98 -216.06)"/><path class="cls-8" d="M410.84,483.54h0l-2.4,1.22-.43-1.88,3.2-1.58h2.08v13.14h-2.41Z" transform="translate(-240.98 -216.06)"/><path class="cls-8" d="M427.06,487.79c0,4.23-1.66,6.87-4.79,6.87s-4.65-2.75-4.67-6.75,1.73-6.83,4.81-6.83S427.06,483.91,427.06,487.79Zm-7,.12c0,3.2.87,4.85,2.25,4.85s2.22-1.77,2.22-4.93-.73-4.85-2.22-4.85S420.08,484.62,420.1,487.91Z" transform="translate(-240.98 -216.06)"/><path class="cls-8" d="M437.89,487.79c0,4.23-1.65,6.87-4.79,6.87s-4.65-2.75-4.67-6.75,1.74-6.83,4.81-6.83S437.89,483.91,437.89,487.79Zm-6.95.12c0,3.2.87,4.85,2.24,4.85s2.23-1.77,2.23-4.93-.73-4.85-2.23-4.85C431.85,483,430.92,484.62,430.94,487.91Z" transform="translate(-240.98 -216.06)"/><path class="cls-8" d="M443.35,483.54h0l-2.4,1.22-.43-1.88,3.2-1.58h2.08v13.14h-2.41Z" transform="translate(-240.98 -216.06)"/><path class="cls-8" d="M459.57,487.79c0,4.23-1.66,6.87-4.8,6.87s-4.65-2.75-4.67-6.75,1.74-6.83,4.82-6.83S459.57,483.91,459.57,487.79Zm-7,.12c0,3.2.87,4.85,2.25,4.85s2.22-1.77,2.22-4.93-.73-4.85-2.22-4.85S452.59,484.62,452.61,487.91Z" transform="translate(-240.98 -216.06)"/><path class="cls-8" d="M362,504.05c0,4.23-1.66,6.88-4.79,6.88s-4.65-2.75-4.67-6.76,1.74-6.83,4.81-6.83S362,500.17,362,504.05Zm-7,.12c0,3.2.86,4.86,2.24,4.86s2.22-1.78,2.22-4.94-.72-4.85-2.22-4.85C356,499.24,355.07,500.88,355.09,504.17Z" transform="translate(-240.98 -216.06)"/><path class="cls-8" d="M372.88,504.05c0,4.23-1.66,6.88-4.8,6.88s-4.64-2.75-4.67-6.76,1.74-6.83,4.82-6.83S372.88,500.17,372.88,504.05Zm-7,.12c0,3.2.87,4.86,2.25,4.86s2.22-1.78,2.22-4.94-.73-4.85-2.22-4.85S365.9,500.88,365.92,504.17Z" transform="translate(-240.98 -216.06)"/><path class="cls-8" d="M378.34,499.81h0L375.89,501l-.43-1.88,3.2-1.58h2.08V510.7h-2.4Z" transform="translate(-240.98 -216.06)"/><path class="cls-8" d="M389.17,499.81h0l-2.4,1.21-.43-1.88,3.19-1.58h2.09V510.7h-2.41Z" transform="translate(-240.98 -216.06)"/><path class="cls-8" d="M405.39,504.05c0,4.23-1.66,6.88-4.8,6.88s-4.65-2.75-4.67-6.76,1.74-6.83,4.82-6.83S405.39,500.17,405.39,504.05Zm-7,.12c0,3.2.87,4.86,2.24,4.86s2.23-1.78,2.23-4.94-.73-4.85-2.23-4.85C399.34,499.24,398.41,500.88,398.43,504.17Z" transform="translate(-240.98 -216.06)"/><path class="cls-8" d="M410.84,499.81h0L408.4,501l-.43-1.88,3.2-1.58h2.08V510.7h-2.41Z" transform="translate(-240.98 -216.06)"/><path class="cls-8" d="M421.68,499.81h0L419.23,501l-.42-1.88,3.19-1.58h2.09V510.7h-2.41Z" transform="translate(-240.98 -216.06)"/><path class="cls-8" d="M432.52,499.81h0L430.07,501l-.42-1.88,3.19-1.58h2.08V510.7h-2.4Z" transform="translate(-240.98 -216.06)"/><path class="cls-8" d="M448.73,504.05c0,4.23-1.66,6.88-4.79,6.88s-4.65-2.75-4.67-6.76,1.74-6.83,4.81-6.83S448.73,500.17,448.73,504.05Zm-7,.12c0,3.2.86,4.86,2.24,4.86s2.22-1.78,2.22-4.94-.72-4.85-2.22-4.85C442.69,499.24,441.75,500.88,441.78,504.17Z" transform="translate(-240.98 -216.06)"/><path class="cls-8" d="M454.19,499.81h0L451.74,501l-.42-1.88,3.19-1.58h2.08V510.7h-2.4Z" transform="translate(-240.98 -216.06)"/><path class="cls-8" d="M356.66,516.07h0l-2.4,1.21-.43-1.88,3.2-1.58h2.08V527h-2.41Z" transform="translate(-240.98 -216.06)"/><path class="cls-8" d="M367.5,516.07h0l-2.41,1.21-.42-1.88,3.19-1.58h2.09V527H367.5Z" transform="translate(-240.98 -216.06)"/><path class="cls-8" d="M383.71,520.31c0,4.23-1.65,6.88-4.79,6.88s-4.65-2.75-4.67-6.76,1.74-6.83,4.81-6.83S383.71,516.43,383.71,520.31Zm-6.95.12c0,3.2.87,4.86,2.24,4.86s2.23-1.78,2.23-4.94-.73-4.85-2.23-4.85C377.67,515.5,376.74,517.14,376.76,520.43Z" transform="translate(-240.98 -216.06)"/><path class="cls-8" d="M389.17,516.07h0l-2.4,1.21-.43-1.88,3.19-1.58h2.09V527h-2.41Z" transform="translate(-240.98 -216.06)"/><path class="cls-8" d="M405.39,520.31c0,4.23-1.66,6.88-4.8,6.88s-4.65-2.75-4.67-6.76,1.74-6.83,4.82-6.83S405.39,516.43,405.39,520.31Zm-7,.12c0,3.2.87,4.86,2.24,4.86s2.23-1.78,2.23-4.94-.73-4.85-2.23-4.85C399.34,515.5,398.41,517.14,398.43,520.43Z" transform="translate(-240.98 -216.06)"/><path class="cls-8" d="M416.22,520.31c0,4.23-1.66,6.88-4.79,6.88s-4.65-2.75-4.67-6.76,1.74-6.83,4.81-6.83S416.22,516.43,416.22,520.31Zm-7,.12c0,3.2.87,4.86,2.24,4.86s2.22-1.78,2.22-4.94-.72-4.85-2.22-4.85C410.18,515.5,409.25,517.14,409.27,520.43Z" transform="translate(-240.98 -216.06)"/><path class="cls-8" d="M421.68,516.07h0l-2.41,1.21-.42-1.88,3.19-1.58h2.09V527h-2.41Z" transform="translate(-240.98 -216.06)"/><path class="cls-8" d="M432.52,516.07h0l-2.41,1.21-.42-1.88,3.19-1.58h2.08V527h-2.4Z" transform="translate(-240.98 -216.06)"/><path class="cls-8" d="M448.73,520.31c0,4.23-1.66,6.88-4.79,6.88s-4.65-2.75-4.67-6.76,1.74-6.83,4.81-6.83S448.73,516.43,448.73,520.31Zm-7,.12c0,3.2.86,4.86,2.24,4.86s2.22-1.78,2.22-4.94-.72-4.85-2.22-4.85C442.69,515.5,441.75,517.14,441.78,520.43Z" transform="translate(-240.98 -216.06)"/><path class="cls-8" d="M454.19,516.07h0l-2.41,1.21-.42-1.88,3.19-1.58h2.08V527h-2.4Z" transform="translate(-240.98 -216.06)"/></g><g class="cls-10"><path class="cls-11" d="M342.37,583.65a13.66,13.66,0,0,1-5.57,1c-6.85,0-11-4.29-11-10.85,0-7.1,4.93-11.39,11.52-11.39a12.31,12.31,0,0,1,5.25,1l-.86,3.13a10.64,10.64,0,0,0-4.23-.83c-4.38,0-7.55,2.75-7.55,7.94,0,4.73,2.79,7.77,7.52,7.77a11.05,11.05,0,0,0,4.29-.8Z" transform="translate(-240.98 -216.06)"/><path class="cls-11" d="M350.5,566h-6.15v-3.3h16.29V566h-6.21v18.27H350.5Z" transform="translate(-240.98 -216.06)"/><path class="cls-11" d="M363.17,562.72h12.45V566h-8.51v5.95H375v3.24h-7.93v9.15h-3.94Z" transform="translate(-240.98 -216.06)"/><path class="cls-11" d="M400.29,561.57V579.9c0,1.6.06,3.33.12,4.39H396.9l-.16-2.47h-.07a5.61,5.61,0,0,1-5.09,2.82c-3.71,0-6.65-3.17-6.65-8,0-5.21,3.23-8.32,7-8.32a5,5,0,0,1,4.39,2h.06v-8.83Zm-3.94,13.63a5.86,5.86,0,0,0-.09-1,3.46,3.46,0,0,0-3.4-2.79c-2.52,0-3.93,2.24-3.93,5.15s1.41,4.93,3.9,4.93a3.47,3.47,0,0,0,3.39-2.78,4.22,4.22,0,0,0,.13-1.15Z" transform="translate(-240.98 -216.06)"/><path class="cls-11" d="M413.28,584.29l-.26-1.73h-.09a5.77,5.77,0,0,1-4.61,2.08,4.63,4.63,0,0,1-4.9-4.64c0-3.94,3.49-5.92,9.25-5.89v-.25c0-1-.41-2.72-3.17-2.72a8.29,8.29,0,0,0-4.19,1.15l-.77-2.56a11.3,11.3,0,0,1,5.64-1.38c5,0,6.43,3.17,6.43,6.56v5.63a25.12,25.12,0,0,0,.22,3.75Zm-.51-7.62c-2.79-.06-5.44.55-5.44,2.91a2.06,2.06,0,0,0,2.24,2.24,3.18,3.18,0,0,0,3.07-2.14,2.73,2.73,0,0,0,.13-.86Z" transform="translate(-240.98 -216.06)"/><path class="cls-11" d="M425.09,564.26v4.44h3.74v2.95h-3.74v6.88c0,1.89.51,2.88,2,2.88a6.07,6.07,0,0,0,1.54-.19l.06,3a8.41,8.41,0,0,1-2.84.39,4.58,4.58,0,0,1-3.4-1.28c-.83-.9-1.21-2.31-1.21-4.35v-7.33H419V568.7h2.24v-3.51Z" transform="translate(-240.98 -216.06)"/><path class="cls-11" d="M440.58,584.29l-.26-1.73h-.1a5.77,5.77,0,0,1-4.6,2.08,4.63,4.63,0,0,1-4.9-4.64c0-3.94,3.49-5.92,9.25-5.89v-.25c0-1-.42-2.72-3.17-2.72a8.24,8.24,0,0,0-4.19,1.15l-.77-2.56a11.26,11.26,0,0,1,5.63-1.38c5,0,6.43,3.17,6.43,6.56v5.63a25,25,0,0,0,.23,3.75Zm-.52-7.62c-2.78-.06-5.44.55-5.44,2.91a2.07,2.07,0,0,0,2.25,2.24,3.2,3.2,0,0,0,3.07-2.14,3,3,0,0,0,.12-.86Z" transform="translate(-240.98 -216.06)"/><path class="cls-11" d="M332.75,611.07a8.75,8.75,0,0,0,4,1.12c1.73,0,2.5-.7,2.5-1.73s-.64-1.6-2.56-2.27c-3-1.05-4.32-2.72-4.29-4.54,0-2.75,2.27-4.9,5.89-4.9a9.16,9.16,0,0,1,4.13.93l-.77,2.78a7,7,0,0,0-3.3-.89c-1.4,0-2.17.67-2.17,1.63s.73,1.47,2.72,2.18c2.81,1,4.13,2.46,4.16,4.76,0,2.82-2.21,4.87-6.34,4.87a10,10,0,0,1-4.73-1.09Z" transform="translate(-240.98 -216.06)"/><path class="cls-11" d="M350.8,594.66v4.44h3.74v2.95H350.8v6.88c0,1.89.51,2.88,2,2.88a6,6,0,0,0,1.53-.19l.07,3a8.48,8.48,0,0,1-2.85.39,4.54,4.54,0,0,1-3.39-1.28c-.83-.9-1.22-2.31-1.22-4.35v-7.33h-2.24V599.1H347v-3.52Z" transform="translate(-240.98 -216.06)"/><path class="cls-11" d="M357.52,604.13c0-2.11,0-3.62-.13-5h3.43l.13,3h.12a4.66,4.66,0,0,1,4.26-3.33,4.42,4.42,0,0,1,.93.1v3.71a5.8,5.8,0,0,0-1.15-.13,3.47,3.47,0,0,0-3.52,3,6.23,6.23,0,0,0-.13,1.21v8.07h-3.94Z" transform="translate(-240.98 -216.06)"/><path class="cls-11" d="M371.41,608c.09,2.82,2.3,4,4.8,4a11.71,11.71,0,0,0,4.32-.7l.57,2.72a14.7,14.7,0,0,1-5.44,1c-5.05,0-8-3.11-8-7.87,0-4.32,2.63-8.39,7.62-8.39s6.72,4.16,6.72,7.59a10.05,10.05,0,0,1-.13,1.66Zm6.85-2.75c0-1.44-.61-3.81-3.23-3.81-2.44,0-3.46,2.21-3.62,3.81Z" transform="translate(-240.98 -216.06)"/><path class="cls-11" d="M393.9,614.69l-.25-1.73h-.1A5.77,5.77,0,0,1,389,615a4.63,4.63,0,0,1-4.9-4.64c0-3.94,3.49-5.92,9.25-5.89v-.25c0-1-.42-2.72-3.17-2.72a8.24,8.24,0,0,0-4.19,1.15l-.77-2.56a11.15,11.15,0,0,1,5.63-1.38c5,0,6.43,3.17,6.43,6.56v5.63a25,25,0,0,0,.23,3.75Zm-.51-7.62c-2.78-.06-5.44.55-5.44,2.91a2.07,2.07,0,0,0,2.24,2.24,3.18,3.18,0,0,0,3.07-2.14,2.73,2.73,0,0,0,.13-.86Z" transform="translate(-240.98 -216.06)"/><path class="cls-11" d="M401.39,603.74c0-1.79,0-3.29-.13-4.64h3.4l.16,2.31h.09a5.39,5.39,0,0,1,4.8-2.66,4.5,4.5,0,0,1,4.32,2.88h.07a5.87,5.87,0,0,1,1.92-2,5.16,5.16,0,0,1,3.13-.93c2.59,0,5.22,1.76,5.22,6.75v9.19h-3.84v-8.61c0-2.59-.9-4.13-2.79-4.13A3,3,0,0,0,415,604a6.08,6.08,0,0,0-.19,1.31v9.35H411v-9c0-2.17-.86-3.71-2.69-3.71a3.06,3.06,0,0,0-2.81,2.24,3.38,3.38,0,0,0-.23,1.28v9.22h-3.84Z" transform="translate(-240.98 -216.06)"/><path class="cls-11" d="M428.34,611.07a8.68,8.68,0,0,0,4,1.12c1.72,0,2.49-.7,2.49-1.73s-.64-1.6-2.56-2.27c-3-1.05-4.32-2.72-4.28-4.54,0-2.75,2.27-4.9,5.88-4.9a9.16,9.16,0,0,1,4.13.93l-.77,2.78a7,7,0,0,0-3.29-.89c-1.41,0-2.18.67-2.18,1.63s.74,1.47,2.72,2.18c2.82,1,4.13,2.46,4.16,4.76,0,2.82-2.21,4.87-6.34,4.87a10,10,0,0,1-4.73-1.09Z" transform="translate(-240.98 -216.06)"/></g><g id="surface1-2" data-name="surface1"><path class="cls-9" d="M745.45,380.33a5.81,5.81,0,0,0-5.79-5.79H649.93v28.94a5.79,5.79,0,0,1-5.79,5.79H612.3V536.63a5.81,5.81,0,0,0,5.79,5.79H739.66a5.81,5.81,0,0,0,5.79-5.79Z" transform="translate(-240.98 -216.06)"/><path class="cls-5" d="M649.93,542.42h89.73a5.79,5.79,0,0,0,5.79-5.79V453A145.05,145.05,0,0,1,649.93,542.42Z" transform="translate(-240.98 -216.06)"/><path class="cls-6" d="M649.93,403.48V374.54L612.3,409.27h31.84A5.79,5.79,0,0,0,649.93,403.48Z" transform="translate(-240.98 -216.06)"/><path class="cls-8" d="M693.35,452.69H632.57a2.9,2.9,0,1,1,0-5.79h60.78a2.9,2.9,0,0,1,0,5.79Z" transform="translate(-240.98 -216.06)"/><path class="cls-8" d="M705.91,470.06H632.57a2.9,2.9,0,1,1,0-5.79h73.34a2.9,2.9,0,1,1,0,5.79Z" transform="translate(-240.98 -216.06)"/><path class="cls-8" d="M667.79,487.42H632.57a2.9,2.9,0,1,1,0-5.79h35.22a2.9,2.9,0,1,1,0,5.79Z" transform="translate(-240.98 -216.06)"/><path class="cls-8" d="M710.72,435.32h-55a2.9,2.9,0,0,1,0-5.79h55a2.9,2.9,0,0,1,0,5.79Z" transform="translate(-240.98 -216.06)"/><path class="cls-8" d="M644.14,435.32H632.57a2.9,2.9,0,1,1,0-5.79h11.57a2.9,2.9,0,1,1,0,5.79Z" transform="translate(-240.98 -216.06)"/></g><path class="cls-12" d="M761.07,391.9H673.83a4.61,4.61,0,0,0-4.59,4.6v41.32a4.6,4.6,0,0,0,4.59,4.59h87.24a4.6,4.6,0,0,0,4.59-4.59V396.5A4.61,4.61,0,0,0,761.07,391.9Z" transform="translate(-240.98 -216.06)"/><path class="cls-8" d="M688,504.79H632.57a2.9,2.9,0,1,1,0-5.79H688a2.9,2.9,0,0,1,0,5.79Z" transform="translate(-240.98 -216.06)"/><path class="cls-8" d="M658.62,522.16h-26a2.9,2.9,0,1,1,0-5.79h26a2.9,2.9,0,0,1,0,5.79Z" transform="translate(-240.98 -216.06)"/><path class="cls-8" d="M700.35,487.42H679.6a2.9,2.9,0,0,1,0-5.79h20.75a2.9,2.9,0,1,1,0,5.79Z" transform="translate(-240.98 -216.06)"/><path class="cls-13" d="M688.68,409.69h-6.14v-3.3h16.29v3.3h-6.21V428h-3.94Z" transform="translate(-240.98 -216.06)"/><path class="cls-13" d="M701,423.67a10.86,10.86,0,0,0,5.22,1.38c2.53,0,3.93-1.19,3.93-2.95s-1.08-2.59-3.84-3.58c-3.55-1.28-5.82-3.17-5.82-6.27,0-3.52,2.94-6.21,7.62-6.21a11.34,11.34,0,0,1,5.18,1.09l-1,3.17a9.07,9.07,0,0,0-4.29-1c-2.49,0-3.58,1.35-3.58,2.59,0,1.67,1.25,2.44,4.13,3.56,3.74,1.4,5.56,3.29,5.56,6.4,0,3.45-2.62,6.46-8.19,6.46a12.7,12.7,0,0,1-5.82-1.35Z" transform="translate(-240.98 -216.06)"/><path class="cls-13" d="M717.71,406.68a39.34,39.34,0,0,1,6.27-.45c4,0,6.81.83,8.8,2.5s3.36,4.25,3.36,7.93c0,3.84-1.31,6.72-3.36,8.58s-5.57,2.94-9.76,2.94a42.8,42.8,0,0,1-5.31-.29ZM721.64,425a14.18,14.18,0,0,0,2.18.1c5.12,0,8.16-2.79,8.16-8.26,0-4.77-2.72-7.49-7.65-7.49a12.42,12.42,0,0,0-2.69.23Z" transform="translate(-240.98 -216.06)"/><path class="cls-13" d="M739.56,406.39h3.94v18.27h8.86V428h-12.8Z" transform="translate(-240.98 -216.06)"/><g class="cls-10"><path class="cls-11" d="M632.3,586.3V575a9.9,9.9,0,0,0-.06-1.21,2.8,2.8,0,0,0-.17-.74.8.8,0,0,0-.3-.38.78.78,0,0,0-.44-.11,1,1,0,0,0-.58.19,2.37,2.37,0,0,0-.57.6,10.64,10.64,0,0,0-.67,1.12q-.37.71-.87,1.71V586.3h-2.48v-11a13,13,0,0,0-.06-1.39,3.41,3.41,0,0,0-.17-.83.77.77,0,0,0-.31-.4.79.79,0,0,0-.45-.11,1,1,0,0,0-.53.15,2.32,2.32,0,0,0-.55.57,7.94,7.94,0,0,0-.68,1.11c-.25.46-.55,1.06-.9,1.79V586.3H620V570.61h2.08l.13,3a13.14,13.14,0,0,1,.79-1.52,4.73,4.73,0,0,1,.79-1,2.58,2.58,0,0,1,1.89-.74,2.32,2.32,0,0,1,1.92.83,4.09,4.09,0,0,1,.65,2.56c.25-.54.5-1,.74-1.44a5.78,5.78,0,0,1,.77-1.07,3,3,0,0,1,.92-.65,2.78,2.78,0,0,1,1.15-.23q3,0,3,4.55V586.3Z" transform="translate(-240.98 -216.06)"/><path class="cls-11" d="M652,577.63c0,.38,0,.71,0,1s0,.5-.05.73h-11a4.87,4.87,0,0,0,1.35,3.7,5.37,5.37,0,0,0,3.87,1.29q.69,0,1.38-.06c.46,0,.9-.08,1.33-.15s.83-.13,1.22-.21.75-.16,1.09-.26v2.24a18.79,18.79,0,0,1-2.51.51,21,21,0,0,1-2.9.19,10,10,0,0,1-3.47-.54,6,6,0,0,1-2.38-1.59,6.39,6.39,0,0,1-1.37-2.55,11.88,11.88,0,0,1-.45-3.41,10,10,0,0,1,.48-3.13,7.74,7.74,0,0,1,1.39-2.6,6.61,6.61,0,0,1,5.26-2.43,7.5,7.5,0,0,1,2.9.52,5.66,5.66,0,0,1,2.13,1.46,6.2,6.2,0,0,1,1.32,2.3A9.78,9.78,0,0,1,652,577.63Zm-2.83-.39a5.65,5.65,0,0,0-.2-1.92,4.14,4.14,0,0,0-.77-1.49,3.65,3.65,0,0,0-1.31-1,4.27,4.27,0,0,0-1.81-.36,3.74,3.74,0,0,0-1.62.35,3.65,3.65,0,0,0-1.27,1,5,5,0,0,0-.86,1.5,7.1,7.1,0,0,0-.41,1.92Z" transform="translate(-240.98 -216.06)"/><path class="cls-11" d="M668.94,586.08a13.14,13.14,0,0,1-1.91.34,18.86,18.86,0,0,1-2,.1,6.34,6.34,0,0,1-4.41-1.34,5.33,5.33,0,0,1-1.45-4.1v-8.19h-4.39v-2.28h4.39V566.3l2.72-.7v5h7.05v2.28h-7.05v8a3.29,3.29,0,0,0,.9,2.53,3.79,3.79,0,0,0,2.65.83,14.24,14.24,0,0,0,1.64-.11,15.66,15.66,0,0,0,1.86-.37Z" transform="translate(-240.98 -216.06)"/><path class="cls-11" d="M684,586.3l-.06-2.11A8.59,8.59,0,0,1,681.3,586a7.07,7.07,0,0,1-2.77.56,6.8,6.8,0,0,1-2.3-.34,4.37,4.37,0,0,1-1.57-1,3.63,3.63,0,0,1-.9-1.41,5.06,5.06,0,0,1-.29-1.77,4.36,4.36,0,0,1,1.76-3.69,8.49,8.49,0,0,1,5.19-1.34h3.25v-1.37a2.93,2.93,0,0,0-.89-2.23,3.84,3.84,0,0,0-2.72-.84,11.57,11.57,0,0,0-2.62.3,18.49,18.49,0,0,0-2.66.85v-2.46c.34-.12.73-.25,1.15-.37s.87-.22,1.33-.32,1-.16,1.47-.22a13.3,13.3,0,0,1,1.55-.09,10,10,0,0,1,2.56.31,5.15,5.15,0,0,1,1.93,1,4.13,4.13,0,0,1,1.21,1.61,5.65,5.65,0,0,1,.43,2.28V586.3Zm-.3-7.14h-3.45a6.85,6.85,0,0,0-1.75.2,3.5,3.5,0,0,0-1.21.58,2.32,2.32,0,0,0-.69.9,3,3,0,0,0-.23,1.18,2.83,2.83,0,0,0,.14.87,2,2,0,0,0,.46.73,2.25,2.25,0,0,0,.81.51,3.59,3.59,0,0,0,1.22.19,5.19,5.19,0,0,0,2.15-.57,10.82,10.82,0,0,0,2.55-1.81Z" transform="translate(-240.98 -216.06)"/><path class="cls-11" d="M690.69,578.79a10.83,10.83,0,0,1,.54-3.56,7.34,7.34,0,0,1,1.56-2.62,6.52,6.52,0,0,1,2.42-1.63,8.54,8.54,0,0,1,3.15-.55,12.12,12.12,0,0,1,1.48.09,8.54,8.54,0,0,1,1.42.3v-6.6H704V586.3h-2.44l-.09-3a8.35,8.35,0,0,1-2.47,2.46,5.5,5.5,0,0,1-2.88.79,4.87,4.87,0,0,1-2.36-.56,4.81,4.81,0,0,1-1.71-1.59,7.65,7.65,0,0,1-1-2.46A13.66,13.66,0,0,1,690.69,578.79Zm2.78-.18a8.6,8.6,0,0,0,.83,4.25,2.62,2.62,0,0,0,2.37,1.39,3.5,3.5,0,0,0,2.18-.92,12.76,12.76,0,0,0,2.41-2.73v-7.28a6.42,6.42,0,0,0-1.48-.48,8.06,8.06,0,0,0-1.61-.16,4.35,4.35,0,0,0-3.46,1.43A6.78,6.78,0,0,0,693.47,578.61Z" transform="translate(-240.98 -216.06)"/><path class="cls-11" d="M719.16,586.3l-.07-2.11a8.44,8.44,0,0,1-2.6,1.83,7.07,7.07,0,0,1-2.77.56,6.8,6.8,0,0,1-2.3-.34,4.37,4.37,0,0,1-1.57-1,3.77,3.77,0,0,1-.91-1.41,5.3,5.3,0,0,1-.28-1.77,4.37,4.37,0,0,1,1.75-3.69,8.54,8.54,0,0,1,5.2-1.34h3.25v-1.37a2.93,2.93,0,0,0-.89-2.23,3.85,3.85,0,0,0-2.72-.84,11.51,11.51,0,0,0-2.62.3,17.73,17.73,0,0,0-2.66.85v-2.46c.34-.12.72-.25,1.15-.37s.86-.22,1.33-.32,1-.16,1.47-.22a13.3,13.3,0,0,1,1.55-.09,10,10,0,0,1,2.56.31,5.22,5.22,0,0,1,1.93,1,4.13,4.13,0,0,1,1.21,1.61,5.66,5.66,0,0,1,.42,2.28V586.3Zm-.3-7.14h-3.45a6.8,6.8,0,0,0-1.75.2,3.41,3.41,0,0,0-1.21.58,2.32,2.32,0,0,0-.69.9,3,3,0,0,0-.23,1.18,2.83,2.83,0,0,0,.14.87,2,2,0,0,0,.45.73,2.3,2.3,0,0,0,.82.51,3.59,3.59,0,0,0,1.22.19,5.11,5.11,0,0,0,2.14-.57,10.65,10.65,0,0,0,2.56-1.81Z" transform="translate(-240.98 -216.06)"/><path class="cls-11" d="M739.31,586.08a13,13,0,0,1-1.9.34,19,19,0,0,1-2,.1,6.34,6.34,0,0,1-4.41-1.34,5.29,5.29,0,0,1-1.45-4.1v-8.19h-4.39v-2.28h4.39V566.3l2.71-.7v5h7v2.28h-7v8a3.29,3.29,0,0,0,.9,2.53,3.79,3.79,0,0,0,2.65.83,14.1,14.1,0,0,0,1.64-.11,15.27,15.27,0,0,0,1.86-.37Z" transform="translate(-240.98 -216.06)"/><path class="cls-11" d="M754.34,586.3l-.06-2.11a8.44,8.44,0,0,1-2.6,1.83,7.1,7.1,0,0,1-2.77.56,6.76,6.76,0,0,1-2.3-.34,4.28,4.28,0,0,1-1.57-1,3.65,3.65,0,0,1-.91-1.41,5.3,5.3,0,0,1-.29-1.77,4.38,4.38,0,0,1,1.76-3.69,8.5,8.5,0,0,1,5.2-1.34h3.25v-1.37a2.93,2.93,0,0,0-.89-2.23,3.85,3.85,0,0,0-2.72-.84,11.51,11.51,0,0,0-2.62.3,17.73,17.73,0,0,0-2.66.85v-2.46c.34-.12.72-.25,1.14-.37s.87-.22,1.34-.32,1-.16,1.47-.22a13.17,13.17,0,0,1,1.55-.09,10.09,10.09,0,0,1,2.56.31,5.22,5.22,0,0,1,1.93,1,4.23,4.23,0,0,1,1.21,1.61,5.66,5.66,0,0,1,.42,2.28V586.3Zm-.29-7.14h-3.46a6.85,6.85,0,0,0-1.75.2,3.36,3.36,0,0,0-1.2.58,2.34,2.34,0,0,0-.7.9,3,3,0,0,0-.22,1.18,2.56,2.56,0,0,0,.14.87,1.86,1.86,0,0,0,.45.73,2.34,2.34,0,0,0,.81.51,3.63,3.63,0,0,0,1.22.19,5.15,5.15,0,0,0,2.15-.57,10.65,10.65,0,0,0,2.56-1.81Z" transform="translate(-240.98 -216.06)"/></g><g class="cls-10"><path class="cls-11" d="M482.62,709.31a13.62,13.62,0,0,1-5.57,1c-6.84,0-11-4.29-11-10.85,0-7.1,4.92-11.39,11.52-11.39a12.45,12.45,0,0,1,5.24,1l-.86,3.14a10.42,10.42,0,0,0-4.22-.83c-4.39,0-7.55,2.75-7.55,7.93,0,4.74,2.78,7.78,7.51,7.78a11,11,0,0,0,4.29-.8Z" transform="translate(-240.98 -216.06)"/><path class="cls-11" d="M490.75,691.68h-6.14v-3.29h16.28v3.29h-6.2V710h-3.94Z" transform="translate(-240.98 -216.06)"/><path class="cls-11" d="M503.42,688.39h12.45v3.23h-8.51v6h7.93v3.23h-7.93V710h-3.94Z" transform="translate(-240.98 -216.06)"/><path class="cls-11" d="M530.68,689.92v4.45h3.75v2.94h-3.75v6.88c0,1.89.52,2.88,2,2.88a5.7,5.7,0,0,0,1.54-.19l.06,3a8.8,8.8,0,0,1-2.85.38,4.56,4.56,0,0,1-3.39-1.28c-.83-.89-1.21-2.3-1.21-4.35v-7.33h-2.24v-2.94h2.24v-3.52Z" transform="translate(-240.98 -216.06)"/><path class="cls-11" d="M537.41,699.39c0-2.11,0-3.61-.13-5h3.42l.13,3H541a4.65,4.65,0,0,1,4.25-3.33,4.38,4.38,0,0,1,.93.09v3.72a5.07,5.07,0,0,0-1.15-.13,3.46,3.46,0,0,0-3.52,3,7.25,7.25,0,0,0-.13,1.22V710h-3.93Z" transform="translate(-240.98 -216.06)"/><path class="cls-11" d="M557.28,710l-.26-1.73h-.09a5.79,5.79,0,0,1-4.61,2.08,4.63,4.63,0,0,1-4.9-4.64c0-3.93,3.49-5.92,9.25-5.88v-.26c0-1-.42-2.72-3.17-2.72a8.29,8.29,0,0,0-4.19,1.15l-.77-2.56a11.27,11.27,0,0,1,5.63-1.37c5,0,6.43,3.17,6.43,6.56v5.63a24.83,24.83,0,0,0,.23,3.74Zm-.52-7.61c-2.78-.07-5.43.54-5.43,2.91a2.07,2.07,0,0,0,2.24,2.24,3.2,3.2,0,0,0,3.07-2.15,2.92,2.92,0,0,0,.12-.86Z" transform="translate(-240.98 -216.06)"/><path class="cls-11" d="M576.22,709.47a11.26,11.26,0,0,1-4.42.8c-4.86,0-8-3.1-8-7.93S567,694,572.44,694a9.89,9.89,0,0,1,3.81.73l-.7,3a6.91,6.91,0,0,0-3-.61c-3,0-4.8,2.21-4.77,5,0,3.2,2.09,5,4.77,5a7.72,7.72,0,0,0,3.11-.61Z" transform="translate(-240.98 -216.06)"/><path class="cls-11" d="M581.63,703.26c.09,2.82,2.3,4,4.8,4a11.7,11.7,0,0,0,4.32-.71l.57,2.72a14.48,14.48,0,0,1-5.43,1c-5.06,0-8-3.1-8-7.87,0-4.32,2.63-8.38,7.62-8.38s6.72,4.16,6.72,7.58a10,10,0,0,1-.13,1.66Zm6.85-2.75c0-1.44-.61-3.81-3.23-3.81-2.44,0-3.46,2.21-3.62,3.81Z" transform="translate(-240.98 -216.06)"/></g><g class="cls-14"><path class="cls-15" d="M685,346.87c-21.34-133.59-282.68-133.42-298.9-12" transform="translate(-240.98 -216.06)"/><path class="cls-11" d="M385.3,346.87c-1.69-5.82-4.76-13.11-8.23-17.75l9.23,4.13,9.74-2.73C391.92,334.6,387.81,341.36,385.3,346.87Z" transform="translate(-240.98 -216.06)"/></g><g class="cls-14"><path class="cls-11" d="M481.41,217.14a30.4,30.4,0,0,1,4.44-.33c3,0,5.14.69,6.56,2a7.44,7.44,0,0,1,2.28,5.8,8.57,8.57,0,0,1-2.33,6.29c-1.51,1.51-4,2.33-7.15,2.33a33.93,33.93,0,0,1-3.8-.19Zm2.09,14.31a12.76,12.76,0,0,0,2.11.12c4.47,0,6.89-2.5,6.89-6.86,0-3.82-2.13-6.24-6.55-6.24a12,12,0,0,0-2.45.21Z" transform="translate(-240.98 -216.06)"/><path class="cls-11" d="M498.6,227.68a3.71,3.71,0,0,0,4,4,7.6,7.6,0,0,0,3.22-.6l.36,1.52a9.56,9.56,0,0,1-3.87.72c-3.57,0-5.71-2.36-5.71-5.86s2.06-6.26,5.45-6.26c3.79,0,4.8,3.33,4.8,5.47a8.79,8.79,0,0,1-.07,1Zm6.19-1.51c0-1.34-.55-3.43-2.93-3.43-2.14,0-3.07,2-3.24,3.43Z" transform="translate(-240.98 -216.06)"/><path class="cls-11" d="M509.16,231a5.61,5.61,0,0,0,2.78.84c1.54,0,2.26-.77,2.26-1.73s-.6-1.56-2.16-2.14C510,227.18,509,226,509,224.63c0-1.87,1.52-3.4,4-3.4a5.74,5.74,0,0,1,2.86.72l-.53,1.53a4.46,4.46,0,0,0-2.37-.67c-1.25,0-1.95.72-1.95,1.58s.7,1.4,2.21,2c2,.77,3,1.78,3,3.51,0,2-1.59,3.48-4.35,3.48a6.6,6.6,0,0,1-3.26-.8Z" transform="translate(-240.98 -216.06)"/><path class="cls-11" d="M527.23,232.67a7.74,7.74,0,0,1-3.34.68c-3.5,0-5.78-2.38-5.78-5.93a5.9,5.9,0,0,1,6.24-6.17,7,7,0,0,1,2.93.6l-.48,1.63a4.91,4.91,0,0,0-2.45-.55c-2.67,0-4.11,2-4.11,4.39,0,2.69,1.73,4.35,4,4.35a6,6,0,0,0,2.59-.58Z" transform="translate(-240.98 -216.06)"/><path class="cls-11" d="M529.7,225.11c0-1.37,0-2.54-.1-3.62h1.85l.07,2.28h.1a3.48,3.48,0,0,1,3.22-2.54,2.2,2.2,0,0,1,.6.07v2a3.08,3.08,0,0,0-.72-.07,3,3,0,0,0-2.83,2.71,5.69,5.69,0,0,0-.1,1v6.2H529.7Z" transform="translate(-240.98 -216.06)"/><path class="cls-11" d="M540,218.22a1.31,1.31,0,0,1-2.62,0,1.28,1.28,0,0,1,1.32-1.31A1.25,1.25,0,0,1,540,218.22Zm-2.36,14.89V221.49h2.12v11.62Z" transform="translate(-240.98 -216.06)"/><path class="cls-11" d="M543.16,233.11c.05-.8.1-2,.1-3V216.06h2.09v7.3h0a4.32,4.32,0,0,1,4-2.13c2.88,0,4.92,2.4,4.89,5.92,0,4.16-2.61,6.22-5.21,6.22a4.13,4.13,0,0,1-3.88-2.18h-.08l-.09,1.92Zm2.19-4.66a4.77,4.77,0,0,0,.09.77,3.27,3.27,0,0,0,3.17,2.47c2.21,0,3.53-1.8,3.53-4.46,0-2.33-1.2-4.32-3.46-4.32a3.35,3.35,0,0,0-3.21,2.59,4,4,0,0,0-.12.86Z" transform="translate(-240.98 -216.06)"/><path class="cls-11" d="M558.09,227.68a3.72,3.72,0,0,0,4,4,7.54,7.54,0,0,0,3.21-.6l.36,1.52a9.46,9.46,0,0,1-3.86.72c-3.58,0-5.71-2.36-5.71-5.86s2.06-6.26,5.44-6.26c3.8,0,4.81,3.33,4.81,5.47a6.57,6.57,0,0,1-.08,1Zm6.19-1.51c0-1.34-.55-3.43-2.92-3.43-2.14,0-3.08,2-3.24,3.43Z" transform="translate(-240.98 -216.06)"/><path class="cls-11" d="M568.65,231a5.65,5.65,0,0,0,2.79.84c1.53,0,2.25-.77,2.25-1.73s-.6-1.56-2.16-2.14c-2.09-.74-3.07-1.89-3.07-3.29,0-1.87,1.51-3.4,4-3.4a5.7,5.7,0,0,1,2.85.72l-.52,1.53a4.53,4.53,0,0,0-2.38-.67c-1.25,0-1.94.72-1.94,1.58s.69,1.4,2.2,2c2,.77,3.05,1.78,3.05,3.51,0,2-1.58,3.48-4.34,3.48a6.67,6.67,0,0,1-3.27-.8Z" transform="translate(-240.98 -216.06)"/></g></svg>