<svg id="Layer_1" data-name="Layer 1" xmlns="http://www.w3.org/2000/svg" viewBox="0 0 1415.03 524.83"><defs><style>.cls-1{fill:#ffe9cc;stroke:#f8a794;}.cls-1,.cls-2,.cls-3,.cls-4,.cls-6,.cls-8{stroke-miterlimit:10;stroke-width:2px;}.cls-2{fill:#4eba6f;}.cls-2,.cls-3,.cls-8{stroke:#1a8947;}.cls-3{fill:#4eba6e;}.cls-4{fill:#e57e25;stroke:#d25627;}.cls-5{fill:#fff;}.cls-6{fill:#3b97d3;stroke:#206d99;}.cls-7{fill:#1a8947;}.cls-8{fill:none;}.cls-9{fill:#ce8172;}</style></defs><title>ctf-packet</title><rect class="cls-1" x="389.64" y="38.32" width="635.74" height="80.34" rx="12.66"/><rect class="cls-2" x="398.73" y="47.4" width="130.88" height="62.18" rx="9.2"/><rect class="cls-2" x="540.39" y="47.4" width="130.88" height="62.18" rx="9.2"/><rect class="cls-2" x="682.51" y="47.4" width="90.02" height="62.18" rx="9.2"/><rect class="cls-2" x="783.42" y="47.4" width="232.89" height="62.18" rx="9.2"/><rect class="cls-3" x="1" y="295.71" width="1413.03" height="176.94" rx="20.26"/><path class="cls-4" d="M538.9,646.27H366c-10.66,0-19.3-9.07-19.3-20.26V529.59c0-11.19,8.64-20.26,19.3-20.26H538.9c10.65,0,19.29,9.07,19.29,20.26V626C558.19,637.2,549.55,646.27,538.9,646.27Z" transform="translate(-323.84 -194.63)"/><path class="cls-5" d="M405.7,565.63v8.64h9.12v-8.64h3.93v21.56h-3.93v-9.5H405.7v9.5h-3.94V565.63Z" transform="translate(-323.84 -194.63)"/><path class="cls-5" d="M425.89,580.51c.1,2.81,2.3,4,4.8,4a11.66,11.66,0,0,0,4.32-.71l.58,2.72a14.58,14.58,0,0,1-5.44,1c-5.06,0-8-3.1-8-7.87,0-4.32,2.62-8.38,7.61-8.38s6.72,4.16,6.72,7.58a9.09,9.09,0,0,1-.13,1.67Zm6.85-2.76c0-1.43-.61-3.8-3.23-3.8-2.44,0-3.46,2.21-3.62,3.8Z" transform="translate(-323.84 -194.63)"/><path class="cls-5" d="M448.39,587.19l-.26-1.72H448a5.8,5.8,0,0,1-4.6,2.08,4.63,4.63,0,0,1-4.9-4.64c0-3.94,3.49-5.92,9.25-5.89v-.26c0-1-.42-2.72-3.17-2.72a8.14,8.14,0,0,0-4.19,1.16l-.77-2.56a11.15,11.15,0,0,1,5.63-1.38c5,0,6.43,3.17,6.43,6.56v5.63a24.83,24.83,0,0,0,.23,3.74Zm-.52-7.61c-2.78-.07-5.44.54-5.44,2.91a2.07,2.07,0,0,0,2.24,2.24,3.2,3.2,0,0,0,3.08-2.14,3,3,0,0,0,.12-.87Z" transform="translate(-323.84 -194.63)"/><path class="cls-5" d="M470.24,564.48v18.33c0,1.6.07,3.33.13,4.38h-3.52l-.16-2.46h-.06a5.62,5.62,0,0,1-5.09,2.82c-3.71,0-6.66-3.17-6.66-8,0-5.22,3.23-8.32,7-8.32a5,5,0,0,1,4.38,2h.07v-8.83Zm-3.93,13.63a6,6,0,0,0-.1-1,3.45,3.45,0,0,0-3.39-2.78c-2.53,0-3.94,2.24-3.94,5.15s1.41,4.93,3.91,4.93a3.48,3.48,0,0,0,3.39-2.79,4.6,4.6,0,0,0,.13-1.15Z" transform="translate(-323.84 -194.63)"/><path class="cls-5" d="M477.25,580.51c.1,2.81,2.3,4,4.8,4a11.66,11.66,0,0,0,4.32-.71l.58,2.72a14.58,14.58,0,0,1-5.44,1c-5.06,0-8-3.1-8-7.87,0-4.32,2.63-8.38,7.62-8.38s6.72,4.16,6.72,7.58a9.09,9.09,0,0,1-.13,1.67Zm6.85-2.76c0-1.43-.61-3.8-3.23-3.8-2.44,0-3.46,2.21-3.62,3.8Z" transform="translate(-323.84 -194.63)"/><path class="cls-5" d="M491,576.63c0-2.11,0-3.61-.13-5h3.42l.13,3h.13a4.65,4.65,0,0,1,4.26-3.33,3.76,3.76,0,0,1,.92.1v3.71a5.07,5.07,0,0,0-1.15-.13,3.47,3.47,0,0,0-3.52,3,7.25,7.25,0,0,0-.13,1.22v8.06H491Z" transform="translate(-323.84 -194.63)"/><path class="cls-4" d="M771.9,646.27H599c-10.66,0-19.3-9.07-19.3-20.26V529.59c0-11.19,8.64-20.26,19.3-20.26H771.9c10.65,0,19.29,9.07,19.29,20.26V626C791.19,637.2,782.55,646.27,771.9,646.27Z" transform="translate(-323.84 -194.63)"/><path class="cls-5" d="M648,586.55a13.66,13.66,0,0,1-5.57,1c-6.85,0-11-4.28-11-10.84,0-7.11,4.93-11.39,11.52-11.39a12.35,12.35,0,0,1,5.25,1l-.86,3.13a10.51,10.51,0,0,0-4.23-.83c-4.38,0-7.55,2.75-7.55,7.94,0,4.73,2.78,7.77,7.52,7.77a11.05,11.05,0,0,0,4.29-.8Z" transform="translate(-323.84 -194.63)"/><path class="cls-5" d="M665.48,579.26c0,5.73-4,8.29-8,8.29-4.41,0-7.8-3-7.8-8s3.35-8.25,8.06-8.25S665.48,574.52,665.48,579.26Zm-11.74.16c0,3,1.47,5.28,3.87,5.28,2.24,0,3.81-2.21,3.81-5.35,0-2.43-1.09-5.21-3.78-5.21S653.74,576.83,653.74,579.42Z" transform="translate(-323.84 -194.63)"/><path class="cls-5" d="M668.71,576.25c0-1.79,0-3.3-.12-4.64H672l.19,2.34h.1a5.61,5.61,0,0,1,5-2.69c2.72,0,5.54,1.76,5.54,6.69v9.24h-3.94v-8.8c0-2.23-.83-3.93-3-3.93a3.31,3.31,0,0,0-3.07,2.3,4,4,0,0,0-.16,1.28v9.15h-4Z" transform="translate(-323.84 -194.63)"/><path class="cls-5" d="M691.37,567.16v4.45h3.74v2.95h-3.74v6.87c0,1.89.51,2.88,2,2.88a5.61,5.61,0,0,0,1.53-.19l.07,3a8.8,8.8,0,0,1-2.85.38,4.54,4.54,0,0,1-3.39-1.28c-.84-.89-1.22-2.3-1.22-4.35v-7.32h-2.24v-2.95h2.24v-3.52Z" transform="translate(-323.84 -194.63)"/><path class="cls-5" d="M700.68,580.51c.1,2.81,2.31,4,4.8,4a11.62,11.62,0,0,0,4.32-.71l.58,2.72a14.58,14.58,0,0,1-5.44,1c-5.06,0-8-3.1-8-7.87,0-4.32,2.62-8.38,7.61-8.38s6.72,4.16,6.72,7.58a9.09,9.09,0,0,1-.13,1.67Zm6.85-2.76c0-1.43-.61-3.8-3.23-3.8-2.43,0-3.46,2.21-3.62,3.8Z" transform="translate(-323.84 -194.63)"/><path class="cls-5" d="M716.78,571.61l1.85,2.95c.52.83,1,1.6,1.41,2.39h.1c.45-.86.89-1.66,1.34-2.46l1.73-2.88h4.29l-5.22,7.49,5.31,8.09h-4.44l-1.92-3.1c-.52-.83-1-1.66-1.41-2.53h-.07c-.44.9-.89,1.67-1.4,2.53l-1.8,3.1H712.2l5.41-7.93-5.22-7.65Z" transform="translate(-323.84 -194.63)"/><path class="cls-5" d="M734.89,567.16v4.45h3.74v2.95h-3.74v6.87c0,1.89.51,2.88,2,2.88a5.61,5.61,0,0,0,1.53-.19l.07,3a8.8,8.8,0,0,1-2.85.38,4.54,4.54,0,0,1-3.39-1.28c-.84-.89-1.22-2.3-1.22-4.35v-7.32h-2.24v-2.95h2.24v-3.52Z" transform="translate(-323.84 -194.63)"/><path class="cls-6" d="M1005.9,646.27H833c-10.66,0-19.3-9.07-19.3-20.26V529.59c0-11.19,8.64-20.26,19.3-20.26H1005.9c10.65,0,19.29,9.07,19.29,20.26V626C1025.19,637.2,1016.55,646.27,1005.9,646.27Z" transform="translate(-323.84 -194.63)"/><path class="cls-5" d="M895.27,558.43h-8.13v6.33h9.09V568h-13V546.43h12.54v3.23h-8.6v5.57h8.13Z" transform="translate(-323.84 -194.63)"/><path class="cls-5" d="M901.7,552.41l2.53,7.9c.44,1.38.76,2.63,1,3.91h.1c.29-1.28.64-2.5,1-3.91l2.47-7.9h4.16L907.11,568h-3.88l-5.79-15.58Z" transform="translate(-323.84 -194.63)"/><path class="cls-5" d="M917.83,561.31c.09,2.81,2.3,4,4.8,4a11.7,11.7,0,0,0,4.32-.71l.57,2.72a14.54,14.54,0,0,1-5.44,1c-5.05,0-8-3.1-8-7.87,0-4.32,2.62-8.38,7.62-8.38s6.72,4.16,6.72,7.58a10.2,10.2,0,0,1-.13,1.67Zm6.84-2.76c0-1.44-.6-3.8-3.23-3.8-2.43,0-3.45,2.2-3.61,3.8Z" transform="translate(-323.84 -194.63)"/><path class="cls-5" d="M931.55,557.05c0-1.79,0-3.3-.12-4.64h3.45l.19,2.34h.1a5.61,5.61,0,0,1,5-2.69c2.72,0,5.53,1.76,5.53,6.69V568h-3.93v-8.8c0-2.24-.83-3.93-3-3.93a3.31,3.31,0,0,0-3.07,2.3,3.94,3.94,0,0,0-.16,1.28V568h-4Z" transform="translate(-323.84 -194.63)"/><path class="cls-5" d="M954.21,548v4.45H958v2.94h-3.74v6.88c0,1.89.51,2.88,2,2.88a5.61,5.61,0,0,0,1.53-.19l.07,3a8.8,8.8,0,0,1-2.85.38,4.54,4.54,0,0,1-3.39-1.28c-.84-.89-1.22-2.3-1.22-4.35v-7.33h-2.24v-2.94h2.24v-3.52Z" transform="translate(-323.84 -194.63)"/><path class="cls-5" d="M865.38,595.83c0-2.11,0-3.61-.13-5h3.42l.13,3h.13a4.65,4.65,0,0,1,4.26-3.33,4.35,4.35,0,0,1,.92.09v3.72a5.07,5.07,0,0,0-1.15-.13,3.47,3.47,0,0,0-3.52,3,7.25,7.25,0,0,0-.13,1.22v8.06h-3.93Z" transform="translate(-323.84 -194.63)"/><path class="cls-5" d="M879.27,599.71c.09,2.81,2.3,4,4.8,4a11.7,11.7,0,0,0,4.32-.71l.57,2.72a14.54,14.54,0,0,1-5.44,1c-5,0-8-3.1-8-7.87,0-4.32,2.63-8.38,7.62-8.38s6.72,4.16,6.72,7.58a10.2,10.2,0,0,1-.13,1.67Zm6.84-2.76c0-1.44-.6-3.8-3.23-3.8-2.43,0-3.45,2.2-3.61,3.8Z" transform="translate(-323.84 -194.63)"/><path class="cls-5" d="M904.45,605.91a11.26,11.26,0,0,1-4.42.8c-4.86,0-8-3.1-8-7.93,0-4.67,3.2-8.32,8.67-8.32a9.93,9.93,0,0,1,3.81.73l-.7,2.95a6.91,6.91,0,0,0-3-.61c-3,0-4.8,2.21-4.77,5.06,0,3.2,2.08,5,4.77,5a7.72,7.72,0,0,0,3.11-.61Z" transform="translate(-323.84 -194.63)"/><path class="cls-5" d="M921.89,598.46c0,5.73-4,8.28-8,8.28-4.42,0-7.81-3-7.81-8s3.36-8.25,8.07-8.25S921.89,593.72,921.89,598.46Zm-11.74.16c0,3,1.47,5.28,3.87,5.28,2.24,0,3.81-2.21,3.81-5.35,0-2.43-1.09-5.21-3.78-5.21S910.15,596,910.15,598.62Z" transform="translate(-323.84 -194.63)"/><path class="cls-5" d="M925.12,595.83c0-2.11,0-3.61-.13-5h3.43l.13,3h.12a4.66,4.66,0,0,1,4.26-3.33,4.45,4.45,0,0,1,.93.09v3.72a5.07,5.07,0,0,0-1.15-.13,3.46,3.46,0,0,0-3.52,3,6.34,6.34,0,0,0-.13,1.22v8.06h-3.94Z" transform="translate(-323.84 -194.63)"/><path class="cls-5" d="M950.59,583.67V602c0,1.6.07,3.33.13,4.38H947.2l-.16-2.46H947a5.61,5.61,0,0,1-5.09,2.81c-3.71,0-6.65-3.16-6.65-8,0-5.22,3.23-8.32,7-8.32a4.94,4.94,0,0,1,4.38,2h.07v-8.84Zm-3.93,13.64a5.14,5.14,0,0,0-.1-1,3.45,3.45,0,0,0-3.39-2.78c-2.53,0-3.94,2.24-3.94,5.15s1.41,4.93,3.91,4.93a3.47,3.47,0,0,0,3.39-2.79,4.18,4.18,0,0,0,.13-1.15Z" transform="translate(-323.84 -194.63)"/><path class="cls-5" d="M966.88,589.15h-.06L963,591.07l-.67-3,5-2.5h3.3v20.8h-3.81Z" transform="translate(-323.84 -194.63)"/><path class="cls-6" d="M1204.9,646.27H1067c-10.66,0-19.3-9.07-19.3-20.26V529.59c0-11.19,8.64-20.26,19.3-20.26H1204.9c10.65,0,19.29,9.07,19.29,20.26V626C1224.19,637.2,1215.55,646.27,1204.9,646.27Z" transform="translate(-323.84 -194.63)"/><path class="cls-5" d="M1112,558.43h-8.13v6.33h9.09V568h-13V546.43h12.55v3.23h-8.61v5.57H1112Z" transform="translate(-323.84 -194.63)"/><path class="cls-5" d="M1118.39,552.41l2.53,7.9c.45,1.38.76,2.63,1,3.91h.1c.29-1.28.64-2.5,1-3.91l2.47-7.9h4.16l-6,15.58h-3.88l-5.79-15.58Z" transform="translate(-323.84 -194.63)"/><path class="cls-5" d="M1134.52,561.31c.09,2.81,2.3,4,4.8,4a11.7,11.7,0,0,0,4.32-.71l.57,2.72a14.54,14.54,0,0,1-5.44,1c-5,0-8-3.1-8-7.87,0-4.32,2.63-8.38,7.62-8.38s6.72,4.16,6.72,7.58a10.2,10.2,0,0,1-.13,1.67Zm6.85-2.76c0-1.44-.61-3.8-3.24-3.8-2.43,0-3.45,2.2-3.61,3.8Z" transform="translate(-323.84 -194.63)"/><path class="cls-5" d="M1148.24,557.05c0-1.79,0-3.3-.12-4.64h3.45l.19,2.34h.1a5.61,5.61,0,0,1,5-2.69c2.72,0,5.54,1.76,5.54,6.69V568h-3.94v-8.8c0-2.24-.83-3.93-3-3.93a3.32,3.32,0,0,0-3.08,2.3,3.94,3.94,0,0,0-.16,1.28V568h-4Z" transform="translate(-323.84 -194.63)"/><path class="cls-5" d="M1170.9,548v4.45h3.74v2.94h-3.74v6.88c0,1.89.51,2.88,2,2.88a5.61,5.61,0,0,0,1.53-.19l.07,3a8.8,8.8,0,0,1-2.85.38,4.54,4.54,0,0,1-3.39-1.28c-.83-.89-1.22-2.3-1.22-4.35v-7.33h-2.24v-2.94h2.24v-3.52Z" transform="translate(-323.84 -194.63)"/><path class="cls-5" d="M1082.07,595.83c0-2.11,0-3.61-.13-5h3.43l.12,3h.13a4.65,4.65,0,0,1,4.26-3.33,4.45,4.45,0,0,1,.93.09v3.72a5.17,5.17,0,0,0-1.16-.13,3.48,3.48,0,0,0-3.52,3,7.3,7.3,0,0,0-.12,1.22v8.06h-3.94Z" transform="translate(-323.84 -194.63)"/><path class="cls-5" d="M1096,599.71c.09,2.81,2.3,4,4.8,4a11.7,11.7,0,0,0,4.32-.71l.57,2.72a14.54,14.54,0,0,1-5.44,1c-5,0-8-3.1-8-7.87,0-4.32,2.63-8.38,7.62-8.38s6.72,4.16,6.72,7.58a10.2,10.2,0,0,1-.13,1.67Zm6.85-2.76c0-1.44-.61-3.8-3.24-3.8-2.43,0-3.45,2.2-3.61,3.8Z" transform="translate(-323.84 -194.63)"/><path class="cls-5" d="M1121.14,605.91a11.25,11.25,0,0,1-4.41.8c-4.87,0-8-3.1-8-7.93,0-4.67,3.2-8.32,8.68-8.32a9.91,9.91,0,0,1,3.8.73l-.7,2.95a6.91,6.91,0,0,0-3-.61c-3,0-4.8,2.21-4.76,5.06,0,3.2,2.08,5,4.76,5a7.72,7.72,0,0,0,3.11-.61Z" transform="translate(-323.84 -194.63)"/><path class="cls-5" d="M1138.58,598.46c0,5.73-4,8.28-8,8.28-4.41,0-7.81-3-7.81-8s3.36-8.25,8.07-8.25S1138.58,593.72,1138.58,598.46Zm-11.74.16c0,3,1.47,5.28,3.87,5.28,2.24,0,3.81-2.21,3.81-5.35,0-2.43-1.09-5.21-3.78-5.21S1126.84,596,1126.84,598.62Z" transform="translate(-323.84 -194.63)"/><path class="cls-5" d="M1141.81,595.83c0-2.11,0-3.61-.12-5h3.42l.13,3h.13a4.64,4.64,0,0,1,4.25-3.33,4.45,4.45,0,0,1,.93.09v3.72a5.07,5.07,0,0,0-1.15-.13,3.46,3.46,0,0,0-3.52,3,6.34,6.34,0,0,0-.13,1.22v8.06h-3.94Z" transform="translate(-323.84 -194.63)"/><path class="cls-5" d="M1167.28,583.67V602c0,1.6.07,3.33.13,4.38h-3.52l-.16-2.46h-.06a5.61,5.61,0,0,1-5.09,2.81c-3.71,0-6.65-3.16-6.65-8,0-5.22,3.23-8.32,7-8.32a4.94,4.94,0,0,1,4.38,2h.07v-8.84Zm-3.93,13.64a5.14,5.14,0,0,0-.1-1,3.45,3.45,0,0,0-3.39-2.78c-2.53,0-3.93,2.24-3.93,5.15s1.4,4.93,3.9,4.93a3.47,3.47,0,0,0,3.39-2.79,4.18,4.18,0,0,0,.13-1.15Z" transform="translate(-323.84 -194.63)"/><path class="cls-5" d="M1177.4,606.39V604l2.46-2.27c4.9-4.54,7.2-7,7.23-9.79,0-1.85-1-3.49-3.71-3.49a7.6,7.6,0,0,0-4.45,1.73l-1.15-2.78a10.27,10.27,0,0,1,6.4-2.15c4.61,0,6.85,2.92,6.85,6.31,0,3.64-2.63,6.59-6.24,10l-1.83,1.57v.06h8.55v3.26Z" transform="translate(-323.84 -194.63)"/><path class="cls-6" d="M1501.9,646.27H1266c-10.66,0-19.3-9.07-19.3-20.26V529.59c0-11.19,8.64-20.26,19.3-20.26H1501.9c10.65,0,19.29,9.07,19.29,20.26V626C1521.19,637.2,1512.55,646.27,1501.9,646.27Z" transform="translate(-323.84 -194.63)"/><path class="cls-5" d="M1359.32,558.43h-8.13v6.33h9.09V568h-13V546.43h12.55v3.23h-8.61v5.57h8.13Z" transform="translate(-323.84 -194.63)"/><path class="cls-5" d="M1365.75,552.41l2.53,7.9a39.52,39.52,0,0,1,1,3.91h.1c.29-1.28.64-2.5,1.06-3.91l2.46-7.9h4.16L1371.16,568h-3.87l-5.8-15.58Z" transform="translate(-323.84 -194.63)"/><path class="cls-5" d="M1381.88,561.31c.1,2.81,2.3,4,4.8,4a11.66,11.66,0,0,0,4.32-.71l.58,2.72a14.62,14.62,0,0,1-5.44,1c-5.06,0-8-3.1-8-7.87,0-4.32,2.63-8.38,7.62-8.38s6.72,4.16,6.72,7.58a10.2,10.2,0,0,1-.13,1.67Zm6.85-2.76c0-1.44-.61-3.8-3.24-3.8-2.43,0-3.45,2.2-3.61,3.8Z" transform="translate(-323.84 -194.63)"/><path class="cls-5" d="M1395.61,557.05c0-1.79,0-3.3-.13-4.64h3.45l.2,2.34h.09a5.62,5.62,0,0,1,5-2.69c2.72,0,5.54,1.76,5.54,6.69V568h-3.94v-8.8c0-2.24-.83-3.93-3-3.93a3.29,3.29,0,0,0-3.07,2.3,3.94,3.94,0,0,0-.16,1.28V568h-4Z" transform="translate(-323.84 -194.63)"/><path class="cls-5" d="M1418.26,548v4.45H1422v2.94h-3.75v6.88c0,1.89.51,2.88,2,2.88a5.76,5.76,0,0,0,1.54-.19l.06,3a8.8,8.8,0,0,1-2.85.38,4.56,4.56,0,0,1-3.39-1.28c-.83-.89-1.22-2.3-1.22-4.35v-7.33h-2.24v-2.94h2.24v-3.52Z" transform="translate(-323.84 -194.63)"/><path class="cls-5" d="M1329.43,595.83c0-2.11,0-3.61-.13-5h3.43l.13,3h.12a4.66,4.66,0,0,1,4.26-3.33,4.45,4.45,0,0,1,.93.09v3.72a5.14,5.14,0,0,0-1.15-.13,3.46,3.46,0,0,0-3.52,3,6.34,6.34,0,0,0-.13,1.22v8.06h-3.94Z" transform="translate(-323.84 -194.63)"/><path class="cls-5" d="M1343.32,599.71c.1,2.81,2.3,4,4.8,4a11.7,11.7,0,0,0,4.32-.71l.57,2.72a14.48,14.48,0,0,1-5.43,1c-5.06,0-8-3.1-8-7.87,0-4.32,2.63-8.38,7.62-8.38s6.72,4.16,6.72,7.58a9.18,9.18,0,0,1-.13,1.67Zm6.85-2.76c0-1.44-.61-3.8-3.23-3.8-2.44,0-3.46,2.2-3.62,3.8Z" transform="translate(-323.84 -194.63)"/><path class="cls-5" d="M1368.5,605.91a11.25,11.25,0,0,1-4.41.8c-4.87,0-8-3.1-8-7.93,0-4.67,3.2-8.32,8.67-8.32a9.87,9.87,0,0,1,3.8.73l-.7,2.95a6.9,6.9,0,0,0-3-.61c-3,0-4.8,2.21-4.77,5.06,0,3.2,2.08,5,4.77,5a7.7,7.7,0,0,0,3.1-.61Z" transform="translate(-323.84 -194.63)"/><path class="cls-5" d="M1385.94,598.46c0,5.73-4,8.28-8,8.28-4.41,0-7.8-3-7.8-8s3.35-8.25,8.06-8.25S1385.94,593.72,1385.94,598.46Zm-11.74.16c0,3,1.47,5.28,3.87,5.28,2.24,0,3.81-2.21,3.81-5.35,0-2.43-1.09-5.21-3.78-5.21S1374.2,596,1374.2,598.62Z" transform="translate(-323.84 -194.63)"/><path class="cls-5" d="M1389.18,595.83c0-2.11,0-3.61-.13-5h3.42l.13,3h.13a4.64,4.64,0,0,1,4.25-3.33,4.38,4.38,0,0,1,.93.09v3.72a5.07,5.07,0,0,0-1.15-.13,3.46,3.46,0,0,0-3.52,3,6.34,6.34,0,0,0-.13,1.22v8.06h-3.93Z" transform="translate(-323.84 -194.63)"/><path class="cls-5" d="M1414.65,583.67V602c0,1.6.06,3.33.12,4.38h-3.52l-.16-2.46H1411a5.6,5.6,0,0,1-5.09,2.81c-3.71,0-6.65-3.16-6.65-8,0-5.22,3.23-8.32,7-8.32a5,5,0,0,1,4.39,2h.06v-8.84Zm-3.94,13.64a6,6,0,0,0-.09-1,3.47,3.47,0,0,0-3.4-2.78c-2.52,0-3.93,2.24-3.93,5.15s1.41,4.93,3.9,4.93a3.47,3.47,0,0,0,3.39-2.79,4.18,4.18,0,0,0,.13-1.15Z" transform="translate(-323.84 -194.63)"/><path class="cls-5" d="M1425.56,602.33a10.28,10.28,0,0,0,4.73,1.28c3,0,4.23-1.7,4.2-3.33,0-2.46-2.31-3.52-4.71-3.52H1428v-2.88h1.76c1.82,0,4.13-.83,4.13-2.91,0-1.41-1.06-2.59-3.33-2.59a8.45,8.45,0,0,0-4.26,1.31l-.89-2.85a11.21,11.21,0,0,1,6-1.6c4.29,0,6.5,2.37,6.5,5.09,0,2.18-1.28,4-3.84,4.86v.07a5.26,5.26,0,0,1,4.57,5.18c0,3.52-2.94,6.3-8.09,6.3a11.44,11.44,0,0,1-5.83-1.43Z" transform="translate(-323.84 -194.63)"/><path class="cls-6" d="M1698.9,646.27H1563c-10.66,0-19.3-9.07-19.3-20.26V529.59c0-11.19,8.64-20.26,19.3-20.26H1698.9c10.65,0,19.29,9.07,19.29,20.26V626C1718.19,637.2,1709.55,646.27,1698.9,646.27Z" transform="translate(-323.84 -194.63)"/><path class="cls-5" d="M1607,558.43h-8.13v6.33h9.09V568h-13V546.43h12.55v3.23h-8.61v5.57H1607Z" transform="translate(-323.84 -194.63)"/><path class="cls-5" d="M1613.39,552.41l2.53,7.9c.45,1.38.76,2.63,1,3.91h.1c.29-1.28.64-2.5,1-3.91l2.47-7.9h4.16l-6,15.58h-3.88l-5.79-15.58Z" transform="translate(-323.84 -194.63)"/><path class="cls-5" d="M1629.52,561.31c.09,2.81,2.3,4,4.8,4a11.7,11.7,0,0,0,4.32-.71l.57,2.72a14.54,14.54,0,0,1-5.44,1c-5,0-8-3.1-8-7.87,0-4.32,2.63-8.38,7.62-8.38s6.72,4.16,6.72,7.58a10.2,10.2,0,0,1-.13,1.67Zm6.85-2.76c0-1.44-.61-3.8-3.24-3.8-2.43,0-3.45,2.2-3.61,3.8Z" transform="translate(-323.84 -194.63)"/><path class="cls-5" d="M1643.24,557.05c0-1.79,0-3.3-.12-4.64h3.45l.19,2.34h.1a5.61,5.61,0,0,1,5-2.69c2.72,0,5.54,1.76,5.54,6.69V568h-3.94v-8.8c0-2.24-.83-3.93-3-3.93a3.32,3.32,0,0,0-3.08,2.3,3.94,3.94,0,0,0-.16,1.28V568h-4Z" transform="translate(-323.84 -194.63)"/><path class="cls-5" d="M1665.9,548v4.45h3.74v2.94h-3.74v6.88c0,1.89.51,2.88,2,2.88a5.61,5.61,0,0,0,1.53-.19l.07,3a8.8,8.8,0,0,1-2.85.38,4.54,4.54,0,0,1-3.39-1.28c-.83-.89-1.22-2.3-1.22-4.35v-7.33h-2.24v-2.94h2.24v-3.52Z" transform="translate(-323.84 -194.63)"/><path class="cls-5" d="M1577.07,595.83c0-2.11,0-3.61-.13-5h3.43l.12,3h.13a4.65,4.65,0,0,1,4.26-3.33,4.45,4.45,0,0,1,.93.09v3.72a5.17,5.17,0,0,0-1.16-.13,3.48,3.48,0,0,0-3.52,3,7.3,7.3,0,0,0-.12,1.22v8.06h-3.94Z" transform="translate(-323.84 -194.63)"/><path class="cls-5" d="M1591,599.71c.09,2.81,2.3,4,4.8,4a11.7,11.7,0,0,0,4.32-.71l.57,2.72a14.54,14.54,0,0,1-5.44,1c-5,0-8-3.1-8-7.87,0-4.32,2.63-8.38,7.62-8.38s6.72,4.16,6.72,7.58a10.2,10.2,0,0,1-.13,1.67Zm6.85-2.76c0-1.44-.61-3.8-3.24-3.8-2.43,0-3.45,2.2-3.61,3.8Z" transform="translate(-323.84 -194.63)"/><path class="cls-5" d="M1616.14,605.91a11.25,11.25,0,0,1-4.41.8c-4.87,0-8-3.1-8-7.93,0-4.67,3.2-8.32,8.68-8.32a9.91,9.91,0,0,1,3.8.73l-.7,2.95a6.91,6.91,0,0,0-3-.61c-3,0-4.8,2.21-4.76,5.06,0,3.2,2.08,5,4.76,5a7.72,7.72,0,0,0,3.11-.61Z" transform="translate(-323.84 -194.63)"/><path class="cls-5" d="M1633.58,598.46c0,5.73-4,8.28-8,8.28-4.41,0-7.81-3-7.81-8s3.36-8.25,8.07-8.25S1633.58,593.72,1633.58,598.46Zm-11.74.16c0,3,1.47,5.28,3.87,5.28,2.24,0,3.81-2.21,3.81-5.35,0-2.43-1.09-5.21-3.78-5.21S1621.84,596,1621.84,598.62Z" transform="translate(-323.84 -194.63)"/><path class="cls-5" d="M1636.81,595.83c0-2.11,0-3.61-.12-5h3.42l.13,3h.13a4.64,4.64,0,0,1,4.25-3.33,4.45,4.45,0,0,1,.93.09v3.72a5.07,5.07,0,0,0-1.15-.13,3.46,3.46,0,0,0-3.52,3,6.34,6.34,0,0,0-.13,1.22v8.06h-3.94Z" transform="translate(-323.84 -194.63)"/><path class="cls-5" d="M1662.28,583.67V602c0,1.6.07,3.33.13,4.38h-3.52l-.16-2.46h-.06a5.61,5.61,0,0,1-5.09,2.81c-3.71,0-6.65-3.16-6.65-8,0-5.22,3.23-8.32,7-8.32a4.94,4.94,0,0,1,4.38,2h.07v-8.84Zm-3.93,13.64a5.14,5.14,0,0,0-.1-1,3.45,3.45,0,0,0-3.39-2.78c-2.53,0-3.93,2.24-3.93,5.15s1.4,4.93,3.9,4.93a3.47,3.47,0,0,0,3.39-2.79,4.18,4.18,0,0,0,.13-1.15Z" transform="translate(-323.84 -194.63)"/><path class="cls-5" d="M1681.07,606.39v-5.28h-9.41v-2.56l8.48-13h4.64v12.55h2.69v3h-2.69v5.28Zm0-8.25v-5.67c0-1.18,0-2.39.13-3.61h-.13c-.64,1.31-1.19,2.37-1.83,3.52l-3.8,5.69,0,.07Z" transform="translate(-323.84 -194.63)"/><path class="cls-7" d="M972.93,712.48a13.66,13.66,0,0,1-5.57,1c-6.85,0-11-4.29-11-10.85,0-7.1,4.93-11.39,11.52-11.39a12.35,12.35,0,0,1,5.25,1l-.87,3.14a10.4,10.4,0,0,0-4.22-.84c-4.38,0-7.55,2.75-7.55,7.94,0,4.73,2.78,7.77,7.52,7.77a11.05,11.05,0,0,0,4.29-.8Z" transform="translate(-323.84 -194.63)"/><path class="cls-7" d="M981.05,694.85h-6.14v-3.3H991.2v3.3H985v18.27h-3.94Z" transform="translate(-323.84 -194.63)"/><path class="cls-7" d="M993.73,691.55h12.44v3.23h-8.51v6h7.94V704h-7.94v9.15h-3.93Z" transform="translate(-323.84 -194.63)"/><path class="cls-7" d="M1016.48,702.72c0-2.05-.07-3.71-.13-5.18h3.45l.2,2.4h.06a6.05,6.05,0,0,1,5.34-2.76c3.59,0,6.56,3.07,6.56,7.94,0,5.63-3.55,8.35-7.1,8.35a5.11,5.11,0,0,1-4.38-2.08h-.07v8.06h-3.93Zm3.93,3.87a3.92,3.92,0,0,0,.13,1.09,3.55,3.55,0,0,0,3.46,2.75c2.49,0,4-2.08,4-5.15,0-2.75-1.34-5-3.87-5a3.67,3.67,0,0,0-3.52,2.91,3.79,3.79,0,0,0-.16,1Z" transform="translate(-323.84 -194.63)"/><path class="cls-7" d="M1044,713.12l-.25-1.73h-.1a5.77,5.77,0,0,1-4.6,2.08,4.63,4.63,0,0,1-4.9-4.64c0-3.94,3.49-5.92,9.25-5.89v-.25c0-1-.42-2.72-3.17-2.72a8.24,8.24,0,0,0-4.19,1.15l-.77-2.56a11.26,11.26,0,0,1,5.63-1.38c5,0,6.43,3.17,6.43,6.56v5.63a25,25,0,0,0,.23,3.75Zm-.51-7.62c-2.78-.06-5.44.55-5.44,2.91a2.07,2.07,0,0,0,2.24,2.24,3.2,3.2,0,0,0,3.08-2.14,3,3,0,0,0,.12-.86Z" transform="translate(-323.84 -194.63)"/><path class="cls-7" d="M1062.91,712.64a11.45,11.45,0,0,1-4.42.8c-4.86,0-8-3.11-8-7.94,0-4.67,3.2-8.32,8.67-8.32a9.77,9.77,0,0,1,3.81.74l-.7,2.94a7.07,7.07,0,0,0-3-.61c-3,0-4.8,2.21-4.77,5.06,0,3.2,2.08,5,4.77,5a7.74,7.74,0,0,0,3.11-.6Z" transform="translate(-323.84 -194.63)"/><path class="cls-7" d="M1069.76,704.38h.06c.38-.61.83-1.28,1.25-1.82l3.77-5h4.74l-5.76,6.36,6.59,9.22h-4.83l-4.48-6.88-1.34,1.57v5.31h-3.94V690.4h3.94Z" transform="translate(-323.84 -194.63)"/><path class="cls-7" d="M1084.67,706.43c.09,2.82,2.3,4,4.8,4a11.71,11.71,0,0,0,4.32-.7l.57,2.72a14.74,14.74,0,0,1-5.44,1c-5.05,0-8-3.11-8-7.87,0-4.32,2.63-8.39,7.62-8.39s6.72,4.16,6.72,7.59a10.05,10.05,0,0,1-.13,1.66Zm6.85-2.75c0-1.44-.61-3.81-3.24-3.81-2.43,0-3.45,2.21-3.61,3.81Z" transform="translate(-323.84 -194.63)"/><path class="cls-7" d="M1102.91,693.09v4.45h3.74v2.94h-3.74v6.88c0,1.89.51,2.88,2,2.88a6.07,6.07,0,0,0,1.54-.19l.06,3a8.41,8.41,0,0,1-2.84.39,4.58,4.58,0,0,1-3.4-1.28c-.83-.9-1.21-2.31-1.21-4.35v-7.33h-2.24v-2.94h2.24V694Z" transform="translate(-323.84 -194.63)"/><line class="cls-8" x1="1403.73" y1="298.32" x2="768.27" y2="108.39"/><line class="cls-8" x1="11.71" y1="298.09" x2="686.41" y2="108.09"/><path class="cls-9" d="M960.84,211.19a10.28,10.28,0,0,1-4.18.72c-5.14,0-8.26-3.22-8.26-8.14,0-5.33,3.7-8.54,8.64-8.54A9.33,9.33,0,0,1,961,196l-.65,2.35a7.79,7.79,0,0,0-3.17-.62c-3.29,0-5.66,2.06-5.66,5.95,0,3.55,2.09,5.83,5.64,5.83a8.29,8.29,0,0,0,3.22-.6Z" transform="translate(-323.84 -194.63)"/><path class="cls-9" d="M966.93,198h-4.61v-2.47h12.22V198h-4.66v13.71h-3Z" transform="translate(-323.84 -194.63)"/><path class="cls-9" d="M976.43,195.49h9.34v2.43h-6.38v4.46h6v2.42h-6v6.87h-3Z" transform="translate(-323.84 -194.63)"/><path class="cls-9" d="M1004.27,194.63v13.75c0,1.2.05,2.5.1,3.29h-2.64l-.12-1.85h-.05a4.19,4.19,0,0,1-3.81,2.11c-2.79,0-5-2.37-5-6,0-3.92,2.43-6.24,5.24-6.24a3.71,3.71,0,0,1,3.28,1.53h.05v-6.62Zm-2.95,10.22a4,4,0,0,0-.07-.77,2.58,2.58,0,0,0-2.54-2.08c-1.9,0-3,1.68-3,3.86s1.06,3.7,2.93,3.7a2.62,2.62,0,0,0,2.55-2.09,3.42,3.42,0,0,0,.09-.87Z" transform="translate(-323.84 -194.63)"/><path class="cls-9" d="M1014,211.67l-.19-1.3h-.08a4.31,4.31,0,0,1-3.45,1.56,3.48,3.48,0,0,1-3.68-3.48c0-2.95,2.62-4.44,6.94-4.41v-.2c0-.76-.31-2-2.37-2a6.13,6.13,0,0,0-3.15.87l-.58-1.92a8.43,8.43,0,0,1,4.23-1c3.74,0,4.82,2.37,4.82,4.92v4.22a18.71,18.71,0,0,0,.17,2.81Zm-.39-5.71c-2.08-.05-4.08.4-4.08,2.18a1.55,1.55,0,0,0,1.68,1.68,2.4,2.4,0,0,0,2.31-1.61,2.12,2.12,0,0,0,.09-.65Z" transform="translate(-323.84 -194.63)"/><path class="cls-9" d="M1022.87,196.64V200h2.81v2.21h-2.81v5.16c0,1.41.39,2.16,1.52,2.16a4.05,4.05,0,0,0,1.15-.15l0,2.26a6.47,6.47,0,0,1-2.14.29,3.4,3.4,0,0,1-2.54-1,4.63,4.63,0,0,1-.92-3.27v-5.49h-1.68V200H1020v-2.64Z" transform="translate(-323.84 -194.63)"/><path class="cls-9" d="M1034.49,211.67l-.19-1.3h-.07a4.33,4.33,0,0,1-3.46,1.56,3.47,3.47,0,0,1-3.67-3.48c0-2.95,2.61-4.44,6.93-4.41v-.2c0-.76-.31-2-2.37-2a6.13,6.13,0,0,0-3.15.87l-.57-1.92a8.36,8.36,0,0,1,4.22-1c3.75,0,4.83,2.37,4.83,4.92v4.22a18.86,18.86,0,0,0,.16,2.81Zm-.38-5.71c-2.09-.05-4.08.4-4.08,2.18a1.55,1.55,0,0,0,1.67,1.68,2.4,2.4,0,0,0,2.31-1.61,2.14,2.14,0,0,0,.1-.65Z" transform="translate(-323.84 -194.63)"/><path class="cls-9" d="M1044.93,209a6.66,6.66,0,0,0,3,.84c1.29,0,1.87-.53,1.87-1.3s-.48-1.2-1.92-1.7c-2.28-.8-3.24-2-3.22-3.41,0-2.07,1.71-3.67,4.42-3.67a6.9,6.9,0,0,1,3.1.69l-.58,2.09a5.21,5.21,0,0,0-2.47-.67c-1.06,0-1.63.5-1.63,1.22s.55,1.11,2,1.63c2.11.77,3.09,1.85,3.12,3.58,0,2.11-1.66,3.65-4.75,3.65a7.58,7.58,0,0,1-3.56-.82Z" transform="translate(-323.84 -194.63)"/><path class="cls-9" d="M1058.46,196.64V200h2.81v2.21h-2.81v5.16c0,1.41.39,2.16,1.52,2.16a4,4,0,0,0,1.15-.15l0,2.26a6.47,6.47,0,0,1-2.14.29,3.4,3.4,0,0,1-2.54-1,4.63,4.63,0,0,1-.92-3.27v-5.49h-1.68V200h1.68v-2.64Z" transform="translate(-323.84 -194.63)"/><path class="cls-9" d="M1063.5,203.75c0-1.59,0-2.71-.09-3.77H1066l.09,2.23h.1a3.48,3.48,0,0,1,3.19-2.49,3,3,0,0,1,.7.07v2.78a4.08,4.08,0,0,0-.87-.09,2.61,2.61,0,0,0-2.64,2.23,4.83,4.83,0,0,0-.09.91v6h-3Z" transform="translate(-323.84 -194.63)"/><path class="cls-9" d="M1073.92,206.65c.07,2.11,1.73,3,3.6,3a8.91,8.91,0,0,0,3.24-.53l.43,2a10.93,10.93,0,0,1-4.08.72c-3.79,0-6-2.33-6-5.91,0-3.24,2-6.28,5.71-6.28s5,3.12,5,5.68a6.9,6.9,0,0,1-.1,1.25Zm5.14-2.06c0-1.08-.46-2.86-2.43-2.86a2.89,2.89,0,0,0-2.71,2.86Z" transform="translate(-323.84 -194.63)"/><path class="cls-9" d="M1090.79,211.67l-.19-1.3h-.07a4.33,4.33,0,0,1-3.46,1.56,3.47,3.47,0,0,1-3.67-3.48c0-2.95,2.62-4.44,6.94-4.41v-.2c0-.76-.32-2-2.38-2a6.12,6.12,0,0,0-3.14.87l-.58-1.92a8.39,8.39,0,0,1,4.22-1c3.75,0,4.83,2.37,4.83,4.92v4.22a18.71,18.71,0,0,0,.17,2.81Zm-.38-5.71c-2.09-.05-4.08.4-4.08,2.18a1.55,1.55,0,0,0,1.68,1.68,2.39,2.39,0,0,0,2.3-1.61,2.14,2.14,0,0,0,.1-.65Z" transform="translate(-323.84 -194.63)"/><path class="cls-9" d="M1096.41,203.46c0-1.34,0-2.47-.1-3.48h2.55l.12,1.73h.07a4,4,0,0,1,3.6-2,3.38,3.38,0,0,1,3.24,2.16h0a4.41,4.41,0,0,1,1.44-1.47,3.94,3.94,0,0,1,2.35-.69c1.94,0,3.91,1.32,3.91,5.06v6.89h-2.88v-6.46c0-1.94-.67-3.09-2.09-3.09a2.24,2.24,0,0,0-2.06,1.56,4.19,4.19,0,0,0-.15,1v7h-2.88V204.9c0-1.63-.64-2.78-2-2.78a2.29,2.29,0,0,0-2.11,1.68,2.49,2.49,0,0,0-.17,1v6.91h-2.88Z" transform="translate(-323.84 -194.63)"/></svg>