<svg id="Layer_1" data-name="Layer 1" xmlns="http://www.w3.org/2000/svg" viewBox="0 0 956.03 519.39"><defs><style>.cls-1{fill:#3b97d3;stroke:#206d99;}.cls-1,.cls-2,.cls-5,.cls-6,.cls-7{stroke-miterlimit:10;stroke-width:2px;}.cls-2{fill:#965ba5;stroke:#894b9d;}.cls-3{fill:#fff;}.cls-4{fill:#206d99;}.cls-5{fill:#4eba6e;stroke:#1a8947;}.cls-6{fill:#e57e25;stroke:#d25627;}.cls-7{fill:none;stroke:#216d99;}.cls-8{fill:#1a8947;}</style></defs><title>ctf-event-record</title><rect class="cls-1" x="1" y="296.26" width="954.03" height="176.94" rx="20.26"/><path class="cls-2" d="M536.75,646.27H363.81c-10.65,0-19.29-9.07-19.29-20.26V529.59c0-11.19,8.64-20.26,19.29-20.26H536.75c10.66,0,19.3,9.07,19.3,20.26V626C556.05,637.2,547.41,646.27,536.75,646.27Z" transform="translate(-323.84 -194.08)"/><path class="cls-3" d="M405.7,565.63v8.64h9.12v-8.64h3.93v21.56h-3.93v-9.5H405.7v9.5h-3.94V565.63Z" transform="translate(-323.84 -194.08)"/><path class="cls-3" d="M425.89,580.51c.1,2.81,2.3,4,4.8,4a11.66,11.66,0,0,0,4.32-.71l.58,2.72a14.58,14.58,0,0,1-5.44,1c-5.06,0-8-3.1-8-7.87,0-4.32,2.62-8.38,7.61-8.38s6.72,4.16,6.72,7.58a9.09,9.09,0,0,1-.13,1.67Zm6.85-2.76c0-1.43-.61-3.8-3.23-3.8-2.44,0-3.46,2.21-3.62,3.8Z" transform="translate(-323.84 -194.08)"/><path class="cls-3" d="M448.39,587.19l-.26-1.72H448a5.8,5.8,0,0,1-4.6,2.08,4.63,4.63,0,0,1-4.9-4.64c0-3.94,3.49-5.92,9.25-5.89v-.26c0-1-.42-2.72-3.17-2.72a8.14,8.14,0,0,0-4.19,1.16l-.77-2.56a11.15,11.15,0,0,1,5.63-1.38c5,0,6.43,3.17,6.43,6.56v5.63a24.83,24.83,0,0,0,.23,3.74Zm-.52-7.61c-2.78-.07-5.44.54-5.44,2.91a2.07,2.07,0,0,0,2.24,2.24,3.2,3.2,0,0,0,3.08-2.14,3,3,0,0,0,.12-.87Z" transform="translate(-323.84 -194.08)"/><path class="cls-3" d="M470.24,564.48v18.33c0,1.6.07,3.33.13,4.38h-3.52l-.16-2.46h-.06a5.62,5.62,0,0,1-5.09,2.82c-3.71,0-6.66-3.17-6.66-8,0-5.22,3.23-8.32,7-8.32a5,5,0,0,1,4.38,2h.07v-8.83Zm-3.93,13.63a6,6,0,0,0-.1-1,3.45,3.45,0,0,0-3.39-2.78c-2.53,0-3.94,2.24-3.94,5.15s1.41,4.93,3.91,4.93a3.48,3.48,0,0,0,3.39-2.79,4.6,4.6,0,0,0,.13-1.15Z" transform="translate(-323.84 -194.08)"/><path class="cls-3" d="M477.25,580.51c.1,2.81,2.3,4,4.8,4a11.66,11.66,0,0,0,4.32-.71l.58,2.72a14.58,14.58,0,0,1-5.44,1c-5.06,0-8-3.1-8-7.87,0-4.32,2.63-8.38,7.62-8.38s6.72,4.16,6.72,7.58a9.09,9.09,0,0,1-.13,1.67Zm6.85-2.76c0-1.43-.61-3.8-3.23-3.8-2.44,0-3.46,2.21-3.62,3.8Z" transform="translate(-323.84 -194.08)"/><path class="cls-3" d="M491,576.63c0-2.11,0-3.61-.13-5h3.42l.13,3h.13a4.65,4.65,0,0,1,4.26-3.33,3.76,3.76,0,0,1,.92.1v3.71a5.07,5.07,0,0,0-1.15-.13,3.47,3.47,0,0,0-3.52,3,7.25,7.25,0,0,0-.13,1.22v8.06H491Z" transform="translate(-323.84 -194.08)"/><path class="cls-4" d="M702.9,712.48a13.66,13.66,0,0,1-5.57,1c-6.85,0-11-4.29-11-10.85,0-7.1,4.93-11.39,11.52-11.39a12.35,12.35,0,0,1,5.25,1l-.86,3.14a10.49,10.49,0,0,0-4.23-.84c-4.38,0-7.55,2.75-7.55,7.94,0,4.73,2.78,7.77,7.52,7.77a11.05,11.05,0,0,0,4.29-.8Z" transform="translate(-323.84 -194.08)"/><path class="cls-4" d="M711,694.85h-6.15v-3.3h16.29v3.3H715v18.27H711Z" transform="translate(-323.84 -194.08)"/><path class="cls-4" d="M723.7,691.55h12.45v3.23h-8.52v6h7.94V704h-7.94v9.15H723.7Z" transform="translate(-323.84 -194.08)"/><path class="cls-4" d="M749.23,706.43c.1,2.82,2.31,4,4.8,4a11.64,11.64,0,0,0,4.32-.7l.58,2.72a14.78,14.78,0,0,1-5.44,1c-5.06,0-8-3.11-8-7.87,0-4.32,2.62-8.39,7.61-8.39s6.72,4.16,6.72,7.59a9,9,0,0,1-.13,1.66Zm6.85-2.75c0-1.44-.61-3.81-3.23-3.81-2.43,0-3.46,2.21-3.62,3.81Z" transform="translate(-323.84 -194.08)"/><path class="cls-4" d="M765.36,697.54l2.53,7.9a38.63,38.63,0,0,1,1.05,3.9h.1c.29-1.28.64-2.49,1.06-3.9l2.46-7.9h4.16l-6,15.58H766.9l-5.8-15.58Z" transform="translate(-323.84 -194.08)"/><path class="cls-4" d="M781.49,706.43c.09,2.82,2.3,4,4.8,4a11.71,11.71,0,0,0,4.32-.7l.57,2.72a14.7,14.7,0,0,1-5.44,1c-5,0-8-3.11-8-7.87,0-4.32,2.63-8.39,7.62-8.39s6.72,4.16,6.72,7.59a10.05,10.05,0,0,1-.13,1.66Zm6.85-2.75c0-1.44-.61-3.81-3.23-3.81-2.44,0-3.46,2.21-3.62,3.81Z" transform="translate(-323.84 -194.08)"/><path class="cls-4" d="M795.22,702.17c0-1.79,0-3.29-.13-4.63h3.45l.2,2.33h.09a5.63,5.63,0,0,1,5-2.69c2.72,0,5.54,1.76,5.54,6.69v9.25h-3.94v-8.8c0-2.24-.83-3.94-3-3.94a3.31,3.31,0,0,0-3.08,2.31,4.23,4.23,0,0,0-.16,1.28v9.15h-4Z" transform="translate(-323.84 -194.08)"/><path class="cls-4" d="M817.87,693.09v4.45h3.75v2.94h-3.75v6.88c0,1.89.51,2.88,2,2.88a6,6,0,0,0,1.53-.19l.07,3a8.48,8.48,0,0,1-2.85.39,4.54,4.54,0,0,1-3.39-1.28c-.83-.9-1.22-2.31-1.22-4.35v-7.33h-2.24v-2.94H814V694Z" transform="translate(-323.84 -194.08)"/><path class="cls-4" d="M831.22,702.56c0-2.11,0-3.62-.13-5h3.42l.13,3h.13a4.65,4.65,0,0,1,4.25-3.33,3.79,3.79,0,0,1,.93.1V701a5.71,5.71,0,0,0-1.15-.13,3.47,3.47,0,0,0-3.52,3,7.12,7.12,0,0,0-.13,1.21v8.07h-3.93Z" transform="translate(-323.84 -194.08)"/><path class="cls-4" d="M845.1,706.43c.1,2.82,2.31,4,4.8,4a11.64,11.64,0,0,0,4.32-.7l.58,2.72a14.74,14.74,0,0,1-5.44,1c-5.06,0-8-3.11-8-7.87,0-4.32,2.62-8.39,7.61-8.39s6.72,4.16,6.72,7.59a10.3,10.3,0,0,1-.12,1.66Zm6.85-2.75c0-1.44-.61-3.81-3.23-3.81-2.43,0-3.46,2.21-3.62,3.81Z" transform="translate(-323.84 -194.08)"/><path class="cls-4" d="M870.29,712.64a11.49,11.49,0,0,1-4.42.8c-4.86,0-8-3.11-8-7.94,0-4.67,3.2-8.32,8.67-8.32a9.77,9.77,0,0,1,3.81.74l-.7,2.94a7.07,7.07,0,0,0-3-.61c-3,0-4.8,2.21-4.77,5.06,0,3.2,2.08,5,4.77,5a7.65,7.65,0,0,0,3.1-.6Z" transform="translate(-323.84 -194.08)"/><path class="cls-4" d="M887.73,705.18c0,5.73-4,8.29-8,8.29-4.42,0-7.81-3-7.81-8s3.36-8.26,8.06-8.26S887.73,700.45,887.73,705.18Zm-11.75.16c0,3,1.48,5.28,3.88,5.28,2.24,0,3.8-2.21,3.8-5.34,0-2.43-1.08-5.22-3.77-5.22S876,702.75,876,705.34Z" transform="translate(-323.84 -194.08)"/><path class="cls-4" d="M891,702.56c0-2.11,0-3.62-.13-5h3.43l.12,3h.13a4.65,4.65,0,0,1,4.26-3.33,3.84,3.84,0,0,1,.93.1V701a5.82,5.82,0,0,0-1.16-.13,3.49,3.49,0,0,0-3.52,3,7.18,7.18,0,0,0-.12,1.21v8.07H891Z" transform="translate(-323.84 -194.08)"/><path class="cls-4" d="M916.43,690.4v18.33c0,1.6.06,3.33.13,4.39H913l-.16-2.47h-.06a5.62,5.62,0,0,1-5.09,2.82c-3.71,0-6.66-3.17-6.66-8,0-5.21,3.23-8.32,7-8.32a5,5,0,0,1,4.38,2.05h.06V690.4ZM912.49,704a5.86,5.86,0,0,0-.09-1,3.45,3.45,0,0,0-3.39-2.79c-2.53,0-3.94,2.24-3.94,5.15s1.41,4.93,3.91,4.93a3.48,3.48,0,0,0,3.39-2.78,4.67,4.67,0,0,0,.12-1.15Z" transform="translate(-323.84 -194.08)"/><path class="cls-2" d="M770.75,646.27H597.81c-10.65,0-19.29-9.07-19.29-20.26V529.59c0-11.19,8.64-20.26,19.29-20.26H770.75c10.66,0,19.3,9.07,19.3,20.26V626C790.05,637.2,781.41,646.27,770.75,646.27Z" transform="translate(-323.84 -194.08)"/><path class="cls-3" d="M638.11,567.35a13.56,13.56,0,0,1-5.56,1c-6.85,0-11-4.28-11-10.84,0-7.11,4.93-11.39,11.52-11.39a12.35,12.35,0,0,1,5.25,1l-.87,3.13a10.42,10.42,0,0,0-4.22-.83c-4.39,0-7.55,2.75-7.55,7.93,0,4.74,2.78,7.78,7.52,7.78a11,11,0,0,0,4.28-.8Z" transform="translate(-323.84 -194.08)"/><path class="cls-3" d="M655.62,560.06c0,5.73-4,8.28-8,8.28-4.42,0-7.81-3-7.81-8s3.36-8.25,8.06-8.25S655.62,555.32,655.62,560.06Zm-11.75.16c0,3,1.48,5.28,3.88,5.28,2.24,0,3.8-2.21,3.8-5.35,0-2.43-1.08-5.21-3.77-5.21S643.87,557.63,643.87,560.22Z" transform="translate(-323.84 -194.08)"/><path class="cls-3" d="M658.85,557.05c0-1.79,0-3.3-.13-4.64h3.39l.16,2.3h.1a5.41,5.41,0,0,1,4.8-2.65,4.49,4.49,0,0,1,4.32,2.88h.06a5.87,5.87,0,0,1,1.92-2,5.22,5.22,0,0,1,3.14-.93c2.59,0,5.22,1.76,5.22,6.75V568H678v-8.6c0-2.6-.9-4.13-2.79-4.13a3,3,0,0,0-2.75,2.08,5.37,5.37,0,0,0-.19,1.31V568h-3.84v-9c0-2.18-.87-3.71-2.69-3.71a3.09,3.09,0,0,0-2.82,2.24,3.35,3.35,0,0,0-.22,1.28V568h-3.84Z" transform="translate(-323.84 -194.08)"/><path class="cls-3" d="M686,557.05c0-1.79,0-3.3-.13-4.64h3.39l.16,2.3h.1a5.38,5.38,0,0,1,4.8-2.65,4.51,4.51,0,0,1,4.32,2.88h.06a5.69,5.69,0,0,1,1.92-2,5.2,5.2,0,0,1,3.14-.93c2.59,0,5.21,1.76,5.21,6.75V568h-3.84v-8.6c0-2.6-.89-4.13-2.78-4.13a3,3,0,0,0-2.75,2.08,5.37,5.37,0,0,0-.2,1.31V568h-3.84v-9c0-2.18-.86-3.71-2.68-3.71a3.07,3.07,0,0,0-2.82,2.24,3.35,3.35,0,0,0-.22,1.28V568H686Z" transform="translate(-323.84 -194.08)"/><path class="cls-3" d="M727.94,560.06c0,5.73-4,8.28-8,8.28-4.42,0-7.81-3-7.81-8s3.36-8.25,8.06-8.25S727.94,555.32,727.94,560.06Zm-11.75.16c0,3,1.48,5.28,3.88,5.28,2.24,0,3.8-2.21,3.8-5.35,0-2.43-1.08-5.21-3.77-5.21S716.19,557.63,716.19,560.22Z" transform="translate(-323.84 -194.08)"/><path class="cls-3" d="M731.17,557.05c0-1.79,0-3.3-.13-4.64h3.46l.19,2.34h.1a5.6,5.6,0,0,1,5-2.69c2.72,0,5.53,1.76,5.53,6.69V568h-3.93v-8.8c0-2.24-.84-3.93-3-3.93a3.29,3.29,0,0,0-3.07,2.3,3.94,3.94,0,0,0-.16,1.28V568h-4Z" transform="translate(-323.84 -194.08)"/><path class="cls-3" d="M644.93,605.91a11.26,11.26,0,0,1-4.42.8c-4.86,0-8-3.1-8-7.93,0-4.67,3.2-8.32,8.67-8.32a9.93,9.93,0,0,1,3.81.73l-.7,2.95a6.91,6.91,0,0,0-3-.61c-3,0-4.8,2.21-4.77,5.06,0,3.2,2.08,5,4.77,5a7.72,7.72,0,0,0,3.11-.61Z" transform="translate(-323.84 -194.08)"/><path class="cls-3" d="M662.37,598.46c0,5.73-4,8.28-8,8.28-4.42,0-7.81-3-7.81-8s3.36-8.25,8.07-8.25S662.37,593.72,662.37,598.46Zm-11.74.16c0,3,1.47,5.28,3.87,5.28,2.24,0,3.81-2.21,3.81-5.35,0-2.43-1.09-5.21-3.78-5.21S650.63,596,650.63,598.62Z" transform="translate(-323.84 -194.08)"/><path class="cls-3" d="M665.6,595.45c0-1.79,0-3.3-.13-4.64h3.46l.19,2.34h.1a5.61,5.61,0,0,1,5-2.69c2.72,0,5.53,1.76,5.53,6.69v9.24h-3.93v-8.8c0-2.24-.83-3.93-3-3.93a3.3,3.3,0,0,0-3.07,2.3,3.94,3.94,0,0,0-.16,1.28v9.15h-4Z" transform="translate(-323.84 -194.08)"/><path class="cls-3" d="M688.26,586.36v4.45H692v2.94h-3.74v6.88c0,1.89.51,2.88,2,2.88a5.64,5.64,0,0,0,1.54-.19l.06,3a8.73,8.73,0,0,1-2.84.38,4.58,4.58,0,0,1-3.4-1.28c-.83-.89-1.21-2.3-1.21-4.35v-7.33h-2.24v-2.94h2.24v-3.52Z" transform="translate(-323.84 -194.08)"/><path class="cls-3" d="M697.57,599.71c.1,2.81,2.3,4,4.8,4a11.66,11.66,0,0,0,4.32-.71l.58,2.72a14.58,14.58,0,0,1-5.44,1c-5.06,0-8-3.1-8-7.87,0-4.32,2.63-8.38,7.62-8.38s6.72,4.16,6.72,7.58a9.18,9.18,0,0,1-.13,1.67Zm6.85-2.76c0-1.44-.61-3.8-3.23-3.8-2.44,0-3.46,2.2-3.62,3.8Z" transform="translate(-323.84 -194.08)"/><path class="cls-3" d="M713.67,590.81l1.85,2.94c.51.84,1,1.6,1.41,2.4h.1c.44-.86.89-1.66,1.34-2.46l1.73-2.88h4.29l-5.22,7.49,5.31,8.09H720l-1.92-3.1c-.51-.83-1-1.66-1.4-2.53h-.07c-.45.9-.89,1.67-1.41,2.53l-1.79,3.1h-4.35l5.41-7.93-5.22-7.65Z" transform="translate(-323.84 -194.08)"/><path class="cls-3" d="M731.78,586.36v4.45h3.74v2.94h-3.74v6.88c0,1.89.51,2.88,2,2.88a5.64,5.64,0,0,0,1.54-.19l.06,3a8.73,8.73,0,0,1-2.84.38,4.58,4.58,0,0,1-3.4-1.28c-.83-.89-1.21-2.3-1.21-4.35v-7.33H725.7v-2.94h2.24v-3.52Z" transform="translate(-323.84 -194.08)"/><path class="cls-2" d="M1004.75,646.27H831.81c-10.65,0-19.29-9.07-19.29-20.26V529.59c0-11.19,8.64-20.26,19.29-20.26h172.94c10.66,0,19.3,9.07,19.3,20.26V626C1024.05,637.2,1015.41,646.27,1004.75,646.27Z" transform="translate(-323.84 -194.08)"/><path class="cls-3" d="M866.72,563.7a10.86,10.86,0,0,0,5.22,1.38c2.53,0,3.93-1.18,3.93-2.94s-1.08-2.59-3.84-3.59c-3.55-1.28-5.82-3.16-5.82-6.27,0-3.52,2.95-6.2,7.62-6.2a11.49,11.49,0,0,1,5.18,1.08l-1,3.17a9.09,9.09,0,0,0-4.29-1c-2.49,0-3.58,1.34-3.58,2.59,0,1.66,1.25,2.43,4.13,3.55,3.74,1.41,5.56,3.3,5.56,6.4,0,3.46-2.62,6.46-8.19,6.46a12.84,12.84,0,0,1-5.82-1.34Z" transform="translate(-323.84 -194.08)"/><path class="cls-3" d="M883.27,557.59c0-2-.07-3.71-.13-5.18h3.45l.2,2.4h.06a6.07,6.07,0,0,1,5.34-2.75c3.59,0,6.56,3.07,6.56,7.93,0,5.63-3.55,8.35-7.1,8.35a5.13,5.13,0,0,1-4.38-2.07h-.07v8.06h-3.93Zm3.93,3.88a4.26,4.26,0,0,0,.13,1.08,3.56,3.56,0,0,0,3.46,2.76c2.49,0,4-2.08,4-5.16,0-2.75-1.34-5-3.87-5a3.68,3.68,0,0,0-3.52,2.91,3.86,3.86,0,0,0-.16,1Z" transform="translate(-323.84 -194.08)"/><path class="cls-3" d="M904.77,561.31c.1,2.81,2.31,4,4.8,4a11.66,11.66,0,0,0,4.32-.71l.58,2.72a14.58,14.58,0,0,1-5.44,1c-5.06,0-8-3.1-8-7.87,0-4.32,2.63-8.38,7.62-8.38s6.72,4.16,6.72,7.58a9.18,9.18,0,0,1-.13,1.67Zm6.85-2.76c0-1.44-.61-3.8-3.23-3.8-2.44,0-3.46,2.2-3.62,3.8Z" transform="translate(-323.84 -194.08)"/><path class="cls-3" d="M930,567.51a11.25,11.25,0,0,1-4.41.8c-4.87,0-8-3.1-8-7.93,0-4.67,3.2-8.32,8.67-8.32a10,10,0,0,1,3.81.73l-.71,3a6.9,6.9,0,0,0-3-.61c-3,0-4.8,2.21-4.77,5.06,0,3.2,2.08,5,4.77,5a7.7,7.7,0,0,0,3.1-.61Z" transform="translate(-323.84 -194.08)"/><path class="cls-3" d="M937.06,548.06a2.21,2.21,0,1,1-2.21-2.15A2.09,2.09,0,0,1,937.06,548.06ZM932.87,568V552.41h4V568Z" transform="translate(-323.84 -194.08)"/><path class="cls-3" d="M941.51,568V555.35h-2.12v-2.94h2.12v-.74c0-4.19,2.91-6.75,7.55-6.75a9.34,9.34,0,0,1,4.29,1l-.87,3a7.07,7.07,0,0,0-3.42-.83c-2.75,0-3.65,1.66-3.65,3.71v.64h9.31V568h-4V555.35h-5.31V568Z" transform="translate(-323.84 -194.08)"/><path class="cls-3" d="M970.4,567.51a11.25,11.25,0,0,1-4.41.8c-4.87,0-8-3.1-8-7.93,0-4.67,3.2-8.32,8.68-8.32a9.87,9.87,0,0,1,3.8.73l-.7,3a6.91,6.91,0,0,0-3-.61c-3,0-4.8,2.21-4.76,5.06,0,3.2,2.08,5,4.76,5a7.72,7.72,0,0,0,3.11-.61Z" transform="translate(-323.84 -194.08)"/><path class="cls-3" d="M878.93,605.91a11.26,11.26,0,0,1-4.42.8c-4.86,0-8-3.1-8-7.93,0-4.67,3.2-8.32,8.67-8.32a9.93,9.93,0,0,1,3.81.73l-.7,2.95a6.91,6.91,0,0,0-3-.61c-3,0-4.8,2.21-4.77,5.06,0,3.2,2.08,5,4.77,5a7.72,7.72,0,0,0,3.11-.61Z" transform="translate(-323.84 -194.08)"/><path class="cls-3" d="M896.37,598.46c0,5.73-4,8.28-8,8.28-4.42,0-7.81-3-7.81-8s3.36-8.25,8.07-8.25S896.37,593.72,896.37,598.46Zm-11.74.16c0,3,1.47,5.28,3.87,5.28,2.24,0,3.81-2.21,3.81-5.35,0-2.43-1.09-5.21-3.78-5.21S884.63,596,884.63,598.62Z" transform="translate(-323.84 -194.08)"/><path class="cls-3" d="M899.6,595.45c0-1.79,0-3.3-.13-4.64h3.46l.19,2.34h.1a5.61,5.61,0,0,1,5-2.69c2.72,0,5.53,1.76,5.53,6.69v9.24h-3.93v-8.8c0-2.24-.83-3.93-3-3.93a3.3,3.3,0,0,0-3.07,2.3,3.94,3.94,0,0,0-.16,1.28v9.15h-4Z" transform="translate(-323.84 -194.08)"/><path class="cls-3" d="M922.26,586.36v4.45H926v2.94h-3.74v6.88c0,1.89.51,2.88,2,2.88a5.64,5.64,0,0,0,1.54-.19l.06,3a8.73,8.73,0,0,1-2.84.38,4.58,4.58,0,0,1-3.4-1.28c-.83-.89-1.21-2.3-1.21-4.35v-7.33h-2.24v-2.94h2.24v-3.52Z" transform="translate(-323.84 -194.08)"/><path class="cls-3" d="M931.57,599.71c.1,2.81,2.3,4,4.8,4a11.66,11.66,0,0,0,4.32-.71l.58,2.72a14.58,14.58,0,0,1-5.44,1c-5.06,0-8-3.1-8-7.87,0-4.32,2.63-8.38,7.62-8.38s6.72,4.16,6.72,7.58a9.18,9.18,0,0,1-.13,1.67Zm6.85-2.76c0-1.44-.61-3.8-3.23-3.8-2.44,0-3.46,2.2-3.62,3.8Z" transform="translate(-323.84 -194.08)"/><path class="cls-3" d="M947.67,590.81l1.85,2.94c.51.84,1,1.6,1.41,2.4h.1c.44-.86.89-1.66,1.34-2.46l1.73-2.88h4.29l-5.22,7.49,5.31,8.09H954l-1.92-3.1c-.51-.83-1-1.66-1.4-2.53h-.07c-.45.9-.89,1.67-1.41,2.53l-1.79,3.1h-4.35l5.41-7.93-5.22-7.65Z" transform="translate(-323.84 -194.08)"/><path class="cls-3" d="M965.78,586.36v4.45h3.74v2.94h-3.74v6.88c0,1.89.51,2.88,2,2.88a5.64,5.64,0,0,0,1.54-.19l.06,3a8.73,8.73,0,0,1-2.84.38,4.58,4.58,0,0,1-3.4-1.28c-.83-.89-1.21-2.3-1.21-4.35v-7.33H959.7v-2.94h2.24v-3.52Z" transform="translate(-323.84 -194.08)"/><path class="cls-2" d="M1239,646.27H1066c-10.66,0-19.3-9.07-19.3-20.26V529.59c0-11.19,8.64-20.26,19.3-20.26H1239c10.65,0,19.29,9.07,19.29,20.26V626C1258.26,637.2,1249.62,646.27,1239,646.27Z" transform="translate(-323.84 -194.08)"/><path class="cls-3" d="M1099.23,565.92a33.61,33.61,0,0,1,6-.45c2.88,0,5,.61,6.37,1.76a6.07,6.07,0,0,1,2.11,4.76,6.56,6.56,0,0,1-1.85,4.9,9.53,9.53,0,0,1-6.82,2.31,11.65,11.65,0,0,1-1.92-.13v8.12h-3.9Zm3.9,10a7.84,7.84,0,0,0,1.92.16c2.94,0,4.74-1.44,4.74-4s-1.67-3.68-4.39-3.68a10.63,10.63,0,0,0-2.27.19Z" transform="translate(-323.84 -194.08)"/><path class="cls-3" d="M1125.05,587.19l-.26-1.72h-.09a5.8,5.8,0,0,1-4.61,2.08,4.62,4.62,0,0,1-4.89-4.64c0-3.94,3.48-5.92,9.24-5.89v-.26c0-1-.41-2.72-3.17-2.72a8.2,8.2,0,0,0-4.19,1.16l-.76-2.56a11.12,11.12,0,0,1,5.63-1.38c5,0,6.43,3.17,6.43,6.56v5.63a25,25,0,0,0,.22,3.74Zm-.51-7.61c-2.79-.07-5.44.54-5.44,2.91a2.06,2.06,0,0,0,2.24,2.24,3.18,3.18,0,0,0,3.07-2.14,2.74,2.74,0,0,0,.13-.87Z" transform="translate(-323.84 -194.08)"/><path class="cls-3" d="M1134.68,571.61l2.82,8.35c.32,1,.64,2.15.86,3h.1c.25-.89.54-2,.83-3.07l2.43-8.32H1146L1142,582.23c-2.14,5.83-3.58,8.42-5.44,10a7.87,7.87,0,0,1-4.13,2l-.89-3.33a6.68,6.68,0,0,0,2.3-1.09,6.93,6.93,0,0,0,2.15-2.46,1.59,1.59,0,0,0,.25-.71,1.7,1.7,0,0,0-.22-.77l-5.7-14.3Z" transform="translate(-323.84 -194.08)"/><path class="cls-3" d="M1148.22,564.48h4v22.71h-4Z" transform="translate(-323.84 -194.08)"/><path class="cls-3" d="M1171.26,579.26c0,5.73-4,8.29-8,8.29-4.42,0-7.81-3-7.81-8s3.36-8.25,8.06-8.25S1171.26,574.52,1171.26,579.26Zm-11.75.16c0,3,1.48,5.28,3.88,5.28,2.24,0,3.8-2.21,3.8-5.35,0-2.43-1.08-5.21-3.77-5.21S1159.51,576.83,1159.51,579.42Z" transform="translate(-323.84 -194.08)"/><path class="cls-3" d="M1183.26,587.19l-.26-1.72h-.09a5.82,5.82,0,0,1-4.61,2.08,4.63,4.63,0,0,1-4.9-4.64c0-3.94,3.49-5.92,9.25-5.89v-.26c0-1-.42-2.72-3.17-2.72a8.2,8.2,0,0,0-4.19,1.16l-.77-2.56a11.15,11.15,0,0,1,5.63-1.38c5,0,6.44,3.17,6.44,6.56v5.63a25,25,0,0,0,.22,3.74Zm-.51-7.61c-2.79-.07-5.44.54-5.44,2.91a2.06,2.06,0,0,0,2.24,2.24,3.19,3.19,0,0,0,3.07-2.14,3.06,3.06,0,0,0,.13-.87Z" transform="translate(-323.84 -194.08)"/><path class="cls-3" d="M1205.11,564.48v18.33c0,1.6.07,3.33.13,4.38h-3.52l-.16-2.46h-.06a5.62,5.62,0,0,1-5.09,2.82c-3.71,0-6.66-3.17-6.66-8,0-5.22,3.24-8.32,7-8.32a5,5,0,0,1,4.38,2h.07v-8.83Zm-3.93,13.63a5.14,5.14,0,0,0-.1-1,3.45,3.45,0,0,0-3.39-2.78c-2.53,0-3.94,2.24-3.94,5.15s1.41,4.93,3.91,4.93a3.47,3.47,0,0,0,3.39-2.79,4.18,4.18,0,0,0,.13-1.15Z" transform="translate(-323.84 -194.08)"/><rect class="cls-5" x="157.22" y="38.42" width="641.59" height="80.34" rx="10.52"/><path class="cls-6" d="M578.26,303.3H499.73a9,9,0,0,1-8.76-9.2V250.32a9,9,0,0,1,8.76-9.2h78.53a9,9,0,0,1,8.76,9.2V294.1A9,9,0,0,1,578.26,303.3Z" transform="translate(-323.84 -194.08)"/><path class="cls-6" d="M684.05,303.3H605.53a9,9,0,0,1-8.76-9.2V250.32a9,9,0,0,1,8.76-9.2h78.52a9,9,0,0,1,8.76,9.2V294.1A9,9,0,0,1,684.05,303.3Z" transform="translate(-323.84 -194.08)"/><path class="cls-1" d="M790.3,303.3H711.77a9,9,0,0,1-8.76-9.2V250.32a9,9,0,0,1,8.76-9.2H790.3a9,9,0,0,1,8.76,9.2V294.1A9,9,0,0,1,790.3,303.3Z" transform="translate(-323.84 -194.08)"/><path class="cls-1" d="M880.65,303.3H818a9,9,0,0,1-8.76-9.2V250.32a9,9,0,0,1,8.76-9.2h62.63a9,9,0,0,1,8.76,9.2V294.1A9,9,0,0,1,880.65,303.3Z" transform="translate(-323.84 -194.08)"/><path class="cls-1" d="M1015.51,303.3H908.38a9,9,0,0,1-8.76-9.2V250.32a9,9,0,0,1,8.76-9.2h107.13a9,9,0,0,1,8.76,9.2V294.1A9,9,0,0,1,1015.51,303.3Z" transform="translate(-323.84 -194.08)"/><path class="cls-1" d="M1105,303.3h-61.72a9,9,0,0,1-8.76-9.2V250.32a9,9,0,0,1,8.76-9.2H1105a9,9,0,0,1,8.77,9.2V294.1A9,9,0,0,1,1105,303.3Z" transform="translate(-323.84 -194.08)"/><line class="cls-7" x1="11.71" y1="298.64" x2="487.6" y2="106.08"/><line class="cls-7" x1="943.73" y1="298.87" x2="564.01" y2="105.27"/><path class="cls-8" d="M758,210.64a10.28,10.28,0,0,1-4.18.72c-5.14,0-8.26-3.22-8.26-8.14,0-5.33,3.7-8.54,8.64-8.54a9.33,9.33,0,0,1,3.94.72l-.65,2.35a7.79,7.79,0,0,0-3.17-.62c-3.28,0-5.66,2.06-5.66,6,0,3.55,2.09,5.83,5.64,5.83a8.29,8.29,0,0,0,3.22-.6Z" transform="translate(-323.84 -194.08)"/><path class="cls-8" d="M764.13,197.41h-4.61v-2.47h12.22v2.47h-4.66v13.71h-3Z" transform="translate(-323.84 -194.08)"/><path class="cls-8" d="M773.63,194.94H783v2.43h-6.38v4.46h5.95v2.42h-5.95v6.87h-3Z" transform="translate(-323.84 -194.08)"/><path class="cls-8" d="M790.7,203.32c0-1.54-.05-2.79-.1-3.89h2.59l.15,1.8h0a4.54,4.54,0,0,1,4-2.06c2.69,0,4.93,2.3,4.93,6,0,4.22-2.67,6.26-5.33,6.26a3.83,3.83,0,0,1-3.29-1.56h-.05v6.05H790.7Zm2.95,2.9a2.79,2.79,0,0,0,.1.82,2.66,2.66,0,0,0,2.59,2.06c1.87,0,3-1.56,3-3.86,0-2.07-1-3.75-2.91-3.75a2.76,2.76,0,0,0-2.64,2.19,2.72,2.72,0,0,0-.12.74Z" transform="translate(-323.84 -194.08)"/><path class="cls-8" d="M811.32,211.12l-.2-1.3h-.07a4.34,4.34,0,0,1-3.46,1.56,3.47,3.47,0,0,1-3.67-3.48c0-3,2.62-4.44,6.94-4.41v-.2c0-.76-.31-2-2.38-2a6.12,6.12,0,0,0-3.14.87l-.58-1.92a8.43,8.43,0,0,1,4.23-1c3.74,0,4.82,2.37,4.82,4.92v4.22a18.71,18.71,0,0,0,.17,2.81Zm-.39-5.71c-2.09,0-4.08.4-4.08,2.18a1.55,1.55,0,0,0,1.68,1.68,2.38,2.38,0,0,0,2.3-1.61,1.87,1.87,0,0,0,.1-.65Z" transform="translate(-323.84 -194.08)"/><path class="cls-8" d="M825.52,210.76a8.5,8.5,0,0,1-3.31.6c-3.65,0-6-2.33-6-6s2.4-6.24,6.5-6.24a7.46,7.46,0,0,1,2.86.55l-.53,2.21a5.14,5.14,0,0,0-2.23-.46,3.79,3.79,0,0,0,0,7.56,5.71,5.71,0,0,0,2.32-.46Z" transform="translate(-323.84 -194.08)"/><path class="cls-8" d="M830.66,204.57h0c.29-.46.63-1,.94-1.37l2.83-3.77H838l-4.32,4.78,4.94,6.91H835L831.67,206l-1,1.17v4h-3v-17h3Z" transform="translate(-323.84 -194.08)"/><path class="cls-8" d="M841.84,206.1c.07,2.11,1.73,3,3.6,3a8.91,8.91,0,0,0,3.24-.53l.44,2a11,11,0,0,1-4.09.72c-3.79,0-6-2.33-6-5.91,0-3.24,2-6.28,5.71-6.28s5,3.12,5,5.68a8.27,8.27,0,0,1-.09,1.25ZM847,204c0-1.08-.46-2.86-2.43-2.86a2.89,2.89,0,0,0-2.71,2.86Z" transform="translate(-323.84 -194.08)"/><path class="cls-8" d="M855.52,196.09v3.34h2.81v2.21h-2.81v5.16c0,1.41.39,2.16,1.51,2.16a4.07,4.07,0,0,0,1.16-.15l0,2.26a6.4,6.4,0,0,1-2.13.29,3.45,3.45,0,0,1-2.55-1,4.68,4.68,0,0,1-.91-3.27v-5.49H851v-2.21h1.68v-2.64Z" transform="translate(-323.84 -194.08)"/></svg>