<svg id="Layer_1" data-name="Layer 1" xmlns="http://www.w3.org/2000/svg" viewBox="0 0 1402.16 566.85"><defs><style>.cls-1{fill:none;}.cls-1,.cls-2{stroke:#f8a794;}.cls-1,.cls-2,.cls-3{stroke-miterlimit:10;stroke-width:2px;}.cls-2,.cls-5{fill:#ffe9cc;}.cls-3{fill:#4eba6f;stroke:#1a8947;}.cls-4{fill:#fff;}.cls-6{fill:#f8a794;}.cls-7{fill:#ffe2bd;}.cls-8{fill:#f47859;}.cls-9{fill:#ce8172;}</style></defs><title>ctf-data-stream</title><line class="cls-1" x1="1388.84" y1="346.62" x2="747.33" y2="156.24"/><line class="cls-1" x1="15.07" y1="346.62" x2="656.58" y2="156.24"/><rect class="cls-2" x="1" y="344.73" width="1400.16" height="176.94" rx="20.26"/><rect class="cls-3" x="21" y="364.73" width="288.25" height="136.94" rx="20.26"/><rect class="cls-3" x="333" y="364.73" width="288.25" height="136.94" rx="20.26"/><rect class="cls-3" x="646" y="364.73" width="198.25" height="136.94" rx="20.26"/><rect class="cls-3" x="868.25" y="364.73" width="512.93" height="136.94" rx="20.26"/><path class="cls-4" d="M348.51,623.2a34.58,34.58,0,0,1,6-.45c2.88,0,5,.61,6.37,1.76a6.1,6.1,0,0,1,2.11,4.77,6.57,6.57,0,0,1-1.85,4.9,9.57,9.57,0,0,1-6.82,2.3,10.65,10.65,0,0,1-1.92-.13v8.13h-3.9Zm3.9,10a7.84,7.84,0,0,0,1.92.16c2.94,0,4.74-1.44,4.74-4s-1.67-3.68-4.39-3.68a11.35,11.35,0,0,0-2.27.19Z" transform="translate(-238.82 -201.89)"/><path class="cls-4" d="M374.33,644.48l-.26-1.73H374a5.77,5.77,0,0,1-4.61,2.08,4.63,4.63,0,0,1-4.9-4.64c0-3.93,3.49-5.92,9.25-5.89v-.25c0-1-.41-2.72-3.17-2.72a8.29,8.29,0,0,0-4.19,1.15l-.76-2.56a11.23,11.23,0,0,1,5.63-1.38c5,0,6.43,3.17,6.43,6.56v5.64a25.06,25.06,0,0,0,.22,3.74Zm-.51-7.62c-2.79-.06-5.44.55-5.44,2.92a2.07,2.07,0,0,0,2.24,2.24,3.19,3.19,0,0,0,3.07-2.15,2.73,2.73,0,0,0,.13-.86Z" transform="translate(-238.82 -201.89)"/><path class="cls-4" d="M393.27,644a11.43,11.43,0,0,1-4.41.8c-4.87,0-8-3.1-8-7.94,0-4.67,3.2-8.32,8.67-8.32a9.77,9.77,0,0,1,3.81.74l-.71,2.94a7.08,7.08,0,0,0-3-.6c-3,0-4.8,2.2-4.77,5,0,3.2,2.08,5,4.77,5a7.7,7.7,0,0,0,3.1-.61Z" transform="translate(-238.82 -201.89)"/><path class="cls-4" d="M400.12,635.74h.07c.38-.6.83-1.28,1.24-1.82l3.78-5H410l-5.76,6.36,6.59,9.22H406l-4.48-6.88-1.35,1.57v5.31h-3.93V621.76h3.93Z" transform="translate(-238.82 -201.89)"/><path class="cls-4" d="M415,637.79c.1,2.82,2.31,4,4.8,4a11.64,11.64,0,0,0,4.32-.7l.58,2.72a14.74,14.74,0,0,1-5.44,1c-5.06,0-8-3.1-8-7.87,0-4.32,2.62-8.39,7.61-8.39s6.72,4.16,6.72,7.59a10.3,10.3,0,0,1-.12,1.66Zm6.85-2.75c0-1.44-.61-3.81-3.23-3.81-2.43,0-3.46,2.21-3.62,3.81Z" transform="translate(-238.82 -201.89)"/><path class="cls-4" d="M433.27,624.45v4.45H437v2.94h-3.75v6.88c0,1.89.52,2.88,2,2.88a6.2,6.2,0,0,0,1.54-.19l.06,3a8.48,8.48,0,0,1-2.85.39,4.56,4.56,0,0,1-3.39-1.28c-.83-.9-1.22-2.3-1.22-4.35v-7.33h-2.24V628.9h2.24v-3.52Z" transform="translate(-238.82 -201.89)"/><path class="cls-4" d="M452.06,627.23H452l-3.8,1.92-.68-3,5.06-2.5h3.3v20.8h-3.81Z" transform="translate(-238.82 -201.89)"/><path class="cls-4" d="M660.51,623.2a34.58,34.58,0,0,1,6-.45c2.88,0,5,.61,6.37,1.76a6.1,6.1,0,0,1,2.11,4.77,6.57,6.57,0,0,1-1.85,4.9,9.57,9.57,0,0,1-6.82,2.3,10.65,10.65,0,0,1-1.92-.13v8.13h-3.9Zm3.9,10a7.84,7.84,0,0,0,1.92.16c2.94,0,4.74-1.44,4.74-4s-1.67-3.68-4.39-3.68a11.35,11.35,0,0,0-2.27.19Z" transform="translate(-238.82 -201.89)"/><path class="cls-4" d="M686.33,644.48l-.26-1.73H686a5.77,5.77,0,0,1-4.61,2.08,4.63,4.63,0,0,1-4.9-4.64c0-3.93,3.49-5.92,9.25-5.89v-.25c0-1-.41-2.72-3.17-2.72a8.29,8.29,0,0,0-4.19,1.15l-.76-2.56a11.23,11.23,0,0,1,5.63-1.38c5,0,6.43,3.17,6.43,6.56v5.64a25.06,25.06,0,0,0,.22,3.74Zm-.51-7.62c-2.79-.06-5.44.55-5.44,2.92a2.07,2.07,0,0,0,2.24,2.24,3.19,3.19,0,0,0,3.07-2.15,2.73,2.73,0,0,0,.13-.86Z" transform="translate(-238.82 -201.89)"/><path class="cls-4" d="M705.27,644a11.43,11.43,0,0,1-4.41.8c-4.87,0-8-3.1-8-7.94,0-4.67,3.2-8.32,8.67-8.32a9.77,9.77,0,0,1,3.81.74l-.71,2.94a7.08,7.08,0,0,0-3-.6c-3,0-4.8,2.2-4.77,5,0,3.2,2.08,5,4.77,5a7.7,7.7,0,0,0,3.1-.61Z" transform="translate(-238.82 -201.89)"/><path class="cls-4" d="M712.12,635.74h.07c.38-.6.83-1.28,1.24-1.82l3.78-5H722l-5.76,6.36,6.59,9.22H718l-4.48-6.88-1.35,1.57v5.31h-3.93V621.76h3.93Z" transform="translate(-238.82 -201.89)"/><path class="cls-4" d="M727,637.79c.1,2.82,2.31,4,4.8,4a11.64,11.64,0,0,0,4.32-.7l.58,2.72a14.74,14.74,0,0,1-5.44,1c-5.06,0-8-3.1-8-7.87,0-4.32,2.62-8.39,7.61-8.39s6.72,4.16,6.72,7.59a9,9,0,0,1-.13,1.66Zm6.85-2.75c0-1.44-.61-3.81-3.23-3.81-2.43,0-3.46,2.21-3.62,3.81Z" transform="translate(-238.82 -201.89)"/><path class="cls-4" d="M745.27,624.45v4.45H749v2.94h-3.75v6.88c0,1.89.51,2.88,2,2.88a6.2,6.2,0,0,0,1.54-.19l.06,3a8.48,8.48,0,0,1-2.85.39,4.56,4.56,0,0,1-3.39-1.28c-.83-.9-1.22-2.3-1.22-4.35v-7.33h-2.24V628.9h2.24v-3.52Z" transform="translate(-238.82 -201.89)"/><path class="cls-4" d="M757.88,644.48v-2.4l2.47-2.27c4.89-4.55,7.19-7,7.23-9.79,0-1.86-1-3.49-3.71-3.49a7.55,7.55,0,0,0-4.45,1.73l-1.15-2.79a10.3,10.3,0,0,1,6.39-2.14c4.61,0,6.85,2.91,6.85,6.3,0,3.65-2.62,6.59-6.24,10l-1.82,1.57v.07H772v3.26Z" transform="translate(-238.82 -201.89)"/><path class="cls-4" d="M928.51,623.2a34.58,34.58,0,0,1,6-.45c2.88,0,5,.61,6.37,1.76a6.1,6.1,0,0,1,2.11,4.77,6.57,6.57,0,0,1-1.85,4.9,9.57,9.57,0,0,1-6.82,2.3,10.65,10.65,0,0,1-1.92-.13v8.13h-3.9Zm3.9,10a7.84,7.84,0,0,0,1.92.16c2.94,0,4.74-1.44,4.74-4s-1.67-3.68-4.39-3.68a11.35,11.35,0,0,0-2.27.19Z" transform="translate(-238.82 -201.89)"/><path class="cls-4" d="M954.33,644.48l-.26-1.73H954a5.77,5.77,0,0,1-4.61,2.08,4.63,4.63,0,0,1-4.9-4.64c0-3.93,3.49-5.92,9.25-5.89v-.25c0-1-.41-2.72-3.17-2.72a8.29,8.29,0,0,0-4.19,1.15l-.77-2.56a11.3,11.3,0,0,1,5.64-1.38c5,0,6.43,3.17,6.43,6.56v5.64a25.06,25.06,0,0,0,.22,3.74Zm-.51-7.62c-2.79-.06-5.44.55-5.44,2.92a2.07,2.07,0,0,0,2.24,2.24,3.19,3.19,0,0,0,3.07-2.15,2.73,2.73,0,0,0,.13-.86Z" transform="translate(-238.82 -201.89)"/><path class="cls-4" d="M973.27,644a11.43,11.43,0,0,1-4.41.8c-4.87,0-8-3.1-8-7.94,0-4.67,3.2-8.32,8.67-8.32a9.77,9.77,0,0,1,3.81.74l-.71,2.94a7.08,7.08,0,0,0-3-.6c-3,0-4.8,2.2-4.77,5,0,3.2,2.08,5,4.77,5a7.7,7.7,0,0,0,3.1-.61Z" transform="translate(-238.82 -201.89)"/><path class="cls-4" d="M980.12,635.74h.07c.38-.6.83-1.28,1.24-1.82l3.78-5H990l-5.76,6.36,6.59,9.22H986l-4.48-6.88-1.35,1.57v5.31h-3.93V621.76h3.93Z" transform="translate(-238.82 -201.89)"/><path class="cls-4" d="M995,637.79c.1,2.82,2.31,4,4.8,4a11.64,11.64,0,0,0,4.32-.7l.58,2.72a14.74,14.74,0,0,1-5.44,1c-5.06,0-8-3.1-8-7.87,0-4.32,2.62-8.39,7.61-8.39s6.72,4.16,6.72,7.59a9,9,0,0,1-.13,1.66Zm6.85-2.75c0-1.44-.61-3.81-3.23-3.81-2.43,0-3.46,2.21-3.62,3.81Z" transform="translate(-238.82 -201.89)"/><path class="cls-4" d="M1013.27,624.45v4.45H1017v2.94h-3.75v6.88c0,1.89.51,2.88,2,2.88a6.2,6.2,0,0,0,1.54-.19l.06,3a8.48,8.48,0,0,1-2.85.39,4.56,4.56,0,0,1-3.39-1.28c-.83-.9-1.22-2.3-1.22-4.35v-7.33h-2.24V628.9h2.24v-3.52Z" transform="translate(-238.82 -201.89)"/><path class="cls-4" d="M1026.68,640.42a10.28,10.28,0,0,0,4.74,1.28c3,0,4.22-1.7,4.19-3.33,0-2.47-2.31-3.52-4.7-3.52h-1.83V632h1.76c1.82,0,4.13-.83,4.13-2.91,0-1.41-1.06-2.6-3.33-2.6a8.31,8.31,0,0,0-4.25,1.32l-.9-2.85a11.24,11.24,0,0,1,6-1.6c4.29,0,6.5,2.37,6.5,5.09,0,2.17-1.28,4-3.84,4.86v.06a5.25,5.25,0,0,1,4.57,5.19c0,3.52-2.94,6.3-8.09,6.3a11.36,11.36,0,0,1-5.83-1.44Z" transform="translate(-238.82 -201.89)"/><path class="cls-4" d="M1308.1,623.2a34.58,34.58,0,0,1,6-.45c2.88,0,5,.61,6.37,1.76a6.1,6.1,0,0,1,2.11,4.77,6.57,6.57,0,0,1-1.85,4.9,9.57,9.57,0,0,1-6.82,2.3,10.65,10.65,0,0,1-1.92-.13v8.13h-3.9Zm3.9,10a7.84,7.84,0,0,0,1.92.16c2.94,0,4.74-1.44,4.74-4s-1.67-3.68-4.39-3.68a11.35,11.35,0,0,0-2.27.19Z" transform="translate(-238.82 -201.89)"/><path class="cls-4" d="M1333.92,644.48l-.26-1.73h-.09a5.77,5.77,0,0,1-4.61,2.08,4.63,4.63,0,0,1-4.9-4.64c0-3.93,3.49-5.92,9.25-5.89v-.25c0-1-.41-2.72-3.17-2.72a8.29,8.29,0,0,0-4.19,1.15l-.77-2.56a11.3,11.3,0,0,1,5.64-1.38c5,0,6.43,3.17,6.43,6.56v5.64a25.06,25.06,0,0,0,.22,3.74Zm-.51-7.62c-2.79-.06-5.44.55-5.44,2.92a2.07,2.07,0,0,0,2.24,2.24,3.19,3.19,0,0,0,3.07-2.15,2.73,2.73,0,0,0,.13-.86Z" transform="translate(-238.82 -201.89)"/><path class="cls-4" d="M1352.86,644a11.43,11.43,0,0,1-4.41.8c-4.87,0-8-3.1-8-7.94,0-4.67,3.2-8.32,8.67-8.32a9.77,9.77,0,0,1,3.81.74l-.71,2.94a7.08,7.08,0,0,0-3-.6c-3,0-4.8,2.2-4.77,5,0,3.2,2.08,5,4.77,5a7.7,7.7,0,0,0,3.1-.61Z" transform="translate(-238.82 -201.89)"/><path class="cls-4" d="M1359.71,635.74h.07c.38-.6.83-1.28,1.24-1.82l3.78-5h4.73l-5.75,6.36,6.59,9.22h-4.84l-4.47-6.88-1.35,1.57v5.31h-3.93V621.76h3.93Z" transform="translate(-238.82 -201.89)"/><path class="cls-4" d="M1374.62,637.79c.1,2.82,2.31,4,4.8,4a11.64,11.64,0,0,0,4.32-.7l.58,2.72a14.74,14.74,0,0,1-5.44,1c-5.06,0-8-3.1-8-7.87,0-4.32,2.62-8.39,7.61-8.39s6.72,4.16,6.72,7.59a9,9,0,0,1-.13,1.66Zm6.85-2.75c0-1.44-.61-3.81-3.23-3.81-2.43,0-3.46,2.21-3.62,3.81Z" transform="translate(-238.82 -201.89)"/><path class="cls-4" d="M1392.86,624.45v4.45h3.75v2.94h-3.75v6.88c0,1.89.51,2.88,2,2.88a6,6,0,0,0,1.53-.19l.07,3a8.48,8.48,0,0,1-2.85.39,4.56,4.56,0,0,1-3.39-1.28c-.83-.9-1.22-2.3-1.22-4.35v-7.33h-2.24V628.9H1389v-3.52Z" transform="translate(-238.82 -201.89)"/><path class="cls-4" d="M1414.14,644.48V639.2h-9.4v-2.56l8.47-13h4.64v12.54h2.69v3h-2.69v5.28Zm0-8.26v-5.66c0-1.18,0-2.4.13-3.62h-.13c-.64,1.32-1.18,2.37-1.82,3.52l-3.81,5.7,0,.06Z" transform="translate(-238.82 -201.89)"/><g id="surface1"><path class="cls-5" d="M1007.12,201.89H907.9v32a6.41,6.41,0,0,1-6.41,6.4h-35.2V361.93a6.42,6.42,0,0,0,6.4,6.4h134.43a6.42,6.42,0,0,0,6.4-6.4V208.29A6.42,6.42,0,0,0,1007.12,201.89Z" transform="translate(-238.82 -201.89)"/><path class="cls-6" d="M901.49,240.3a6.41,6.41,0,0,0,6.41-6.4v-32L866.29,240.3Z" transform="translate(-238.82 -201.89)"/><path class="cls-7" d="M907.9,368.33h99.22a6.41,6.41,0,0,0,6.4-6.4V269.4A160.4,160.4,0,0,1,907.9,368.33Z" transform="translate(-238.82 -201.89)"/><path class="cls-8" d="M897.44,265c0,4.23-1.66,6.88-4.79,6.88s-4.65-2.75-4.67-6.75,1.74-6.84,4.81-6.84S897.44,261.16,897.44,265Zm-7,.13c0,3.19.87,4.85,2.24,4.85s2.22-1.78,2.22-4.94-.72-4.85-2.22-4.85C891.4,260.23,890.47,261.87,890.49,265.17Z" transform="translate(-238.82 -201.89)"/><path class="cls-8" d="M902.9,260.8h0L900.45,262l-.42-1.88,3.19-1.58h2.09V271.7H902.9Z" transform="translate(-238.82 -201.89)"/><path class="cls-8" d="M913.74,260.8h0L911.29,262l-.42-1.88,3.19-1.58h2.08V271.7h-2.4Z" transform="translate(-238.82 -201.89)"/><path class="cls-8" d="M930,265c0,4.23-1.66,6.88-4.79,6.88s-4.65-2.75-4.67-6.75,1.74-6.84,4.81-6.84S930,261.16,930,265Zm-7,.13c0,3.19.87,4.85,2.25,4.85s2.22-1.78,2.22-4.94-.72-4.85-2.22-4.85C923.91,260.23,923,261.87,923,265.17Z" transform="translate(-238.82 -201.89)"/><path class="cls-8" d="M935.41,260.8h0L933,262l-.42-1.88,3.19-1.58h2.08V271.7h-2.4Z" transform="translate(-238.82 -201.89)"/><path class="cls-8" d="M951.62,265c0,4.23-1.66,6.88-4.79,6.88s-4.65-2.75-4.67-6.75,1.74-6.84,4.81-6.84S951.62,261.16,951.62,265Zm-7,.13c0,3.19.87,4.85,2.24,4.85s2.22-1.78,2.22-4.94-.72-4.85-2.22-4.85C945.58,260.23,944.65,261.87,944.67,265.17Z" transform="translate(-238.82 -201.89)"/><path class="cls-8" d="M962.46,265c0,4.23-1.66,6.88-4.79,6.88s-4.65-2.75-4.67-6.75,1.74-6.84,4.81-6.84S962.46,261.16,962.46,265Zm-7,.13c0,3.19.87,4.85,2.25,4.85s2.22-1.78,2.22-4.94-.73-4.85-2.22-4.85S955.48,261.87,955.5,265.17Z" transform="translate(-238.82 -201.89)"/><path class="cls-8" d="M973.29,265c0,4.23-1.65,6.88-4.79,6.88s-4.65-2.75-4.67-6.75,1.74-6.84,4.81-6.84S973.29,261.16,973.29,265Zm-6.95.13c0,3.19.87,4.85,2.24,4.85s2.23-1.78,2.23-4.94-.73-4.85-2.23-4.85C967.25,260.23,966.32,261.87,966.34,265.17Z" transform="translate(-238.82 -201.89)"/><path class="cls-8" d="M978.75,260.8h0l-2.4,1.21-.43-1.88,3.2-1.58h2.08V271.7h-2.41Z" transform="translate(-238.82 -201.89)"/><path class="cls-8" d="M989.59,260.8h0L987.14,262l-.42-1.88,3.19-1.58H992V271.7h-2.4Z" transform="translate(-238.82 -201.89)"/><path class="cls-8" d="M892.06,277.06h0l-2.4,1.21-.43-1.88,3.2-1.57h2.08V288h-2.41Z" transform="translate(-238.82 -201.89)"/><path class="cls-8" d="M908.28,281.31c0,4.22-1.66,6.87-4.79,6.87s-4.65-2.75-4.67-6.75,1.73-6.84,4.81-6.84S908.28,277.42,908.28,281.31Zm-7,.12c0,3.19.87,4.85,2.25,4.85s2.22-1.78,2.22-4.93-.73-4.86-2.22-4.86S901.3,278.13,901.32,281.43Z" transform="translate(-238.82 -201.89)"/><path class="cls-8" d="M919.11,281.31c0,4.22-1.65,6.87-4.79,6.87s-4.65-2.75-4.67-6.75,1.74-6.84,4.81-6.84S919.11,277.42,919.11,281.31Zm-7,.12c0,3.19.87,4.85,2.24,4.85s2.23-1.78,2.23-4.93-.73-4.86-2.23-4.86C913.07,276.49,912.14,278.13,912.16,281.43Z" transform="translate(-238.82 -201.89)"/><path class="cls-8" d="M924.57,277.06h0l-2.4,1.21-.43-1.88,3.2-1.57H927V288h-2.41Z" transform="translate(-238.82 -201.89)"/><path class="cls-8" d="M940.79,281.31c0,4.22-1.66,6.87-4.8,6.87s-4.65-2.75-4.67-6.75,1.74-6.84,4.82-6.84S940.79,277.42,940.79,281.31Zm-7,.12c0,3.19.87,4.85,2.25,4.85s2.22-1.78,2.22-4.93-.73-4.86-2.22-4.86S933.81,278.13,933.83,281.43Z" transform="translate(-238.82 -201.89)"/><path class="cls-8" d="M946.24,277.06h0l-2.4,1.21-.43-1.88,3.2-1.57h2.08V288h-2.41Z" transform="translate(-238.82 -201.89)"/><path class="cls-8" d="M962.46,281.31c0,4.22-1.66,6.87-4.79,6.87s-4.65-2.75-4.67-6.75,1.74-6.84,4.81-6.84S962.46,277.42,962.46,281.31Zm-7,.12c0,3.19.87,4.85,2.25,4.85s2.22-1.78,2.22-4.93-.73-4.86-2.22-4.86S955.48,278.13,955.5,281.43Z" transform="translate(-238.82 -201.89)"/><path class="cls-8" d="M967.92,277.06h0l-2.41,1.21-.42-1.88,3.19-1.57h2.08V288h-2.4Z" transform="translate(-238.82 -201.89)"/><path class="cls-8" d="M984.13,281.31c0,4.22-1.66,6.87-4.79,6.87s-4.65-2.75-4.67-6.75,1.74-6.84,4.81-6.84S984.13,277.42,984.13,281.31Zm-7,.12c0,3.19.86,4.85,2.24,4.85s2.22-1.78,2.22-4.93-.72-4.86-2.22-4.86C978.09,276.49,977.16,278.13,977.18,281.43Z" transform="translate(-238.82 -201.89)"/><path class="cls-8" d="M989.59,277.06h0l-2.41,1.21-.42-1.88,3.19-1.57H992V288h-2.4Z" transform="translate(-238.82 -201.89)"/><path class="cls-8" d="M897.44,297.57c0,4.22-1.66,6.87-4.79,6.87s-4.65-2.75-4.67-6.75,1.74-6.84,4.81-6.84S897.44,293.68,897.44,297.57Zm-7,.12c0,3.19.87,4.85,2.24,4.85s2.22-1.78,2.22-4.93-.72-4.86-2.22-4.86C891.4,292.75,890.47,294.39,890.49,297.69Z" transform="translate(-238.82 -201.89)"/><path class="cls-8" d="M908.28,297.57c0,4.22-1.66,6.87-4.79,6.87s-4.65-2.75-4.67-6.75,1.73-6.84,4.81-6.84S908.28,293.68,908.28,297.57Zm-7,.12c0,3.19.87,4.85,2.25,4.85s2.22-1.78,2.22-4.93-.73-4.86-2.22-4.86S901.3,294.39,901.32,297.69Z" transform="translate(-238.82 -201.89)"/><path class="cls-8" d="M913.74,293.32h0l-2.41,1.21-.42-1.88,3.19-1.57h2.08v13.14h-2.4Z" transform="translate(-238.82 -201.89)"/><path class="cls-8" d="M930,297.57c0,4.22-1.66,6.87-4.79,6.87s-4.65-2.75-4.67-6.75,1.74-6.84,4.81-6.84S930,293.68,930,297.57Zm-7,.12c0,3.19.87,4.85,2.25,4.85s2.22-1.78,2.22-4.93-.72-4.86-2.22-4.86C923.91,292.75,923,294.39,923,297.69Z" transform="translate(-238.82 -201.89)"/><path class="cls-8" d="M935.41,293.32h0L933,294.53l-.42-1.88,3.19-1.57h2.08v13.14h-2.4Z" transform="translate(-238.82 -201.89)"/><path class="cls-8" d="M951.62,297.57c0,4.22-1.66,6.87-4.79,6.87s-4.65-2.75-4.67-6.75,1.74-6.84,4.81-6.84S951.62,293.68,951.62,297.57Zm-7,.12c0,3.19.87,4.85,2.24,4.85s2.22-1.78,2.22-4.93-.72-4.86-2.22-4.86C945.58,292.75,944.65,294.39,944.67,297.69Z" transform="translate(-238.82 -201.89)"/><path class="cls-8" d="M957.08,293.32h0l-2.41,1.21-.42-1.88,3.19-1.57h2.09v13.14h-2.41Z" transform="translate(-238.82 -201.89)"/><path class="cls-8" d="M973.29,297.57c0,4.22-1.65,6.87-4.79,6.87s-4.65-2.75-4.67-6.75,1.74-6.84,4.81-6.84S973.29,293.68,973.29,297.57Zm-6.95.12c0,3.19.87,4.85,2.24,4.85s2.23-1.78,2.23-4.93-.73-4.86-2.23-4.86C967.25,292.75,966.32,294.39,966.34,297.69Z" transform="translate(-238.82 -201.89)"/><path class="cls-8" d="M984.13,297.57c0,4.22-1.66,6.87-4.79,6.87s-4.65-2.75-4.67-6.75,1.74-6.84,4.81-6.84S984.13,293.68,984.13,297.57Zm-7,.12c0,3.19.86,4.85,2.24,4.85s2.22-1.78,2.22-4.93-.72-4.86-2.22-4.86C978.09,292.75,977.16,294.39,977.18,297.69Z" transform="translate(-238.82 -201.89)"/><path class="cls-8" d="M989.59,293.32h0l-2.41,1.21-.42-1.88,3.19-1.57H992v13.14h-2.4Z" transform="translate(-238.82 -201.89)"/><path class="cls-8" d="M892.06,309.58h0l-2.4,1.21-.43-1.88,3.2-1.57h2.08v13.14h-2.41Z" transform="translate(-238.82 -201.89)"/><path class="cls-8" d="M908.28,313.83c0,4.22-1.66,6.87-4.79,6.87s-4.65-2.75-4.67-6.75,1.73-6.84,4.81-6.84S908.28,309.94,908.28,313.83Zm-7,.12c0,3.19.87,4.85,2.25,4.85s2.22-1.78,2.22-4.93-.73-4.86-2.22-4.86S901.3,310.65,901.32,314Z" transform="translate(-238.82 -201.89)"/><path class="cls-8" d="M913.74,309.58h0l-2.41,1.21-.42-1.88,3.19-1.57h2.08v13.14h-2.4Z" transform="translate(-238.82 -201.89)"/><path class="cls-8" d="M930,313.83c0,4.22-1.66,6.87-4.79,6.87s-4.65-2.75-4.67-6.75,1.74-6.84,4.81-6.84S930,309.94,930,313.83Zm-7,.12c0,3.19.87,4.85,2.25,4.85s2.22-1.78,2.22-4.93-.72-4.86-2.22-4.86C923.91,309,923,310.65,923,314Z" transform="translate(-238.82 -201.89)"/><path class="cls-8" d="M940.79,313.83c0,4.22-1.66,6.87-4.8,6.87s-4.65-2.75-4.67-6.75,1.74-6.84,4.82-6.84S940.79,309.94,940.79,313.83Zm-7,.12c0,3.19.87,4.85,2.25,4.85s2.22-1.78,2.22-4.93-.73-4.86-2.22-4.86S933.81,310.65,933.83,314Z" transform="translate(-238.82 -201.89)"/><path class="cls-8" d="M946.24,309.58h0l-2.4,1.21-.43-1.88,3.2-1.57h2.08v13.14h-2.41Z" transform="translate(-238.82 -201.89)"/><path class="cls-8" d="M962.46,313.83c0,4.22-1.66,6.87-4.79,6.87S953,318,953,314s1.74-6.84,4.81-6.84S962.46,309.94,962.46,313.83Zm-7,.12c0,3.19.87,4.85,2.25,4.85S960,317,960,313.87s-.73-4.86-2.22-4.86S955.48,310.65,955.5,314Z" transform="translate(-238.82 -201.89)"/><path class="cls-8" d="M973.29,313.83c0,4.22-1.65,6.87-4.79,6.87s-4.65-2.75-4.67-6.75,1.74-6.84,4.81-6.84S973.29,309.94,973.29,313.83Zm-6.95.12c0,3.19.87,4.85,2.24,4.85s2.23-1.78,2.23-4.93-.73-4.86-2.23-4.86C967.25,309,966.32,310.65,966.34,314Z" transform="translate(-238.82 -201.89)"/><path class="cls-8" d="M978.75,309.58h0l-2.4,1.21-.43-1.88,3.2-1.57h2.08v13.14h-2.41Z" transform="translate(-238.82 -201.89)"/><path class="cls-8" d="M995,313.83c0,4.22-1.66,6.87-4.8,6.87S985.53,318,985.5,314s1.74-6.84,4.82-6.84S995,309.94,995,313.83Zm-7,.12c0,3.19.87,4.85,2.25,4.85s2.22-1.78,2.22-4.93-.73-4.86-2.22-4.86S988,310.65,988,314Z" transform="translate(-238.82 -201.89)"/><path class="cls-8" d="M897.44,330.09c0,4.22-1.66,6.87-4.79,6.87s-4.65-2.75-4.67-6.75,1.74-6.84,4.81-6.84S897.44,326.2,897.44,330.09Zm-7,.12c0,3.19.87,4.85,2.24,4.85s2.22-1.78,2.22-4.93-.72-4.86-2.22-4.86C891.4,325.27,890.47,326.91,890.49,330.21Z" transform="translate(-238.82 -201.89)"/><path class="cls-8" d="M908.28,330.09c0,4.22-1.66,6.87-4.79,6.87s-4.65-2.75-4.67-6.75,1.73-6.84,4.81-6.84S908.28,326.2,908.28,330.09Zm-7,.12c0,3.19.87,4.85,2.25,4.85s2.22-1.78,2.22-4.93-.73-4.86-2.22-4.86S901.3,326.91,901.32,330.21Z" transform="translate(-238.82 -201.89)"/><path class="cls-8" d="M913.74,325.84h0l-2.41,1.21-.42-1.88,3.19-1.57h2.08v13.14h-2.4Z" transform="translate(-238.82 -201.89)"/><path class="cls-8" d="M924.57,325.84h0l-2.4,1.21-.43-1.88,3.2-1.57H927v13.14h-2.41Z" transform="translate(-238.82 -201.89)"/><path class="cls-8" d="M940.79,330.09c0,4.22-1.66,6.87-4.8,6.87s-4.65-2.75-4.67-6.75,1.74-6.84,4.82-6.84S940.79,326.2,940.79,330.09Zm-7,.12c0,3.19.87,4.85,2.25,4.85s2.22-1.78,2.22-4.93-.73-4.86-2.22-4.86S933.81,326.91,933.83,330.21Z" transform="translate(-238.82 -201.89)"/><path class="cls-8" d="M946.24,325.84h0l-2.4,1.21-.43-1.88,3.2-1.57h2.08v13.14h-2.41Z" transform="translate(-238.82 -201.89)"/><path class="cls-8" d="M957.08,325.84h0l-2.41,1.21-.42-1.88,3.19-1.57h2.09v13.14h-2.41Z" transform="translate(-238.82 -201.89)"/><path class="cls-8" d="M967.92,325.84h0l-2.41,1.21-.42-1.88,3.19-1.57h2.08v13.14h-2.4Z" transform="translate(-238.82 -201.89)"/><path class="cls-8" d="M984.13,330.09c0,4.22-1.66,6.87-4.79,6.87s-4.65-2.75-4.67-6.75,1.74-6.84,4.81-6.84S984.13,326.2,984.13,330.09Zm-7,.12c0,3.19.86,4.85,2.24,4.85s2.22-1.78,2.22-4.93-.72-4.86-2.22-4.86C978.09,325.27,977.16,326.91,977.18,330.21Z" transform="translate(-238.82 -201.89)"/><path class="cls-8" d="M989.59,325.84h0l-2.41,1.21-.42-1.88,3.19-1.57H992v13.14h-2.4Z" transform="translate(-238.82 -201.89)"/><path class="cls-8" d="M892.06,342.1h0l-2.4,1.21-.43-1.88,3.2-1.57h2.08V353h-2.41Z" transform="translate(-238.82 -201.89)"/><path class="cls-8" d="M902.9,342.1h0l-2.41,1.21-.42-1.88,3.19-1.57h2.09V353H902.9Z" transform="translate(-238.82 -201.89)"/><path class="cls-8" d="M919.11,346.35c0,4.22-1.65,6.87-4.79,6.87s-4.65-2.75-4.67-6.75,1.74-6.84,4.81-6.84S919.11,342.46,919.11,346.35Zm-7,.12c0,3.19.87,4.85,2.24,4.85s2.23-1.78,2.23-4.93-.73-4.86-2.23-4.86C913.07,341.53,912.14,343.17,912.16,346.47Z" transform="translate(-238.82 -201.89)"/><path class="cls-8" d="M924.57,342.1h0l-2.4,1.21-.43-1.88,3.2-1.57H927V353h-2.41Z" transform="translate(-238.82 -201.89)"/><path class="cls-8" d="M940.79,346.35c0,4.22-1.66,6.87-4.8,6.87s-4.65-2.75-4.67-6.75,1.74-6.84,4.82-6.84S940.79,342.46,940.79,346.35Zm-7,.12c0,3.19.87,4.85,2.25,4.85s2.22-1.78,2.22-4.93-.73-4.86-2.22-4.86S933.81,343.17,933.83,346.47Z" transform="translate(-238.82 -201.89)"/><path class="cls-8" d="M951.62,346.35c0,4.22-1.66,6.87-4.79,6.87s-4.65-2.75-4.67-6.75,1.74-6.84,4.81-6.84S951.62,342.46,951.62,346.35Zm-7,.12c0,3.19.87,4.85,2.24,4.85s2.22-1.78,2.22-4.93-.72-4.86-2.22-4.86C945.58,341.53,944.65,343.17,944.67,346.47Z" transform="translate(-238.82 -201.89)"/><path class="cls-8" d="M957.08,342.1h0l-2.41,1.21-.42-1.88,3.19-1.57h2.09V353h-2.41Z" transform="translate(-238.82 -201.89)"/><path class="cls-8" d="M967.92,342.1h0l-2.41,1.21-.42-1.88,3.19-1.57h2.08V353h-2.4Z" transform="translate(-238.82 -201.89)"/><path class="cls-8" d="M984.13,346.35c0,4.22-1.66,6.87-4.79,6.87s-4.65-2.75-4.67-6.75,1.74-6.84,4.81-6.84S984.13,342.46,984.13,346.35Zm-7,.12c0,3.19.86,4.85,2.24,4.85s2.22-1.78,2.22-4.93-.72-4.86-2.22-4.86C978.09,341.53,977.16,343.17,977.18,346.47Z" transform="translate(-238.82 -201.89)"/><path class="cls-8" d="M989.59,342.1h0l-2.41,1.21-.42-1.88,3.19-1.57H992V353h-2.4Z" transform="translate(-238.82 -201.89)"/></g><path class="cls-9" d="M845.87,767.75a13.62,13.62,0,0,1-5.57,1c-6.84,0-11-4.29-11-10.85,0-7.1,4.92-11.39,11.52-11.39a12.45,12.45,0,0,1,5.24,1l-.86,3.14a10.46,10.46,0,0,0-4.22-.83c-4.39,0-7.56,2.75-7.56,7.93,0,4.74,2.79,7.78,7.52,7.78a11,11,0,0,0,4.29-.8Z" transform="translate(-238.82 -201.89)"/><path class="cls-9" d="M854,750.12h-6.14v-3.29h16.28v3.29h-6.2v18.27H854Z" transform="translate(-238.82 -201.89)"/><path class="cls-9" d="M866.67,746.83h12.45v3.23h-8.51v6h7.93v3.23h-7.93v9.15h-3.94Z" transform="translate(-238.82 -201.89)"/><path class="cls-9" d="M903.79,745.67V764c0,1.6.06,3.33.13,4.38H900.4l-.16-2.46h-.07a5.58,5.58,0,0,1-5.08,2.81c-3.72,0-6.66-3.16-6.66-8,0-5.22,3.23-8.32,7-8.32a5,5,0,0,1,4.38,2h.06v-8.83Zm-3.94,13.63a5.86,5.86,0,0,0-.09-1,3.44,3.44,0,0,0-3.39-2.78c-2.53,0-3.94,2.24-3.94,5.15s1.41,4.93,3.9,4.93a3.49,3.49,0,0,0,3.4-2.79,4.62,4.62,0,0,0,.12-1.15Z" transform="translate(-238.82 -201.89)"/><path class="cls-9" d="M916.78,768.39l-.25-1.73h-.1a5.77,5.77,0,0,1-4.61,2.08,4.62,4.62,0,0,1-4.89-4.64c0-3.93,3.48-5.92,9.24-5.88V758c0-1-.41-2.72-3.16-2.72a8.3,8.3,0,0,0-4.2,1.15l-.76-2.56a11.24,11.24,0,0,1,5.63-1.37c5,0,6.43,3.16,6.43,6.56v5.63a25,25,0,0,0,.22,3.74Zm-.51-7.61c-2.78-.07-5.44.54-5.44,2.91a2.07,2.07,0,0,0,2.24,2.24,3.19,3.19,0,0,0,3.07-2.15,2.65,2.65,0,0,0,.13-.86Z" transform="translate(-238.82 -201.89)"/><path class="cls-9" d="M928.59,748.36v4.45h3.74v2.94h-3.74v6.88c0,1.89.51,2.88,2,2.88a5.61,5.61,0,0,0,1.53-.19l.07,3a8.8,8.8,0,0,1-2.85.38,4.54,4.54,0,0,1-3.39-1.28c-.84-.89-1.22-2.3-1.22-4.35v-7.33h-2.24v-2.94h2.24v-3.52Z" transform="translate(-238.82 -201.89)"/><path class="cls-9" d="M944.08,768.39l-.26-1.73h-.09a5.79,5.79,0,0,1-4.61,2.08,4.63,4.63,0,0,1-4.9-4.64c0-3.93,3.49-5.92,9.25-5.88V758c0-1-.42-2.72-3.17-2.72a8.29,8.29,0,0,0-4.19,1.15l-.77-2.56a11.27,11.27,0,0,1,5.63-1.37c5,0,6.44,3.16,6.44,6.56v5.63a25,25,0,0,0,.22,3.74Zm-.51-7.61c-2.79-.07-5.44.54-5.44,2.91a2.07,2.07,0,0,0,2.24,2.24,3.2,3.2,0,0,0,3.07-2.15,3,3,0,0,0,.13-.86Z" transform="translate(-238.82 -201.89)"/><path class="cls-9" d="M958,764.78a8.8,8.8,0,0,0,4,1.12c1.73,0,2.49-.71,2.49-1.73s-.64-1.6-2.56-2.27c-3-1.06-4.32-2.72-4.28-4.55,0-2.75,2.27-4.89,5.88-4.89a9.18,9.18,0,0,1,4.13.92l-.77,2.79a6.91,6.91,0,0,0-3.29-.9c-1.41,0-2.18.67-2.18,1.63s.74,1.48,2.72,2.18c2.82,1,4.13,2.46,4.16,4.77,0,2.81-2.21,4.86-6.33,4.86a10.06,10.06,0,0,1-4.74-1.09Z" transform="translate(-238.82 -201.89)"/><path class="cls-9" d="M976,748.36v4.45h3.75v2.94H976v6.88c0,1.89.52,2.88,2,2.88a5.76,5.76,0,0,0,1.54-.19l.06,3a8.8,8.8,0,0,1-2.85.38,4.56,4.56,0,0,1-3.39-1.28c-.83-.89-1.22-2.3-1.22-4.35v-7.33H970v-2.94h2.23v-3.52Z" transform="translate(-238.82 -201.89)"/><path class="cls-9" d="M982.77,757.83c0-2.11,0-3.61-.13-5h3.42l.13,3h.13a4.64,4.64,0,0,1,4.25-3.32,4.38,4.38,0,0,1,.93.09v3.71a5.8,5.8,0,0,0-1.15-.12,3.46,3.46,0,0,0-3.52,3,6.25,6.25,0,0,0-.13,1.22v8.06h-3.93Z" transform="translate(-238.82 -201.89)"/><path class="cls-9" d="M996.65,761.7c.1,2.82,2.31,4,4.8,4a11.62,11.62,0,0,0,4.32-.71l.58,2.72a14.58,14.58,0,0,1-5.44,1c-5.06,0-8-3.1-8-7.87,0-4.32,2.62-8.38,7.61-8.38s6.72,4.16,6.72,7.58a9,9,0,0,1-.13,1.66Zm6.85-2.75c0-1.44-.61-3.81-3.23-3.81-2.43,0-3.46,2.21-3.62,3.81Z" transform="translate(-238.82 -201.89)"/><path class="cls-9" d="M1019.15,768.39l-.26-1.73h-.09a5.79,5.79,0,0,1-4.61,2.08,4.63,4.63,0,0,1-4.9-4.64c0-3.93,3.49-5.92,9.25-5.88V758c0-1-.42-2.72-3.17-2.72a8.29,8.29,0,0,0-4.19,1.15l-.77-2.56a11.3,11.3,0,0,1,5.63-1.37c5,0,6.44,3.16,6.44,6.56v5.63a25,25,0,0,0,.22,3.74Zm-.51-7.61c-2.79-.07-5.44.54-5.44,2.91a2.07,2.07,0,0,0,2.24,2.24,3.2,3.2,0,0,0,3.07-2.15,3,3,0,0,0,.13-.86Z" transform="translate(-238.82 -201.89)"/><path class="cls-9" d="M1026.64,757.45c0-1.79,0-3.3-.13-4.64h3.39l.16,2.3h.1a5.38,5.38,0,0,1,4.8-2.65,4.51,4.51,0,0,1,4.32,2.88h.06a5.82,5.82,0,0,1,1.92-2,5.26,5.26,0,0,1,3.14-.92c2.59,0,5.21,1.76,5.21,6.75v9.18h-3.84v-8.61c0-2.59-.89-4.12-2.78-4.12a3,3,0,0,0-2.75,2.08,5.37,5.37,0,0,0-.2,1.31v9.34h-3.84v-9c0-2.18-.86-3.71-2.68-3.71a3.07,3.07,0,0,0-2.82,2.24,3.35,3.35,0,0,0-.22,1.28v9.21h-3.84Z" transform="translate(-238.82 -201.89)"/></svg>